<svg width="25" height="25" viewBox="0 0 25 25" fill="none" xmlns="http://www.w3.org/2000/svg">
<path d="M12.6067 4.6066L9.40666 7.80659L11.0067 9.40659L14.2067 6.2066C15.5266 4.8866 17.6866 4.8866 19.0066 6.2066C20.3266 7.52659 20.3266 9.68659 19.0066 11.0066L15.8066 14.2066L17.4066 15.8066L20.6066 12.6066C22.8146 10.3986 22.8146 6.81459 20.6066 4.6066C18.3986 2.39861 14.8146 2.39861 12.6067 4.6066ZM14.2067 15.8066L11.0067 19.0066C9.68666 20.3266 7.52667 20.3266 6.20667 19.0066C4.88668 17.6866 4.88668 15.5266 6.20667 14.2066L9.40666 11.0066L7.80667 9.40659L4.60668 12.6066C2.39868 14.8146 2.39868 18.3986 4.60668 20.6066C6.81467 22.8145 10.3987 22.8145 12.6067 20.6066L15.8066 17.4066L14.2067 15.8066ZM8.60667 15.0066L15.0066 8.60659L16.6066 10.2066L10.2067 16.6066L8.60667 15.0066ZM12.6067 4.6066L9.40666 7.80659L11.0067 9.40659L14.2067 6.2066C15.5266 4.8866 17.6866 4.8866 19.0066 6.2066C20.3266 7.52659 20.3266 9.68659 19.0066 11.0066L15.8066 14.2066L17.4066 15.8066L20.6066 12.6066C22.8146 10.3986 22.8146 6.81459 20.6066 4.6066C18.3986 2.39861 14.8146 2.39861 12.6067 4.6066ZM14.2067 15.8066L11.0067 19.0066C9.68666 20.3266 7.52667 20.3266 6.20667 19.0066C4.88668 17.6866 4.88668 15.5266 6.20667 14.2066L9.40666 11.0066L7.80667 9.40659L4.60668 12.6066C2.39868 14.8146 2.39868 18.3986 4.60668 20.6066C6.81467 22.8145 10.3987 22.8145 12.6067 20.6066L15.8066 17.4066L14.2067 15.8066ZM8.60667 15.0066L15.0066 8.60659L16.6066 10.2066L10.2067 16.6066L8.60667 15.0066Z" fill="black"/>
</svg>
