<svg width="354" height="398" viewBox="0 0 354 398" fill="none" xmlns="http://www.w3.org/2000/svg">
<path fill-rule="evenodd" clip-rule="evenodd" d="M158.931 1.06863C35.3448 19.9906 -15.0222 161.332 70.9308 248.017C164.231 342.111 323.346 273.47 319.121 140.95C318.316 115.693 306.575 74.4496 300.191 74.4496C299.468 74.4496 246.966 101.926 245.593 103.023C245.406 103.172 246.605 106.141 248.255 109.622C270.359 156.235 245.595 211.535 196.392 225.433C140.899 241.109 85.5908 194.082 92.3288 136.951C99.5838 75.4356 169.118 43.2076 220.267 77.6536L225.467 81.1556L204.449 105.358C185.388 127.307 181.535 132.284 184.378 131.283C187.152 130.307 339.474 9.07763 339.15 8.10463C338.877 7.28363 331.777 6.87263 314.62 6.68163L290.475 6.41463L278.73 19.9066C268.563 31.5866 266.765 33.2336 265.34 32.1736C233.587 8.55363 191.12 -3.85937 158.931 1.06863ZM18.2518 347.845C-4.50024 353.971 -6.56624 388.116 15.3598 395.638C29.2578 400.406 49.8748 391.913 42.1098 384.618L39.7058 382.36L34.9198 384.905C22.6948 391.405 9.93076 384.881 9.93076 372.134C9.93076 358.885 23.1258 351.979 35.0688 358.978L39.7838 361.741L42.1588 358.98C48.1248 352.044 31.4678 344.286 18.2518 347.845ZM78.3398 347.109C76.9148 347.491 71.3968 359.234 59.0288 388.2L55.5068 396.45H60.3628C65.1588 396.45 65.2478 396.391 67.5748 391.7L69.9308 386.95H81.8008H93.6718L95.4258 391.45C97.1668 395.916 97.2198 395.952 102.434 396.257C107.15 396.532 107.618 396.378 107.002 394.757C106.625 393.763 101.787 382.488 96.2518 369.7L86.1888 346.45L83.0598 346.566C81.3388 346.63 79.2148 346.874 78.3398 347.109ZM124.431 347.428C123.18 348.217 122.879 352.373 122.616 372.412L122.3 396.45H127.341H132.381L132.656 380.355L132.931 364.261L144.925 380.355L156.919 396.45H161.675H166.431V371.45V346.45H162.431H158.431L158.343 358.2C158.295 364.662 157.946 372.2 157.567 374.95L156.879 379.95L144.405 363.207C131.287 345.6 129.528 344.21 124.431 347.428ZM182.75 348.586C183.088 349.93 187.485 361.25 192.522 373.74L201.68 396.45H206.446H211.213L216.242 384.2C232.362 344.932 231.984 346.504 225.303 346.465C221.559 346.443 220.938 347.516 213.898 366.153C210.418 375.366 207.153 383.043 206.641 383.213C206.129 383.384 202.666 375.407 198.945 365.487C193.72 351.56 191.78 347.45 190.43 347.45C189.468 347.45 187.209 347.156 185.409 346.796C182.323 346.178 182.172 346.281 182.75 348.586ZM258.808 347.189C257.796 347.875 239.699 388.759 237.999 394.2C237.336 396.322 237.574 396.45 242.166 396.45H247.036L248.834 391.45L250.632 386.45H262.515H274.397L276.931 391.45C279.235 395.997 288.431 399.51 288.431 395.844C288.431 395.283 279.275 373.73 271.059 354.95C267.479 346.769 263.318 344.133 258.808 347.189ZM312.931 347.776C303.186 351.589 299.519 360.162 304.287 367.982C306.109 370.968 308.168 372.118 319.827 376.655C327.308 379.567 329.479 382.402 326.504 385.377C323.049 388.832 311.432 387.475 306.536 383.045C303.561 380.353 298.483 385.816 300.084 389.987C300.911 392.144 311.98 396.684 317.675 397.203C340.766 399.307 346.558 374.267 324.537 367.539C314.448 364.456 311.133 361.148 314.631 357.65C316.465 355.816 324.417 356.261 329.282 358.468C334.379 360.781 334.9 360.59 336.47 355.833C338.756 348.905 323.443 343.663 312.931 347.776ZM84.5948 366.152C90.2218 378.561 90.4858 377.45 81.9058 377.45C73.0028 377.45 73.0098 377.467 77.6808 366.865C81.5998 357.969 80.9168 358.04 84.5948 366.152ZM267.287 368.933C270.898 377.415 270.88 377.45 262.931 377.45C254.761 377.45 254.526 376.888 258.874 367.733C262.976 359.095 263.105 359.113 267.287 368.933ZM344.057 385.982C341.955 391.46 344.352 394.739 350.111 394.265C353.925 393.95 353.931 393.943 353.931 389.45V384.95L349.307 384.65C345.766 384.421 344.536 384.733 344.057 385.982Z" fill="white"/>
</svg>
