<svg width="72" height="68" viewBox="0 0 72 68" fill="none" xmlns="http://www.w3.org/2000/svg">
<path fill-rule="evenodd" clip-rule="evenodd" d="M30.2903 0.249206C1.68774 4.66184 -9.96912 37.6227 9.92371 57.8377C31.5169 79.7805 68.3422 63.7734 67.3644 32.8696C67.1781 26.9796 64.4608 17.3617 62.9833 17.3617C62.8159 17.3617 50.665 23.7692 50.3472 24.025C50.3039 24.0597 50.5814 24.7521 50.9633 25.5639C56.079 36.4341 50.3477 49.3301 38.9602 52.5711C26.117 56.2268 13.3166 45.26 14.876 31.937C16.5551 17.5917 32.6479 10.0761 44.4858 18.1089L45.6893 18.9256L40.8249 24.5695C36.4134 29.688 35.5217 30.8487 36.1797 30.6152C36.8217 30.3876 72.0749 2.11691 71.9999 1.89001C71.9367 1.69855 70.2935 1.6027 66.3227 1.55816L60.7346 1.4959L58.0164 4.64225C55.6633 7.36603 55.2472 7.75012 54.9174 7.50292C47.5685 1.99472 37.7401 -0.900008 30.2903 0.249206Z" fill="#F2F2F2"/>
</svg>
