<svg width="249" height="68" viewBox="0 0 249 68" fill="none" xmlns="http://www.w3.org/2000/svg">
<path d="M100.727 46.2762C91.1244 43.055 92.0292 28.4326 101.993 25.8091C107.781 24.285 115.076 27.6073 112.463 30.5776L111.423 31.76L109.358 30.5768C104.128 27.5795 98.3491 30.5369 98.3491 36.2108C98.3491 41.6696 103.939 44.4635 109.293 41.6799L111.389 40.59L112.441 41.557C115.842 44.681 106.813 48.3181 100.727 46.2762Z" fill="#54AEEB"/>
<path d="M147.698 36.3298C147.813 27.7482 147.945 25.9684 148.493 25.6305C150.725 24.2525 151.496 24.8477 157.24 32.3878L162.703 39.5579L163.005 37.4167C163.171 36.239 163.323 33.0109 163.344 30.2436L163.383 25.2117H165.135H166.886V35.9178V46.624H164.804H162.721L157.468 39.7314L152.216 32.8392L152.095 39.7314L151.975 46.624H149.767H147.56L147.698 36.3298Z" fill="#54AEEB"/>
<path d="M178.313 36.8985C176.107 31.5498 174.181 26.702 174.033 26.1265C173.78 25.1393 173.846 25.0952 175.198 25.3599C175.986 25.5141 176.975 25.64 177.397 25.64C177.988 25.64 178.837 27.4001 181.126 33.3642C182.755 37.6124 184.272 41.0285 184.496 40.9553C184.72 40.8825 186.15 37.5949 187.674 33.6494C190.757 25.6682 191.029 25.2087 192.669 25.2182C195.595 25.2349 195.76 24.5617 188.701 41.378L186.498 46.624H184.411H182.323L178.313 36.8985Z" fill="#54AEEB"/>
<path d="M227.259 34.4327C225.171 31.0838 226.777 27.4125 231.045 25.7796C235.648 24.0182 242.354 26.2631 241.353 29.2299C240.666 31.2671 240.437 31.3489 238.205 30.3584C236.075 29.4132 232.592 29.2227 231.789 30.0081C230.257 31.5061 231.709 32.9227 236.127 34.243C245.771 37.1242 243.235 47.8475 233.122 46.9464C230.628 46.7242 225.78 44.7799 225.418 43.8562C224.717 42.07 226.941 39.7305 228.244 40.8833C230.388 42.7805 235.476 43.3616 236.989 41.882C238.292 40.608 237.341 39.3939 234.065 38.1469C228.959 36.2039 228.057 35.7114 227.259 34.4327Z" fill="#54AEEB"/>
<path d="M247.327 45.6882C244.805 45.8912 243.755 44.487 244.676 42.1411C244.886 41.6062 245.424 41.4726 246.975 41.5707L249 41.6991V43.6262C249 45.5504 248.997 45.5534 247.327 45.6882Z" fill="#54AEEB"/>
<path fill-rule="evenodd" clip-rule="evenodd" d="M128.308 25.4939C127.684 25.6575 125.267 30.6864 119.851 43.0909L118.309 46.624H120.435C122.536 46.624 122.575 46.5987 123.594 44.5898L124.625 42.5556H129.824H135.022L135.791 44.4827C136.553 46.3953 136.576 46.4107 138.86 46.5413C140.925 46.6591 141.13 46.5931 140.86 45.8989C140.695 45.4733 138.576 40.6448 136.152 35.1684L131.745 25.2117L130.375 25.2614C129.621 25.2888 128.691 25.3933 128.308 25.4939ZM132.718 38.2191C133.06 37.7665 132.416 36.6012 131.047 33.649C130.258 31.9461 129.927 31.0706 129.593 31.0694C129.246 31.068 128.894 32.0122 128.019 33.9543C126.918 36.3992 126.409 37.5255 126.782 38.0442C127.102 38.4889 128.07 38.4873 129.87 38.4873C131.54 38.4873 132.445 38.5813 132.718 38.2191Z" fill="#54AEEB"/>
<path fill-rule="evenodd" clip-rule="evenodd" d="M207.342 25.5282C206.899 25.822 198.973 43.3303 198.229 45.6604C197.939 46.5691 198.043 46.624 200.054 46.624H202.187L202.974 44.4827L203.761 42.3415H208.965H214.169L215.279 44.4827C216.842 47.4828 215.966 46.1981 220.315 46.3645C220.315 46.1242 216.305 36.8942 212.707 28.8518C211.139 25.3483 209.317 24.2195 207.342 25.5282ZM209.148 38.4873C212.629 38.4873 212.637 38.4723 211.055 34.84C209.224 30.6346 209.167 30.6269 207.371 34.3261C205.467 38.2466 205.57 38.4873 209.148 38.4873Z" fill="#54AEEB"/>
<path fill-rule="evenodd" clip-rule="evenodd" d="M30.2903 0.249206C1.68774 4.66184 -9.96912 37.6227 9.92371 57.8377C31.5169 79.7805 68.3422 63.7734 67.3644 32.8696C67.1781 26.9796 64.4608 17.3617 62.9833 17.3617C62.8159 17.3617 50.665 23.7692 50.3472 24.025C50.3039 24.0597 50.5814 24.7521 50.9633 25.5639C56.079 36.4341 50.3477 49.3301 38.9602 52.5711C26.117 56.2268 13.3166 45.26 14.876 31.937C16.5551 17.5917 32.6479 10.0761 44.4858 18.1089L45.6893 18.9256L40.8249 24.5695C36.4134 29.688 35.5217 30.8487 36.1797 30.6152C36.8217 30.3876 72.0749 2.11691 71.9999 1.89001C71.9367 1.69855 70.2935 1.6027 66.3227 1.55816L60.7346 1.4959L58.0164 4.64225C55.6633 7.36603 55.2472 7.75012 54.9174 7.50292C47.5685 1.99472 37.7401 -0.900008 30.2903 0.249206Z" fill="#54AEEB"/>
</svg>
