<svg width="170" height="26" viewBox="0 0 170 26" fill="none" xmlns="http://www.w3.org/2000/svg">
<path fill-rule="evenodd" clip-rule="evenodd" d="M6.33523 0.975778C6.33523 1.01219 7.439 2.69794 8.78816 4.72188L11.2411 8.402L13.4969 5.01721C14.7376 3.15572 15.8585 1.46997 15.9878 1.27111L16.2229 0.909668H11.2791C8.55999 0.909668 6.33523 0.939372 6.33523 0.975778ZM17.9748 1.27111C18.1041 1.46997 19.225 3.15572 20.4657 5.01721L22.7215 8.402L25.1744 4.72188C26.5236 2.69794 27.6274 1.01219 27.6274 0.975778C27.6274 0.939372 25.4026 0.909668 22.6835 0.909668H17.7397L17.9748 1.27111ZM2.72082 5.13313C1.41964 7.09096 0.335314 8.74556 0.311262 8.80997C0.286027 8.87713 2.37134 8.92707 5.2074 8.92707H10.1473L7.69424 5.24695C6.34521 3.22289 5.20648 1.56828 5.1639 1.57012C5.12144 1.57196 4.02201 3.17531 2.72082 5.13313ZM26.2683 5.24695L23.8153 8.92707H28.7552C31.5912 8.92707 33.6765 8.87713 33.6513 8.80997C33.5606 8.56734 28.8725 1.57327 28.7987 1.57012C28.7561 1.56828 27.6174 3.22289 26.2683 5.24695ZM14.6389 5.47367L12.3823 8.86136L14.6817 8.89724C15.9465 8.91695 18.0163 8.91695 19.2812 8.89724L21.5813 8.86136L19.3473 5.50995C18.1186 3.6666 17.0644 2.14211 17.0044 2.12214C16.9446 2.10229 15.8801 3.61035 14.6389 5.47367ZM0.760368 10.4027C1.24785 10.9755 15.708 25.6218 15.7473 25.5825C15.7691 25.5607 14.6712 22.0852 13.3073 17.8593L10.8277 10.1757L5.6682 10.1413L0.508674 10.1068L0.760368 10.4027ZM12.1456 10.2743C12.1762 10.3647 13.2619 13.7358 14.5583 17.7658C15.8548 21.7958 16.9454 25.0932 16.9819 25.0932C17.0184 25.0933 18.1082 21.7959 19.4037 17.7659C20.6991 13.7358 21.7846 10.3647 21.8158 10.2743C21.8605 10.1448 20.8369 10.11 16.9813 10.11C13.1264 10.11 12.102 10.1448 12.1456 10.2743ZM23.0945 10.2743C22.4802 12.0804 18.1865 25.5539 18.216 25.5832C18.2684 25.6357 33.4104 10.2941 33.4104 10.1884C33.4104 10.0176 23.1527 10.1029 23.0945 10.2743Z" fill="white"/>
<path d="M51.4374 19.4865C52.072 19.4865 52.6507 19.3585 53.1734 19.1025C53.696 18.8465 54.12 18.4358 54.4454 17.8705C54.5947 17.6144 54.6934 17.3691 54.7414 17.1345C54.7947 16.8945 54.8214 16.6385 54.8214 16.3665C54.8267 16.0945 54.8294 15.7745 54.8294 15.4065V7.72645H52.6214V15.4065C52.6214 15.6998 52.616 15.9585 52.6054 16.1825C52.5947 16.4065 52.5574 16.5958 52.4934 16.7505C52.392 16.9958 52.224 17.1745 51.9894 17.2865C51.76 17.3985 51.544 17.4545 51.3414 17.4545C51.048 17.4545 50.7707 17.3478 50.5094 17.1345C50.248 16.9158 50.0934 16.6598 50.0454 16.3665L47.9014 16.8785C48.152 17.6785 48.5734 18.3131 49.1654 18.7825C49.7627 19.2518 50.52 19.4865 51.4374 19.4865Z" fill="white"/>
<path d="M59.1445 19.4865C59.8112 19.4865 60.3712 19.3851 60.8245 19.1825C61.2832 18.9745 61.7045 18.6438 62.0885 18.1905V19.2465H63.9925V13.9665C63.9925 13.5718 63.9765 13.2145 63.9445 12.8945C63.9125 12.5745 63.8112 12.2545 63.6405 11.9345C63.3365 11.3584 62.8885 10.9531 62.2965 10.7184C61.7045 10.4838 61.0272 10.3665 60.2645 10.3665C59.2245 10.3665 58.4032 10.5905 57.8005 11.0385C57.1978 11.4865 56.7872 12.0678 56.5685 12.7825L58.5365 13.4065C58.6752 13.0118 58.9178 12.7371 59.2645 12.5824C59.6112 12.4278 59.9445 12.3505 60.2645 12.3505C60.7765 12.3505 61.1578 12.4465 61.4085 12.6385C61.6592 12.8251 61.8058 13.1211 61.8485 13.5265C61.0378 13.6438 60.3232 13.7585 59.7045 13.8705C59.0858 13.9771 58.5685 14.1051 58.1525 14.2544C57.4592 14.5104 56.9712 14.8598 56.6885 15.3025C56.4058 15.7398 56.2645 16.2598 56.2645 16.8625C56.2645 17.3425 56.3738 17.7825 56.5925 18.1825C56.8165 18.5771 57.1418 18.8944 57.5685 19.1344C58.0005 19.3691 58.5258 19.4865 59.1445 19.4865ZM59.6085 17.7745C59.2352 17.7745 58.9392 17.6918 58.7205 17.5265C58.5018 17.3558 58.3925 17.1238 58.3925 16.8305C58.3925 16.6118 58.4618 16.4251 58.6005 16.2705C58.7392 16.1105 58.9685 15.9665 59.2885 15.8385C59.5338 15.7478 59.8352 15.6651 60.1925 15.5905C60.5552 15.5105 61.1018 15.4091 61.8325 15.2865C61.8272 15.4945 61.8112 15.7238 61.7845 15.9745C61.7578 16.2198 61.6992 16.4358 61.6085 16.6224C61.5498 16.7451 61.4378 16.8971 61.2725 17.0785C61.1125 17.2598 60.8938 17.4225 60.6165 17.5665C60.3445 17.7051 60.0085 17.7745 59.6085 17.7745Z" fill="white"/>
<path d="M69.4006 19.4865C70.4033 19.4865 71.246 19.2385 71.9286 18.7425C72.6113 18.2465 73.0753 17.5398 73.3206 16.6224L71.0966 16.1585C70.9686 16.5745 70.7766 16.8945 70.5206 17.1185C70.2646 17.3425 69.8913 17.4545 69.4006 17.4545C68.7446 17.4545 68.2486 17.2225 67.9126 16.7585C67.582 16.2891 67.4166 15.6785 67.4166 14.9265C67.4166 14.2065 67.574 13.6065 67.8886 13.1265C68.2086 12.6411 68.7126 12.3984 69.4006 12.3984C69.8006 12.3984 70.158 12.5238 70.4726 12.7745C70.7926 13.0251 71.0166 13.3745 71.1446 13.8225L73.3206 13.2464C73.1286 12.3558 72.686 11.6545 71.9926 11.1425C71.3046 10.6251 70.4513 10.3665 69.4326 10.3665C68.5526 10.3665 67.79 10.5638 67.1446 10.9585C66.4993 11.3531 65.998 11.8944 65.6406 12.5824C65.2886 13.2704 65.1126 14.0518 65.1126 14.9265C65.1126 15.7905 65.2833 16.5664 65.6246 17.2544C65.966 17.9424 66.4566 18.4865 67.0966 18.8865C67.7366 19.2865 68.5046 19.4865 69.4006 19.4865Z" fill="white"/>
<path d="M78.0944 19.4865C78.9584 19.4865 79.7184 19.2945 80.3744 18.9104C81.0357 18.5211 81.5504 17.9851 81.9184 17.3025C82.2917 16.6145 82.4784 15.8225 82.4784 14.9265C82.4784 14.0358 82.2944 13.2491 81.9264 12.5665C81.5584 11.8785 81.0437 11.3398 80.3824 10.9504C79.7264 10.5611 78.9637 10.3665 78.0944 10.3665C77.241 10.3665 76.4864 10.5585 75.8304 10.9424C75.1744 11.3265 74.6597 11.8625 74.2864 12.5505C73.913 13.2331 73.7264 14.0251 73.7264 14.9265C73.7264 15.8171 73.9077 16.6065 74.2704 17.2945C74.6384 17.9771 75.1504 18.5131 75.8064 18.9025C76.4624 19.2918 77.225 19.4865 78.0944 19.4865ZM78.0944 17.4545C77.417 17.4545 76.9024 17.2278 76.5504 16.7745C76.2037 16.3158 76.0304 15.6998 76.0304 14.9265C76.0304 14.1745 76.1957 13.5665 76.5264 13.1025C76.8624 12.6331 77.385 12.3984 78.0944 12.3984C78.7824 12.3984 79.2997 12.6278 79.6464 13.0865C79.9984 13.5451 80.1744 14.1585 80.1744 14.9265C80.1744 15.6678 80.001 16.2758 79.6544 16.7505C79.313 17.2198 78.793 17.4545 78.0944 17.4545Z" fill="white"/>
<path d="M83.7416 19.2465H85.6616V18.7505C85.9656 18.9851 86.3123 19.1665 86.7016 19.2945C87.091 19.4225 87.523 19.4865 87.9976 19.4865C88.7923 19.4865 89.4883 19.2865 90.0856 18.8865C90.683 18.4865 91.147 17.9424 91.4776 17.2544C91.8136 16.5664 91.9816 15.7905 91.9816 14.9265C91.9816 14.0465 91.811 13.2651 91.4696 12.5824C91.1336 11.8944 90.659 11.3531 90.0456 10.9585C89.4323 10.5638 88.7123 10.3665 87.8856 10.3665C87.507 10.3665 87.1523 10.4118 86.8216 10.5024C86.4963 10.5931 86.2003 10.7238 85.9336 10.8945V7.72645H83.7416V19.2465ZM87.6456 17.5505C86.9203 17.5505 86.4083 17.3105 86.1096 16.8305C85.811 16.3451 85.6616 15.7105 85.6616 14.9265C85.6616 14.1425 85.8083 13.5105 86.1016 13.0305C86.4003 12.5451 86.8883 12.3025 87.5656 12.3025C88.051 12.3025 88.4483 12.4225 88.7576 12.6625C89.0723 12.8971 89.3043 13.2145 89.4536 13.6144C89.603 14.0091 89.6776 14.4465 89.6776 14.9265C89.6776 15.4118 89.6056 15.8544 89.4616 16.2544C89.3176 16.6491 89.0963 16.9638 88.7976 17.1985C88.499 17.4331 88.115 17.5505 87.6456 17.5505Z" fill="white"/>
<path d="M95.9851 19.2465H99.7131C99.8038 19.2465 99.9905 19.2438 100.273 19.2385C100.556 19.2331 100.828 19.2145 101.089 19.1825C102.017 19.0705 102.804 18.7478 103.449 18.2145C104.094 17.6811 104.585 17.0038 104.921 16.1825C105.257 15.3611 105.425 14.4625 105.425 13.4865C105.425 12.5105 105.257 11.6118 104.921 10.7905C104.585 9.96912 104.094 9.29178 103.449 8.75845C102.804 8.22512 102.017 7.90245 101.089 7.79045C100.828 7.75845 100.556 7.73978 100.273 7.73445C99.9905 7.72912 99.8038 7.72645 99.7131 7.72645H95.9851V19.2465ZM98.1931 17.1985V9.77445H99.7131C99.8571 9.77445 100.052 9.77712 100.297 9.78245C100.542 9.78778 100.764 9.81178 100.961 9.85445C101.446 9.95045 101.849 10.1771 102.169 10.5344C102.489 10.8918 102.726 11.3291 102.881 11.8464C103.041 12.3638 103.121 12.9104 103.121 13.4865C103.121 14.0358 103.044 14.5691 102.889 15.0865C102.74 15.6038 102.505 16.0465 102.185 16.4145C101.87 16.7825 101.462 17.0171 100.961 17.1185C100.764 17.1558 100.542 17.1798 100.297 17.1905C100.052 17.1958 99.8571 17.1985 99.7131 17.1985H98.1931Z" fill="white"/>
<path d="M107.024 9.40645H109.2V7.48645H107.024V9.40645ZM107.024 19.2465H109.2V10.6065H107.024V19.2465Z" fill="white"/>
<path d="M113.519 19.4865C114.186 19.4865 114.746 19.3851 115.199 19.1825C115.658 18.9745 116.079 18.6438 116.463 18.1905V19.2465H118.367V13.9665C118.367 13.5718 118.351 13.2145 118.319 12.8945C118.287 12.5745 118.186 12.2545 118.015 11.9345C117.711 11.3584 117.263 10.9531 116.671 10.7184C116.079 10.4838 115.402 10.3665 114.639 10.3665C113.599 10.3665 112.778 10.5905 112.175 11.0385C111.572 11.4865 111.162 12.0678 110.943 12.7825L112.911 13.4065C113.05 13.0118 113.292 12.7371 113.639 12.5824C113.986 12.4278 114.319 12.3505 114.639 12.3505C115.151 12.3505 115.532 12.4465 115.783 12.6385C116.034 12.8251 116.18 13.1211 116.223 13.5265C115.412 13.6438 114.698 13.7585 114.079 13.8705C113.46 13.9771 112.943 14.1051 112.527 14.2544C111.834 14.5104 111.346 14.8598 111.063 15.3025C110.78 15.7398 110.639 16.2598 110.639 16.8625C110.639 17.3425 110.748 17.7825 110.967 18.1825C111.191 18.5771 111.516 18.8944 111.943 19.1344C112.375 19.3691 112.9 19.4865 113.519 19.4865ZM113.983 17.7745C113.61 17.7745 113.314 17.6918 113.095 17.5265C112.876 17.3558 112.767 17.1238 112.767 16.8305C112.767 16.6118 112.836 16.4251 112.975 16.2705C113.114 16.1105 113.343 15.9665 113.663 15.8385C113.908 15.7478 114.21 15.6651 114.567 15.5905C114.93 15.5105 115.476 15.4091 116.207 15.2865C116.202 15.4945 116.186 15.7238 116.159 15.9745C116.132 16.2198 116.074 16.4358 115.983 16.6224C115.924 16.7451 115.812 16.8971 115.647 17.0785C115.487 17.2598 115.268 17.4225 114.991 17.5665C114.719 17.7051 114.383 17.7745 113.983 17.7745Z" fill="white"/>
<path d="M119.951 19.2465H122.143V14.0145C122.143 13.5185 122.279 13.1158 122.551 12.8064C122.828 12.4918 123.194 12.3345 123.647 12.3345C124.122 12.3345 124.492 12.4945 124.759 12.8145C125.031 13.1291 125.167 13.5718 125.167 14.1425V19.2465H127.343V14.0145C127.343 13.5185 127.479 13.1158 127.751 12.8064C128.028 12.4918 128.394 12.3345 128.847 12.3345C129.322 12.3345 129.692 12.4945 129.959 12.8145C130.231 13.1291 130.367 13.5718 130.367 14.1425V19.2465H132.543V13.5665C132.543 12.6225 132.29 11.8598 131.783 11.2785C131.282 10.6918 130.538 10.3984 129.551 10.3984C128.996 10.3984 128.487 10.5184 128.023 10.7584C127.559 10.9984 127.188 11.3265 126.911 11.7425C126.687 11.3371 126.367 11.0118 125.951 10.7664C125.535 10.5211 125.018 10.3984 124.399 10.3984C123.876 10.3984 123.396 10.5024 122.959 10.7105C122.522 10.9131 122.159 11.1931 121.871 11.5504V10.6065H119.951V19.2465Z" fill="white"/>
<path d="M137.875 19.4865C138.739 19.4865 139.499 19.2945 140.155 18.9104C140.816 18.5211 141.331 17.9851 141.699 17.3025C142.072 16.6145 142.259 15.8225 142.259 14.9265C142.259 14.0358 142.075 13.2491 141.707 12.5665C141.339 11.8785 140.824 11.3398 140.163 10.9504C139.507 10.5611 138.744 10.3665 137.875 10.3665C137.022 10.3665 136.267 10.5585 135.611 10.9424C134.955 11.3265 134.44 11.8625 134.067 12.5505C133.694 13.2331 133.507 14.0251 133.507 14.9265C133.507 15.8171 133.688 16.6065 134.051 17.2945C134.419 17.9771 134.931 18.5131 135.587 18.9025C136.243 19.2918 137.006 19.4865 137.875 19.4865ZM137.875 17.4545C137.198 17.4545 136.683 17.2278 136.331 16.7745C135.984 16.3158 135.811 15.6998 135.811 14.9265C135.811 14.1745 135.976 13.5665 136.307 13.1025C136.643 12.6331 137.166 12.3984 137.875 12.3984C138.563 12.3984 139.08 12.6278 139.427 13.0865C139.779 13.5451 139.955 14.1585 139.955 14.9265C139.955 15.6678 139.782 16.2758 139.435 16.7505C139.094 17.2198 138.574 17.4545 137.875 17.4545Z" fill="white"/>
<path d="M143.522 19.2465H145.73V14.8624C145.73 14.3238 145.789 13.8918 145.906 13.5665C146.029 13.2411 146.184 12.9958 146.37 12.8305C146.557 12.6598 146.757 12.5451 146.97 12.4865C147.184 12.4278 147.384 12.3984 147.57 12.3984C148.034 12.3984 148.392 12.5024 148.642 12.7105C148.898 12.9185 149.082 13.1771 149.194 13.4865C149.306 13.7958 149.373 14.1051 149.394 14.4144C149.416 14.7184 149.426 14.9691 149.426 15.1665V19.2465H151.634V14.3985C151.634 14.2545 151.624 14.0251 151.602 13.7105C151.581 13.3958 151.52 13.0491 151.418 12.6705C151.317 12.2865 151.146 11.9185 150.906 11.5665C150.672 11.2145 150.341 10.9238 149.914 10.6945C149.488 10.4651 148.936 10.3504 148.258 10.3504C147.634 10.3504 147.09 10.4544 146.626 10.6624C146.162 10.8705 145.773 11.1478 145.458 11.4945V10.6065H143.522V19.2465Z" fill="white"/>
<path d="M156.578 19.4865C157.053 19.4865 157.485 19.4225 157.874 19.2945C158.263 19.1665 158.61 18.9851 158.914 18.7505V19.2465H160.834V7.72645H158.642V10.8945C158.375 10.7238 158.077 10.5931 157.746 10.5024C157.421 10.4118 157.069 10.3665 156.69 10.3665C155.863 10.3665 155.143 10.5638 154.53 10.9585C153.917 11.3531 153.439 11.8944 153.098 12.5824C152.762 13.2651 152.594 14.0465 152.594 14.9265C152.594 15.7905 152.759 16.5664 153.09 17.2544C153.426 17.9424 153.893 18.4865 154.49 18.8865C155.087 19.2865 155.783 19.4865 156.578 19.4865ZM156.93 17.5505C156.461 17.5505 156.077 17.4331 155.778 17.1985C155.479 16.9638 155.258 16.6491 155.114 16.2544C154.97 15.8544 154.898 15.4118 154.898 14.9265C154.898 14.4465 154.973 14.0091 155.122 13.6144C155.271 13.2145 155.501 12.8971 155.81 12.6625C156.125 12.4225 156.525 12.3025 157.01 12.3025C157.693 12.3025 158.181 12.5451 158.474 13.0305C158.767 13.5105 158.914 14.1425 158.914 14.9265C158.914 15.7105 158.765 16.3451 158.466 16.8305C158.173 17.3105 157.661 17.5505 156.93 17.5505Z" fill="white"/>
<path d="M165.97 19.4865C167.101 19.4865 167.986 19.2331 168.626 18.7264C169.266 18.2198 169.586 17.5238 169.586 16.6385C169.586 15.9665 169.378 15.4358 168.962 15.0464C168.551 14.6571 167.853 14.3345 166.866 14.0785C166.194 13.9078 165.693 13.7691 165.362 13.6625C165.037 13.5558 164.821 13.4518 164.714 13.3505C164.613 13.2491 164.562 13.1238 164.562 12.9745C164.562 12.7238 164.682 12.5318 164.922 12.3984C165.167 12.2651 165.49 12.2118 165.89 12.2385C166.738 12.3025 167.202 12.6651 167.282 13.3265L169.506 12.9265C169.394 12.1425 169.01 11.5211 168.354 11.0625C167.698 10.5985 166.861 10.3665 165.842 10.3665C164.797 10.3665 163.962 10.6118 163.338 11.1025C162.714 11.5931 162.402 12.2545 162.402 13.0865C162.402 13.7478 162.618 14.2705 163.05 14.6545C163.482 15.0331 164.226 15.3585 165.282 15.6305C165.906 15.7958 166.365 15.9291 166.658 16.0305C166.957 16.1318 167.149 16.2358 167.234 16.3425C167.319 16.4438 167.362 16.5798 167.362 16.7505C167.362 17.0225 167.255 17.2358 167.042 17.3905C166.829 17.5398 166.525 17.6145 166.13 17.6145C165.65 17.6145 165.253 17.4998 164.938 17.2705C164.629 17.0411 164.429 16.7238 164.338 16.3184L162.114 16.6545C162.258 17.5558 162.663 18.2545 163.33 18.7505C164.002 19.2411 164.882 19.4865 165.97 19.4865Z" fill="white"/>
</svg>
