<svg width="170" height="26" viewBox="0 0 170 26" fill="none" xmlns="http://www.w3.org/2000/svg">
<path fill-rule="evenodd" clip-rule="evenodd" d="M6.33523 0.460398C6.33523 0.496805 7.439 2.18256 8.78816 4.2065L11.2411 7.88662L13.4969 4.50183C14.7376 2.64034 15.8585 0.954585 15.9878 0.755728L16.2229 0.394287H11.2791C8.55999 0.394287 6.33523 0.423991 6.33523 0.460398ZM17.9748 0.755728C18.1041 0.954585 19.225 2.64034 20.4657 4.50183L22.7215 7.88662L25.1744 4.2065C26.5236 2.18256 27.6274 0.496805 27.6274 0.460398C27.6274 0.423991 25.4026 0.394287 22.6835 0.394287H17.7397L17.9748 0.755728ZM2.72082 4.61775C1.41964 6.57558 0.335314 8.23018 0.311262 8.29459C0.286027 8.36175 2.37134 8.41169 5.2074 8.41169H10.1473L7.69424 4.73157C6.34521 2.70751 5.20648 1.0529 5.1639 1.05474C5.12144 1.05658 4.02201 2.65993 2.72082 4.61775ZM26.2683 4.73157L23.8153 8.41169H28.7552C31.5912 8.41169 33.6765 8.36175 33.6513 8.29459C33.5606 8.05196 28.8725 1.05789 28.7987 1.05474C28.7561 1.0529 27.6174 2.70751 26.2683 4.73157ZM14.6389 4.95829L12.3823 8.34598L14.6817 8.38186C15.9465 8.40157 18.0163 8.40157 19.2812 8.38186L21.5813 8.34598L19.3473 4.99457C18.1186 3.15122 17.0644 1.62673 17.0044 1.60676C16.9446 1.58691 15.8801 3.09497 14.6389 4.95829ZM0.760368 9.88729C1.24785 10.4601 15.708 25.1064 15.7473 25.0671C15.7691 25.0453 14.6712 21.5698 13.3073 17.3439L10.8277 9.66031L5.6682 9.62587L0.508674 9.59143L0.760368 9.88729ZM12.1456 9.75888C12.1762 9.84931 13.2619 13.2204 14.5583 17.2504C15.8548 21.2804 16.9454 24.5778 16.9819 24.5778C17.0184 24.5779 18.1082 21.2805 19.4037 17.2506C20.6991 13.2204 21.7846 9.84931 21.8158 9.75888C21.8605 9.62942 20.8369 9.59459 16.9813 9.59459C13.1264 9.59459 12.102 9.62942 12.1456 9.75888ZM23.0945 9.75888C22.4802 11.565 18.1865 25.0385 18.216 25.0678C18.2684 25.1204 33.4104 9.77873 33.4104 9.67305C33.4104 9.50219 23.1527 9.58749 23.0945 9.75888Z" fill="black"/>
<path d="M51.4374 18.9711C52.072 18.9711 52.6507 18.8431 53.1734 18.5871C53.696 18.3311 54.12 17.9204 54.4454 17.3551C54.5947 17.0991 54.6934 16.8537 54.7414 16.6191C54.7947 16.3791 54.8214 16.1231 54.8214 15.8511C54.8267 15.5791 54.8294 15.2591 54.8294 14.8911V7.21107H52.6214V14.8911C52.6214 15.1844 52.616 15.4431 52.6054 15.6671C52.5947 15.8911 52.5574 16.0804 52.4934 16.2351C52.392 16.4804 52.224 16.6591 51.9894 16.7711C51.76 16.8831 51.544 16.9391 51.3414 16.9391C51.048 16.9391 50.7707 16.8324 50.5094 16.6191C50.248 16.4004 50.0934 16.1444 50.0454 15.8511L47.9014 16.3631C48.152 17.1631 48.5734 17.7977 49.1654 18.2671C49.7627 18.7364 50.52 18.9711 51.4374 18.9711Z" fill="black"/>
<path d="M59.1445 18.9711C59.8112 18.9711 60.3712 18.8697 60.8245 18.6671C61.2832 18.4591 61.7045 18.1284 62.0885 17.6751V18.7311H63.9925V13.4511C63.9925 13.0564 63.9765 12.6991 63.9445 12.3791C63.9125 12.0591 63.8112 11.7391 63.6405 11.4191C63.3365 10.8431 62.8885 10.4377 62.2965 10.2031C61.7045 9.9684 61.0272 9.85107 60.2645 9.85107C59.2245 9.85107 58.4032 10.0751 57.8005 10.5231C57.1978 10.9711 56.7872 11.5524 56.5685 12.2671L58.5365 12.8911C58.6752 12.4964 58.9178 12.2217 59.2645 12.0671C59.6112 11.9124 59.9445 11.8351 60.2645 11.8351C60.7765 11.8351 61.1578 11.9311 61.4085 12.1231C61.6592 12.3097 61.8058 12.6057 61.8485 13.0111C61.0378 13.1284 60.3232 13.2431 59.7045 13.3551C59.0858 13.4617 58.5685 13.5897 58.1525 13.7391C57.4592 13.9951 56.9712 14.3444 56.6885 14.7871C56.4058 15.2244 56.2645 15.7444 56.2645 16.3471C56.2645 16.8271 56.3738 17.2671 56.5925 17.6671C56.8165 18.0617 57.1418 18.3791 57.5685 18.6191C58.0005 18.8537 58.5258 18.9711 59.1445 18.9711ZM59.6085 17.2591C59.2352 17.2591 58.9392 17.1764 58.7205 17.0111C58.5018 16.8404 58.3925 16.6084 58.3925 16.3151C58.3925 16.0964 58.4618 15.9097 58.6005 15.7551C58.7392 15.5951 58.9685 15.4511 59.2885 15.3231C59.5338 15.2324 59.8352 15.1497 60.1925 15.0751C60.5552 14.9951 61.1018 14.8937 61.8325 14.7711C61.8272 14.9791 61.8112 15.2084 61.7845 15.4591C61.7578 15.7044 61.6992 15.9204 61.6085 16.1071C61.5498 16.2297 61.4378 16.3817 61.2725 16.5631C61.1125 16.7444 60.8938 16.9071 60.6165 17.0511C60.3445 17.1897 60.0085 17.2591 59.6085 17.2591Z" fill="black"/>
<path d="M69.4006 18.9711C70.4033 18.9711 71.246 18.7231 71.9286 18.2271C72.6113 17.7311 73.0753 17.0244 73.3206 16.1071L71.0966 15.6431C70.9686 16.0591 70.7766 16.3791 70.5206 16.6031C70.2646 16.8271 69.8913 16.9391 69.4006 16.9391C68.7446 16.9391 68.2486 16.7071 67.9126 16.2431C67.582 15.7737 67.4166 15.1631 67.4166 14.4111C67.4166 13.6911 67.574 13.0911 67.8886 12.6111C68.2086 12.1257 68.7126 11.8831 69.4006 11.8831C69.8006 11.8831 70.158 12.0084 70.4726 12.2591C70.7926 12.5097 71.0166 12.8591 71.1446 13.3071L73.3206 12.7311C73.1286 11.8404 72.686 11.1391 71.9926 10.6271C71.3046 10.1097 70.4513 9.85107 69.4326 9.85107C68.5526 9.85107 67.79 10.0484 67.1446 10.4431C66.4993 10.8377 65.998 11.3791 65.6406 12.0671C65.2886 12.7551 65.1126 13.5364 65.1126 14.4111C65.1126 15.2751 65.2833 16.0511 65.6246 16.7391C65.966 17.4271 66.4566 17.9711 67.0966 18.3711C67.7366 18.7711 68.5046 18.9711 69.4006 18.9711Z" fill="black"/>
<path d="M78.0944 18.9711C78.9584 18.9711 79.7184 18.7791 80.3744 18.3951C81.0357 18.0057 81.5504 17.4697 81.9184 16.7871C82.2917 16.0991 82.4784 15.3071 82.4784 14.4111C82.4784 13.5204 82.2944 12.7337 81.9264 12.0511C81.5584 11.3631 81.0437 10.8244 80.3824 10.4351C79.7264 10.0457 78.9637 9.85107 78.0944 9.85107C77.241 9.85107 76.4864 10.0431 75.8304 10.4271C75.1744 10.8111 74.6597 11.3471 74.2864 12.0351C73.913 12.7177 73.7264 13.5097 73.7264 14.4111C73.7264 15.3017 73.9077 16.0911 74.2704 16.7791C74.6384 17.4617 75.1504 17.9977 75.8064 18.3871C76.4624 18.7764 77.225 18.9711 78.0944 18.9711ZM78.0944 16.9391C77.417 16.9391 76.9024 16.7124 76.5504 16.2591C76.2037 15.8004 76.0304 15.1844 76.0304 14.4111C76.0304 13.6591 76.1957 13.0511 76.5264 12.5871C76.8624 12.1177 77.385 11.8831 78.0944 11.8831C78.7824 11.8831 79.2997 12.1124 79.6464 12.5711C79.9984 13.0297 80.1744 13.6431 80.1744 14.4111C80.1744 15.1524 80.001 15.7604 79.6544 16.2351C79.313 16.7044 78.793 16.9391 78.0944 16.9391Z" fill="black"/>
<path d="M83.7416 18.7311H85.6616V18.2351C85.9656 18.4697 86.3123 18.6511 86.7016 18.7791C87.091 18.9071 87.523 18.9711 87.9976 18.9711C88.7923 18.9711 89.4883 18.7711 90.0856 18.3711C90.683 17.9711 91.147 17.4271 91.4776 16.7391C91.8136 16.0511 91.9816 15.2751 91.9816 14.4111C91.9816 13.5311 91.811 12.7497 91.4696 12.0671C91.1336 11.3791 90.659 10.8377 90.0456 10.4431C89.4323 10.0484 88.7123 9.85107 87.8856 9.85107C87.507 9.85107 87.1523 9.8964 86.8216 9.98707C86.4963 10.0777 86.2003 10.2084 85.9336 10.3791V7.21107H83.7416V18.7311ZM87.6456 17.0351C86.9203 17.0351 86.4083 16.7951 86.1096 16.3151C85.811 15.8297 85.6616 15.1951 85.6616 14.4111C85.6616 13.6271 85.8083 12.9951 86.1016 12.5151C86.4003 12.0297 86.8883 11.7871 87.5656 11.7871C88.051 11.7871 88.4483 11.9071 88.7576 12.1471C89.0723 12.3817 89.3043 12.6991 89.4536 13.0991C89.603 13.4937 89.6776 13.9311 89.6776 14.4111C89.6776 14.8964 89.6056 15.3391 89.4616 15.7391C89.3176 16.1337 89.0963 16.4484 88.7976 16.6831C88.499 16.9177 88.115 17.0351 87.6456 17.0351Z" fill="black"/>
<path d="M95.9851 18.7311H99.7131C99.8038 18.7311 99.9905 18.7284 100.273 18.7231C100.556 18.7177 100.828 18.6991 101.089 18.6671C102.017 18.5551 102.804 18.2324 103.449 17.6991C104.094 17.1657 104.585 16.4884 104.921 15.6671C105.257 14.8457 105.425 13.9471 105.425 12.9711C105.425 11.9951 105.257 11.0964 104.921 10.2751C104.585 9.45374 104.094 8.7764 103.449 8.24307C102.804 7.70974 102.017 7.38707 101.089 7.27507C100.828 7.24307 100.556 7.2244 100.273 7.21907C99.9905 7.21374 99.8038 7.21107 99.7131 7.21107H95.9851V18.7311ZM98.1931 16.6831V9.25907H99.7131C99.8571 9.25907 100.052 9.26174 100.297 9.26707C100.542 9.2724 100.764 9.2964 100.961 9.33907C101.446 9.43507 101.849 9.66174 102.169 10.0191C102.489 10.3764 102.726 10.8137 102.881 11.3311C103.041 11.8484 103.121 12.3951 103.121 12.9711C103.121 13.5204 103.044 14.0537 102.889 14.5711C102.74 15.0884 102.505 15.5311 102.185 15.8991C101.87 16.2671 101.462 16.5017 100.961 16.6031C100.764 16.6404 100.542 16.6644 100.297 16.6751C100.052 16.6804 99.8571 16.6831 99.7131 16.6831H98.1931Z" fill="black"/>
<path d="M107.024 8.89107H109.2V6.97107H107.024V8.89107ZM107.024 18.7311H109.2V10.0911H107.024V18.7311Z" fill="black"/>
<path d="M113.519 18.9711C114.186 18.9711 114.746 18.8697 115.199 18.6671C115.658 18.4591 116.079 18.1284 116.463 17.6751V18.7311H118.367V13.4511C118.367 13.0564 118.351 12.6991 118.319 12.3791C118.287 12.0591 118.186 11.7391 118.015 11.4191C117.711 10.8431 117.263 10.4377 116.671 10.2031C116.079 9.9684 115.402 9.85107 114.639 9.85107C113.599 9.85107 112.778 10.0751 112.175 10.5231C111.572 10.9711 111.162 11.5524 110.943 12.2671L112.911 12.8911C113.05 12.4964 113.292 12.2217 113.639 12.0671C113.986 11.9124 114.319 11.8351 114.639 11.8351C115.151 11.8351 115.532 11.9311 115.783 12.1231C116.034 12.3097 116.18 12.6057 116.223 13.0111C115.412 13.1284 114.698 13.2431 114.079 13.3551C113.46 13.4617 112.943 13.5897 112.527 13.7391C111.834 13.9951 111.346 14.3444 111.063 14.7871C110.78 15.2244 110.639 15.7444 110.639 16.3471C110.639 16.8271 110.748 17.2671 110.967 17.6671C111.191 18.0617 111.516 18.3791 111.943 18.6191C112.375 18.8537 112.9 18.9711 113.519 18.9711ZM113.983 17.2591C113.61 17.2591 113.314 17.1764 113.095 17.0111C112.876 16.8404 112.767 16.6084 112.767 16.3151C112.767 16.0964 112.836 15.9097 112.975 15.7551C113.114 15.5951 113.343 15.4511 113.663 15.3231C113.908 15.2324 114.21 15.1497 114.567 15.0751C114.93 14.9951 115.476 14.8937 116.207 14.7711C116.202 14.9791 116.186 15.2084 116.159 15.4591C116.132 15.7044 116.074 15.9204 115.983 16.1071C115.924 16.2297 115.812 16.3817 115.647 16.5631C115.487 16.7444 115.268 16.9071 114.991 17.0511C114.719 17.1897 114.383 17.2591 113.983 17.2591Z" fill="black"/>
<path d="M119.951 18.7311H122.143V13.4991C122.143 13.0031 122.279 12.6004 122.551 12.2911C122.828 11.9764 123.194 11.8191 123.647 11.8191C124.122 11.8191 124.492 11.9791 124.759 12.2991C125.031 12.6137 125.167 13.0564 125.167 13.6271V18.7311H127.343V13.4991C127.343 13.0031 127.479 12.6004 127.751 12.2911C128.028 11.9764 128.394 11.8191 128.847 11.8191C129.322 11.8191 129.692 11.9791 129.959 12.2991C130.231 12.6137 130.367 13.0564 130.367 13.6271V18.7311H132.543V13.0511C132.543 12.1071 132.29 11.3444 131.783 10.7631C131.282 10.1764 130.538 9.88307 129.551 9.88307C128.996 9.88307 128.487 10.0031 128.023 10.2431C127.559 10.4831 127.188 10.8111 126.911 11.2271C126.687 10.8217 126.367 10.4964 125.951 10.2511C125.535 10.0057 125.018 9.88307 124.399 9.88307C123.876 9.88307 123.396 9.98707 122.959 10.1951C122.522 10.3977 122.159 10.6777 121.871 11.0351V10.0911H119.951V18.7311Z" fill="black"/>
<path d="M137.875 18.9711C138.739 18.9711 139.499 18.7791 140.155 18.3951C140.816 18.0057 141.331 17.4697 141.699 16.7871C142.072 16.0991 142.259 15.3071 142.259 14.4111C142.259 13.5204 142.075 12.7337 141.707 12.0511C141.339 11.3631 140.824 10.8244 140.163 10.4351C139.507 10.0457 138.744 9.85107 137.875 9.85107C137.022 9.85107 136.267 10.0431 135.611 10.4271C134.955 10.8111 134.44 11.3471 134.067 12.0351C133.694 12.7177 133.507 13.5097 133.507 14.4111C133.507 15.3017 133.688 16.0911 134.051 16.7791C134.419 17.4617 134.931 17.9977 135.587 18.3871C136.243 18.7764 137.006 18.9711 137.875 18.9711ZM137.875 16.9391C137.198 16.9391 136.683 16.7124 136.331 16.2591C135.984 15.8004 135.811 15.1844 135.811 14.4111C135.811 13.6591 135.976 13.0511 136.307 12.5871C136.643 12.1177 137.166 11.8831 137.875 11.8831C138.563 11.8831 139.08 12.1124 139.427 12.5711C139.779 13.0297 139.955 13.6431 139.955 14.4111C139.955 15.1524 139.782 15.7604 139.435 16.2351C139.094 16.7044 138.574 16.9391 137.875 16.9391Z" fill="black"/>
<path d="M143.522 18.7311H145.73V14.3471C145.73 13.8084 145.789 13.3764 145.906 13.0511C146.029 12.7257 146.184 12.4804 146.37 12.3151C146.557 12.1444 146.757 12.0297 146.97 11.9711C147.184 11.9124 147.384 11.8831 147.57 11.8831C148.034 11.8831 148.392 11.9871 148.642 12.1951C148.898 12.4031 149.082 12.6617 149.194 12.9711C149.306 13.2804 149.373 13.5897 149.394 13.8991C149.416 14.2031 149.426 14.4537 149.426 14.6511V18.7311H151.634V13.8831C151.634 13.7391 151.624 13.5097 151.602 13.1951C151.581 12.8804 151.52 12.5337 151.418 12.1551C151.317 11.7711 151.146 11.4031 150.906 11.0511C150.672 10.6991 150.341 10.4084 149.914 10.1791C149.488 9.94974 148.936 9.83507 148.258 9.83507C147.634 9.83507 147.09 9.93907 146.626 10.1471C146.162 10.3551 145.773 10.6324 145.458 10.9791V10.0911H143.522V18.7311Z" fill="black"/>
<path d="M156.578 18.9711C157.053 18.9711 157.485 18.9071 157.874 18.7791C158.263 18.6511 158.61 18.4697 158.914 18.2351V18.7311H160.834V7.21107H158.642V10.3791C158.375 10.2084 158.077 10.0777 157.746 9.98707C157.421 9.8964 157.069 9.85107 156.69 9.85107C155.863 9.85107 155.143 10.0484 154.53 10.4431C153.917 10.8377 153.439 11.3791 153.098 12.0671C152.762 12.7497 152.594 13.5311 152.594 14.4111C152.594 15.2751 152.759 16.0511 153.09 16.7391C153.426 17.4271 153.893 17.9711 154.49 18.3711C155.087 18.7711 155.783 18.9711 156.578 18.9711ZM156.93 17.0351C156.461 17.0351 156.077 16.9177 155.778 16.6831C155.479 16.4484 155.258 16.1337 155.114 15.7391C154.97 15.3391 154.898 14.8964 154.898 14.4111C154.898 13.9311 154.973 13.4937 155.122 13.0991C155.271 12.6991 155.501 12.3817 155.81 12.1471C156.125 11.9071 156.525 11.7871 157.01 11.7871C157.693 11.7871 158.181 12.0297 158.474 12.5151C158.767 12.9951 158.914 13.6271 158.914 14.4111C158.914 15.1951 158.765 15.8297 158.466 16.3151C158.173 16.7951 157.661 17.0351 156.93 17.0351Z" fill="black"/>
<path d="M165.97 18.9711C167.101 18.9711 167.986 18.7177 168.626 18.2111C169.266 17.7044 169.586 17.0084 169.586 16.1231C169.586 15.4511 169.378 14.9204 168.962 14.5311C168.551 14.1417 167.853 13.8191 166.866 13.5631C166.194 13.3924 165.693 13.2537 165.362 13.1471C165.037 13.0404 164.821 12.9364 164.714 12.8351C164.613 12.7337 164.562 12.6084 164.562 12.4591C164.562 12.2084 164.682 12.0164 164.922 11.8831C165.167 11.7497 165.49 11.6964 165.89 11.7231C166.738 11.7871 167.202 12.1497 167.282 12.8111L169.506 12.4111C169.394 11.6271 169.01 11.0057 168.354 10.5471C167.698 10.0831 166.861 9.85107 165.842 9.85107C164.797 9.85107 163.962 10.0964 163.338 10.5871C162.714 11.0777 162.402 11.7391 162.402 12.5711C162.402 13.2324 162.618 13.7551 163.05 14.1391C163.482 14.5177 164.226 14.8431 165.282 15.1151C165.906 15.2804 166.365 15.4137 166.658 15.5151C166.957 15.6164 167.149 15.7204 167.234 15.8271C167.319 15.9284 167.362 16.0644 167.362 16.2351C167.362 16.5071 167.255 16.7204 167.042 16.8751C166.829 17.0244 166.525 17.0991 166.13 17.0991C165.65 17.0991 165.253 16.9844 164.938 16.7551C164.629 16.5257 164.429 16.2084 164.338 15.8031L162.114 16.1391C162.258 17.0404 162.663 17.7391 163.33 18.2351C164.002 18.7257 164.882 18.9711 165.97 18.9711Z" fill="black"/>
</svg>
