<svg width="491" height="83" viewBox="0 0 491 83" fill="none" xmlns="http://www.w3.org/2000/svg">
<path d="M79.1968 45.891C79.0931 45.891 78.9895 45.891 78.8859 45.891C78.6787 45.891 78.4715 45.891 78.2642 45.7874C78.1606 45.7874 78.1606 45.7874 78.057 45.7874C77.6426 45.7874 77.3317 45.7874 76.9173 45.6838C76.71 45.6838 76.5028 45.5801 76.2956 45.4765C76.192 45.4765 76.0884 45.3729 76.0884 45.2693C76.0884 45.1657 75.9848 45.1657 75.8811 45.0621C75.7775 44.9585 75.5703 44.9585 75.3631 44.9585C75.2595 44.9585 75.1558 44.9585 75.0522 44.8549C74.9486 44.7512 74.845 44.7512 74.7414 44.6476C74.6378 44.6476 74.5342 44.544 74.4306 44.544V44.4404C74.5342 44.3368 74.5342 44.3368 74.6378 44.3368C74.7414 44.2332 74.845 44.1296 74.9486 44.0259C75.0522 43.9223 75.1558 43.8187 75.3631 43.7151C75.3631 43.7151 75.3631 43.7151 75.4667 43.6115L75.5703 43.5079L75.6739 43.4043C75.6739 43.4043 75.6739 43.4043 75.7775 43.4043C75.8811 43.4043 75.8811 43.4043 75.9847 43.3007C76.192 43.197 76.2956 43.0934 76.5028 42.8862C76.5028 42.8862 76.6064 42.7826 76.71 42.8862C76.9173 42.9898 77.2281 42.9898 77.4353 43.0934C77.7462 43.197 77.9534 43.197 78.2642 43.0934C78.3679 43.0934 78.4715 43.0934 78.4715 43.0934C78.5751 43.0934 78.7823 43.197 78.8859 43.197H78.9895V43.0934C78.8859 43.0934 78.8859 42.9898 78.7823 42.9898C78.5751 42.8862 78.4715 42.8862 78.2642 42.8862C78.057 42.8862 77.9534 42.8862 77.7462 42.7826C77.6426 42.679 77.4353 42.679 77.3317 42.5754C77.2281 42.5754 77.1245 42.5754 77.1245 42.4718C77.2281 42.3681 77.2281 42.3681 77.3317 42.2645V42.1609C77.3317 42.1609 77.3317 42.1609 77.2281 42.0573C76.9173 41.7465 76.6064 41.5392 76.2956 41.2284L76.192 41.1248C76.0884 41.0212 75.9848 40.9176 75.7775 40.8139C75.6739 40.7103 75.5703 40.7103 75.5703 40.6067C75.5703 40.5031 75.4667 40.5031 75.4667 40.5031C75.2595 40.3995 75.1558 40.2959 75.0522 40.0887C74.845 39.8814 74.6378 39.5706 74.4306 39.3634C74.0161 38.8453 73.6017 38.3272 73.2908 37.8092C73.0836 37.4983 72.8764 37.1875 72.6691 36.8766C72.5655 36.773 72.5655 36.773 72.4619 36.6694C72.3583 36.4622 72.2547 36.255 72.1511 36.1514C71.9438 35.8405 71.7366 35.6333 71.633 35.3225C71.4258 35.0116 71.2186 34.7008 71.0113 34.4936C70.7005 33.9755 70.286 33.4574 69.9752 32.9394C69.768 32.7321 69.6644 32.4213 69.4571 32.1105C69.3535 31.9032 69.2499 31.7996 69.1463 31.5924C68.9391 31.2816 68.7318 30.9707 68.5246 30.6599C68.421 30.4526 68.2138 30.349 68.2138 30.1418C68.1102 30.0382 68.0066 29.831 68.0066 29.7274C67.9029 29.5201 67.6957 29.3129 67.5921 29.0021C67.5921 28.8985 67.4885 28.8985 67.4885 28.7948C67.2813 28.3804 66.9704 28.0695 66.7632 27.6551C66.6596 27.4479 66.556 27.137 66.3487 26.9298V26.8262C66.4524 26.619 66.556 26.5154 66.6596 26.3081C66.7632 26.2045 66.7632 26.2045 66.7632 26.1009C66.9704 25.6864 67.1776 25.272 67.2813 24.8575C67.3849 24.6503 67.4885 24.4431 67.5921 24.2359C67.6957 24.0286 67.7993 23.7178 67.9029 23.5106C68.1102 23.0961 68.2138 22.7853 68.421 22.3708C68.5246 22.1636 68.6282 22.06 68.6282 21.8528V21.7492C68.7318 21.4383 68.8355 21.2311 69.0427 20.9202V20.8166C69.2499 20.6094 69.2499 20.5058 69.3535 20.2986C69.4571 20.2986 69.4571 20.195 69.4571 20.0913C69.6644 19.4697 69.8716 18.848 70.0788 18.3299C70.0788 18.2263 70.0788 18.2263 70.0788 18.1227C70.0788 18.0191 70.0788 17.9155 70.0788 17.9155C70.0788 17.7082 70.1824 17.501 70.286 17.2938C70.3896 16.983 70.4933 16.6721 70.7005 16.4649C70.8041 16.3613 70.8041 16.2577 70.8041 16.0504C70.8041 15.9468 70.8041 15.8432 70.9077 15.7396C71.0113 15.5324 71.0113 15.3251 71.2186 15.2215C71.3222 15.1179 71.3222 15.0143 71.3222 14.9107C71.3222 14.8071 71.3222 14.5999 71.3222 14.4962C71.3222 14.3926 71.3222 14.1854 71.4258 14.0818C71.5294 13.9782 71.5294 13.8746 71.5294 13.771C71.5294 13.5637 71.5294 13.4601 71.5294 13.2529C71.5294 13.0457 71.633 12.942 71.633 12.7348C71.633 12.424 71.633 12.1131 71.633 11.8023C71.633 11.6987 71.5294 11.5951 71.633 11.4915C71.7366 11.077 71.633 10.7662 71.5294 10.3517C71.5294 10.1445 71.4258 9.83366 71.4258 9.62643C71.4258 9.41921 71.4258 9.10837 71.3222 8.90114C71.3222 8.90114 71.3222 8.79753 71.4258 8.79753C71.5294 8.79753 71.5294 8.79753 71.633 8.79753C71.7366 8.79753 71.7366 8.69392 71.7366 8.69392C71.7366 8.5903 71.633 8.48669 71.5294 8.38308C71.1149 8.07224 70.7005 7.7614 70.286 7.55417C69.9752 7.45056 69.6644 7.34695 69.3535 7.24333C69.1463 7.24333 68.9391 7.24333 68.8355 7.13972C68.2138 7.03611 67.6957 7.03611 67.1777 7.13972C67.074 7.13972 66.9704 7.24333 66.8668 7.13972H66.7632C66.6596 7.13972 66.4524 7.24333 66.3487 7.24333C66.0379 7.24333 65.7271 7.34695 65.4162 7.45056C65.209 7.55417 64.8982 7.65779 64.6909 7.7614C64.2765 7.96863 63.7584 8.07224 63.344 8.27946C62.8259 8.48669 62.4115 8.69392 61.8934 8.90114C61.8934 8.90114 61.7898 8.90114 61.7898 9.00476C61.6862 9.10837 61.5825 9.10837 61.4789 9.21198C61.2717 9.21198 61.1681 9.31559 60.9609 9.41921C60.7536 9.52282 60.65 9.62643 60.4428 9.62643C59.4067 10.1445 58.4742 10.6626 57.5416 11.2842C57.1272 11.5951 56.6091 11.9059 56.1947 12.2168C56.0911 12.3204 55.8838 12.424 55.7802 12.5276C55.2621 12.8384 54.8477 13.2529 54.4333 13.5637C54.1224 13.771 53.9152 13.9782 53.6043 14.289C53.5007 14.3926 53.5007 14.3926 53.3971 14.289C53.1899 14.1854 52.9827 14.0818 52.7754 13.9782C52.2574 13.771 51.6357 13.5637 51.1176 13.3565C50.9104 13.2529 50.5996 13.1493 50.3923 13.0457C50.0815 12.942 49.7707 12.8384 49.4598 12.7348C49.4598 12.7348 49.3562 12.7348 49.3562 12.6312C49.6671 12.6312 49.8743 12.6312 50.1851 12.6312H50.2887C50.3923 12.6312 50.5996 12.6312 50.7032 12.6312C50.9104 12.6312 51.1176 12.6312 51.3249 12.6312C51.4285 12.6312 51.5321 12.6312 51.5321 12.6312C51.4285 12.6312 51.3249 12.5276 51.2212 12.5276C51.014 12.5276 50.8068 12.5276 50.7032 12.424C50.496 12.3204 50.2887 12.3204 49.9779 12.2168C49.667 12.1131 49.3562 12.0095 48.9418 12.0095H48.8381C48.3201 12.2168 48.0092 12.2168 47.802 12.2168C47.5948 12.2168 47.3876 12.2168 47.1803 12.2168C46.7659 12.2168 46.2478 12.2168 45.8334 12.2168C45.6261 12.3204 45.5225 12.2168 45.3153 12.2168C45.4189 12.2168 45.4189 12.2168 45.5225 12.2168C45.8334 12.2168 46.1442 12.2168 46.455 12.1131H46.5587C46.7659 12.1131 47.0767 12.0095 47.284 12.0095C47.5948 12.0095 47.9056 12.0095 48.2165 12.0095H48.3201C48.2165 11.9059 48.1129 11.9059 47.9056 11.9059C47.5948 11.8023 47.3876 11.6987 47.0767 11.6987C46.6623 11.6987 46.3514 11.5951 45.937 11.5951C46.0406 11.4915 46.2478 11.4915 46.3514 11.4915C46.5587 11.4915 46.7659 11.3879 46.8695 11.2842L46.9731 11.1806C46.9731 11.077 46.9731 10.9734 46.8695 10.9734C46.7659 10.8698 46.6623 10.8698 46.5587 10.7662C46.455 10.7662 46.4551 10.7662 46.3514 10.7662C46.1442 10.7662 45.937 10.6626 45.7298 10.7662H45.6261C45.5225 10.1445 45.2117 10.1445 44.9009 10.1445H44.7972C44.6936 10.1445 44.59 10.1445 44.3828 10.1445C43.9683 10.1445 43.6575 10.1445 43.243 10.0409H43.1394C43.0358 10.0409 42.8286 10.0409 42.725 10.0409C42.6214 10.0409 42.5178 10.0409 42.4141 10.0409H42.3105C41.9997 10.1445 41.6889 10.1445 41.2744 10.1445C40.9636 10.1445 40.6527 10.1445 40.3419 10.2481C40.2383 10.2481 40.1347 10.2481 40.031 10.2481C39.7202 10.2481 39.513 10.2481 39.2021 10.3517C38.9949 10.3517 38.7877 10.4553 38.5805 10.4553C38.4768 10.4553 38.4768 10.4553 38.3732 10.4553C38.0624 10.4553 37.7516 10.559 37.5443 10.6626C37.1299 10.7662 36.7154 10.8698 36.301 10.8698C36.0938 10.8698 35.7829 10.9734 35.5757 10.9734C35.2648 11.077 35.0576 11.077 34.7468 11.1806C34.4359 11.2842 34.2287 11.2842 33.9179 11.3879H33.8143C33.607 11.3879 33.5034 11.4915 33.3998 11.4915C33.2962 11.4915 33.2962 11.5951 33.1926 11.5951C32.7781 11.9059 32.4673 12.0095 32.0528 12.2168C31.8456 12.2168 31.6384 12.3204 31.4312 12.424C31.2239 12.5276 31.1203 12.5276 30.9131 12.6312C30.2914 12.8384 29.877 13.0457 29.2553 13.4601C28.9445 13.6673 28.53 13.771 28.2192 13.9782C28.1155 13.9782 28.1156 13.9782 28.0119 13.9782C28.0119 13.9782 27.9083 13.9782 27.9083 13.8746C27.2866 13.3565 26.665 12.8384 25.9397 12.424C25.6288 12.2168 25.318 12.0095 25.0072 11.8023C24.6963 11.5951 24.3855 11.3879 24.0746 11.1806C23.7638 10.8698 23.3493 10.6626 22.9349 10.4553C22.8313 10.3517 22.7277 10.3517 22.6241 10.2481C22.3132 10.0409 22.0024 9.93727 21.6915 9.73005C21.4843 9.62643 21.3807 9.52282 21.1735 9.52282C20.759 9.41921 20.3446 9.21198 19.8265 9.10837C19.5157 9.10837 19.3084 9.00476 18.9976 8.90114C18.4795 8.69392 17.9615 8.5903 17.3398 8.5903C17.029 8.5903 16.7181 8.48669 16.3037 8.48669C16.2001 8.48669 15.9928 8.48669 15.8892 8.48669C15.7856 8.48669 15.682 8.48669 15.5784 8.48669C15.3712 8.48669 15.1639 8.48669 15.0603 8.48669C14.9567 8.48669 14.7495 8.48669 14.6459 8.48669C14.4386 8.48669 14.2314 8.5903 13.9206 8.5903C13.4025 8.5903 12.8844 8.79753 12.47 9.10837C12.2628 9.21198 12.0555 9.41921 11.8483 9.52282C11.8483 9.52282 11.8483 9.52282 11.7447 9.62643C11.5375 9.93727 11.2266 10.2481 11.0194 10.559C10.7086 11.1806 10.5013 11.9059 10.5013 12.6312C10.5013 12.8384 10.5013 13.1493 10.5013 13.3565C10.5013 13.4601 10.5013 13.6673 10.5013 13.771V13.8746C10.5013 14.289 10.605 14.7035 10.605 15.2215C10.605 15.5324 10.7086 15.8432 10.8122 16.1541C10.9158 16.7757 11.123 17.3974 11.3302 18.1227C11.4339 18.5372 11.5375 19.0552 11.7447 19.4697C11.7447 19.5733 11.8483 19.7805 11.8483 19.8841V19.9877C11.9519 20.195 12.0555 20.4022 12.0555 20.6094C12.2628 21.0239 12.3664 21.5419 12.47 21.9564C12.47 22.06 12.5736 22.1636 12.5736 22.2672C12.6772 22.4744 12.7808 22.6817 12.8844 22.8889C12.9881 23.0961 13.0917 23.3033 13.1953 23.407C13.2989 23.5106 13.2989 23.6142 13.4025 23.7178C13.7133 24.1323 13.9206 24.5467 14.1278 25.0648C14.5422 25.7901 14.8531 26.5154 15.2675 27.3443C15.2675 27.4479 15.2675 27.4479 15.2675 27.5515C15.1639 27.7587 15.0603 27.8623 14.9567 28.0695C14.0242 29.7274 12.9881 31.2815 11.9519 32.8357C11.7447 33.1466 11.5375 33.4574 11.4339 33.7683C11.2266 34.1827 11.0194 34.4936 10.7086 34.8044C10.605 34.908 10.605 35.0116 10.5013 35.1152C10.2941 35.4261 10.0869 35.8405 9.77605 36.1514C9.56882 36.4622 9.3616 36.773 9.05076 37.0839C8.84353 37.2911 8.73992 37.6019 8.53269 37.8092C8.11824 38.3272 7.70379 38.8453 7.28934 39.3634C7.08211 39.5706 6.9785 39.7778 6.77127 39.985C6.56405 40.2959 6.35682 40.5031 6.14959 40.8139C5.94237 41.0212 5.83876 41.2284 5.52792 41.4356C5.32069 41.5392 5.21708 41.7465 5.00985 41.8501C4.69901 42.1609 4.28456 42.3681 3.97372 42.5754C3.7665 42.679 3.55927 42.7826 3.45566 42.9898C3.24843 43.197 2.93759 43.3007 2.73037 43.5079C2.62675 43.6115 2.52314 43.7151 2.41953 43.8187C2.41953 43.9223 2.41953 43.9223 2.41953 43.9223C2.41953 43.9223 2.52314 43.9223 2.52314 44.0259C2.52314 44.2332 2.41953 44.3368 2.2123 44.4404C2.10869 44.544 1.90146 44.6476 1.79785 44.6476C1.69424 44.7512 1.59062 44.7512 1.59062 44.8549C1.69424 44.8549 1.79785 44.8549 1.90146 44.7512C2.00507 44.6476 2.10869 44.6476 2.31591 44.544C2.52314 44.544 2.73037 44.4404 2.93759 44.3368C3.14482 44.2332 3.35204 44.2332 3.45566 44.1296C3.55927 44.0259 3.66288 44.0259 3.7665 44.0259C3.87011 44.0259 3.87011 44.0259 3.97372 43.9223C4.28456 43.8187 4.5954 43.7151 5.00985 43.5079C5.11346 43.5079 5.21708 43.4043 5.21708 43.4043C5.4243 43.3007 5.52792 43.3007 5.52792 43.3007C5.83876 43.6115 6.14959 43.8187 6.46043 44.1296V44.2332C6.35682 44.3368 6.25321 44.3368 6.14959 44.4404C5.83876 44.6476 5.52792 44.8548 5.21708 44.9585C5.00985 45.0621 4.80263 45.1657 4.5954 45.1657H4.49179C4.38817 45.2693 4.28456 45.2693 4.18095 45.2693C4.07733 45.2693 3.97372 45.3729 3.87011 45.3729C3.7665 45.4765 3.55927 45.4765 3.35204 45.5801C3.14482 45.5801 2.93759 45.6838 2.73037 45.6838C2.2123 45.7874 1.59062 45.9946 1.07256 45.9946C0.968945 45.9946 0.865332 45.9946 0.865332 46.0982H0.761719C0.761719 46.0982 0.761719 46.2018 0.865332 46.2018C0.865332 46.2018 0.968945 46.2018 0.968945 46.3054C1.27978 46.409 1.48701 46.409 1.79785 46.5127C2.00507 46.5127 2.10869 46.6163 2.2123 46.7199V46.8235C2.2123 46.9271 2.2123 46.9271 2.2123 47.0307C2.2123 47.1343 2.31591 47.1343 2.31591 47.1343C2.41953 47.238 2.41953 47.2379 2.31591 47.3416C2.31591 47.3416 2.31591 47.3416 2.31591 47.4452V47.5488H2.41953C2.52314 47.5488 2.52314 47.5488 2.62675 47.6524C2.83398 47.8596 3.0412 47.9632 3.14482 48.1705C3.45566 48.3777 3.45566 48.4813 3.55927 48.4813C3.7665 48.7921 3.97372 48.9994 4.18095 49.2066L4.28456 49.3102C4.38817 49.5174 4.5954 49.5174 4.69901 49.621C4.90624 49.621 4.90624 49.7247 5.00985 49.8283C5.00985 49.9319 5.11346 49.9319 5.21708 49.9319C5.4243 50.0355 5.52792 50.1391 5.73514 50.2427C6.04598 50.45 6.25321 50.6572 6.56405 50.8644C6.66766 50.968 6.77127 51.0716 6.87489 51.1752C6.87489 51.2789 6.9785 51.2789 6.9785 51.2789C7.18572 51.4861 7.49656 51.6933 7.70379 51.7969C8.01463 52.0041 8.32547 52.2114 8.63631 52.4186C8.73992 52.5222 8.94714 52.6258 9.05076 52.7294C9.15437 52.833 9.3616 52.9367 9.3616 53.1439C9.3616 53.2475 9.46521 53.3511 9.67244 53.2475H9.77605C9.77605 53.3511 9.87966 53.3511 9.87966 53.4547C9.87966 53.4547 9.98328 53.4547 10.0869 53.5583C10.0869 53.5583 10.0869 53.5583 10.1905 53.662C10.2941 53.5583 10.2941 53.662 10.3977 53.7656C10.3977 53.7656 10.3977 53.8692 10.5013 53.8692C10.605 53.9728 10.7086 54.0764 10.8122 54.0764C10.8122 54.0764 10.9158 54.0764 10.9158 54.18L11.0194 54.2836C11.123 54.3872 11.3302 54.4909 11.4339 54.5945C11.5375 54.6981 11.6411 54.6981 11.7447 54.8017C11.7447 54.8017 11.7447 54.8017 11.8483 54.8017C11.9519 54.8017 11.8483 54.8017 11.9519 54.8017C12.0555 54.9053 12.0555 55.0089 12.1591 55.1125C12.1591 55.1125 12.1591 55.1125 12.1591 55.2161C12.0555 55.2161 11.9519 55.2162 11.8483 55.1125C11.5375 55.0089 11.2266 54.9053 10.9158 54.9053C10.605 54.8017 10.2941 54.6981 9.98327 54.5945C9.87966 54.4909 9.67244 54.4909 9.46521 54.4909C8.94715 54.3872 8.42908 54.18 8.01463 54.0764C7.70379 53.9728 7.28934 53.8692 6.9785 53.7656H6.87489C6.66766 53.7656 6.56405 53.662 6.35682 53.662C6.35682 53.662 6.25321 53.662 6.25321 53.5583C6.25321 53.5583 6.25321 53.5583 6.35682 53.662C6.35682 53.7656 6.35682 53.7656 6.35682 53.8692C6.35682 53.8692 6.35682 53.8692 6.25321 53.8692C6.25321 53.8692 6.25321 53.8692 6.25321 53.9728C6.25321 53.9728 6.25321 53.9728 6.35682 53.9728C6.46043 53.9728 6.46043 54.0764 6.46043 54.0764C6.46043 54.0764 6.46043 54.18 6.56405 54.18C6.66766 54.18 6.77127 54.2836 6.87489 54.3872C6.9785 54.4909 7.18572 54.4909 7.28934 54.6981C7.39295 54.8017 7.60018 54.9053 7.8074 55.0089C7.8074 55.0089 7.91102 55.0089 7.91102 55.1125C8.11824 55.2162 8.32547 55.3198 8.53269 55.4234C8.73992 55.527 9.05076 55.6306 9.25799 55.8378C9.3616 55.9414 9.46521 56.0451 9.67244 56.1487C9.87966 56.2523 9.98328 56.3559 10.1905 56.4595C10.5013 56.6667 10.9158 56.7703 11.2266 56.9776C11.3302 57.0812 11.5375 57.0812 11.6411 57.1848C11.7447 57.1848 11.8483 57.1848 11.9519 57.2884C12.0555 57.2884 12.1591 57.392 12.2628 57.392C12.47 57.4956 12.6772 57.5992 12.8844 57.5992C12.9881 57.5992 13.0917 57.7029 13.0917 57.7029C13.4025 57.8065 13.6097 58.0137 13.9206 58.0137C13.9206 58.0137 13.9206 58.0137 14.0242 58.0137C13.6097 57.8065 13.7133 57.8065 13.817 57.8065C13.9206 57.8065 13.9206 57.8065 14.0242 57.9101C14.335 58.0137 14.5422 58.1173 14.8531 58.2209C14.9567 58.2209 15.0603 58.3245 15.1639 58.2209C15.2675 58.2209 15.3712 58.2209 15.4748 58.2209C15.7856 58.2209 16.0964 58.4282 16.4073 58.4282C16.6145 58.5318 16.9253 58.6354 17.1326 58.5318C17.2362 58.5318 17.3398 58.5318 17.3398 58.5318C17.547 58.5318 17.7543 58.6354 17.9615 58.739C18.1687 58.739 18.2723 58.8426 18.4795 58.8426C18.6868 58.8426 18.894 58.8426 19.1012 58.8426H19.2048C19.3084 58.739 19.5157 58.8426 19.6193 58.8426C20.0337 58.9462 20.5518 59.0498 20.9663 58.9462C21.1735 58.9462 21.3807 58.8426 21.5879 58.9462C21.7952 58.9462 21.8988 58.9462 22.106 58.9462C22.3132 58.9462 22.6241 58.9462 22.8313 58.9462C23.0385 58.9462 23.2457 58.9462 23.453 58.9462C23.6602 58.9462 23.8674 58.8426 24.0746 58.8426C24.1783 58.8426 24.2819 58.8426 24.2819 58.8426C24.3855 58.8426 24.3855 58.8426 24.4891 58.8426C24.6963 58.9462 24.9035 59.1534 25.1108 59.2571C25.318 59.4643 25.4216 59.5679 25.6288 59.7751C25.7325 59.8787 25.8361 59.9823 25.9397 60.1896C25.9397 60.2932 26.0433 60.3968 26.1469 60.5004C26.2505 60.7076 26.3541 61.0185 26.5614 61.2257C26.7686 61.4329 26.8722 61.6402 27.0794 61.951C27.183 62.0546 27.183 62.1582 27.2866 62.2618C27.3903 62.4691 27.5975 62.6763 27.7011 62.7799C27.8047 62.9871 28.0119 63.0907 28.1155 63.298C28.3228 63.6088 28.7372 63.816 29.0481 64.1269C29.2553 64.2305 29.3589 64.3341 29.4625 64.4377C29.5661 64.5413 29.7734 64.6449 29.877 64.7485C30.1878 64.9558 30.4986 65.163 30.9131 65.3702C31.1203 65.4738 31.3276 65.6811 31.5348 65.6811C31.742 65.7847 32.0528 65.8883 32.2601 65.9919C32.4673 65.9919 32.5709 66.0955 32.7781 66.1991C33.089 66.3027 33.3998 66.51 33.7107 66.51C33.8143 66.51 34.0215 66.6136 34.1251 66.6136C34.5396 66.7172 34.954 66.9244 35.4721 66.9244C35.6793 66.9244 35.7829 66.9244 35.9901 67.028C36.301 67.028 36.6118 67.1316 36.9227 67.1316C37.2335 67.1316 37.5443 67.2353 37.8552 67.2353C37.9588 67.2353 38.166 67.2353 38.2696 67.2353C38.3732 67.2353 38.4768 67.2353 38.5805 67.2353C38.6841 67.2353 38.7877 67.2353 38.8913 67.2353C38.9949 67.2353 39.0985 67.2353 39.0985 67.2353H39.2021C39.6166 67.2353 39.9274 67.2353 40.3419 67.2353C40.5491 67.2353 40.7563 67.2353 40.9636 67.2353C41.0672 67.2353 41.1708 67.2353 41.2744 67.2353C41.4816 67.2353 41.5852 67.1316 41.7925 67.2353C41.8961 67.2353 42.1033 67.2353 42.2069 67.2353C42.6214 67.2353 42.9322 67.1316 43.3467 67.1316C43.9683 67.028 44.6936 66.8208 45.3153 66.6136C45.6261 66.51 45.937 66.4064 46.3514 66.3027C46.6623 66.1991 46.9731 66.0955 47.284 65.8883C47.6984 65.6811 48.2165 65.5774 48.6309 65.3702C49.149 65.0594 49.667 64.8522 50.1851 64.4377C50.496 64.2305 50.9104 63.9196 51.2212 63.7124C51.9465 63.298 52.5682 62.7799 53.1899 62.2618C53.5007 62.0546 53.8116 61.7438 54.1224 61.5365C54.226 61.4329 54.3296 61.3293 54.4333 61.3293C54.8477 61.0185 55.1585 60.604 55.573 60.2932C55.8838 59.9823 56.1947 59.6715 56.5055 59.3607C56.6091 59.2571 56.8163 59.0498 56.92 58.9462C57.1272 58.739 57.3344 58.6354 57.6453 58.4282C57.6453 58.4282 57.7489 58.3245 57.8525 58.3245C57.9561 58.3245 58.0597 58.2209 58.1633 58.3245C58.2669 58.4282 58.2669 58.4282 58.3705 58.4282C58.6814 58.4282 58.8886 58.5318 59.1994 58.5318C59.4067 58.5318 59.5103 58.6354 59.7175 58.6354C59.9247 58.6354 60.2356 58.6354 60.4428 58.739C60.5464 58.739 60.7536 58.739 60.8573 58.8426C61.0645 58.9462 61.3753 58.9462 61.5825 58.8426H61.6862C61.8934 58.8426 61.997 58.8426 62.2042 58.8426C62.4114 58.8426 62.6187 58.8426 62.8259 58.739C63.0331 58.739 63.1367 58.6354 63.344 58.6354C63.5512 58.6354 63.6548 58.5318 63.862 58.5318C64.0693 58.4282 64.1729 58.3245 64.4837 58.4282H64.5873C64.6909 58.4282 64.8982 58.4282 65.0018 58.3245C65.3126 58.2209 65.6235 58.0137 66.0379 57.9101H66.1415C66.2451 57.8065 66.3487 57.8065 66.556 57.8065C66.9704 57.7029 67.2813 57.5992 67.6957 57.392C68.0065 57.2884 68.2138 57.0812 68.5246 56.9776C68.8355 56.874 69.1463 56.6667 69.4571 56.4595C69.5607 56.3559 69.768 56.2523 69.8716 56.1487C70.0788 56.0451 70.1824 55.9414 70.3896 55.8378C70.4933 55.8378 70.4933 55.7342 70.5969 55.7342C70.7005 55.6306 70.8041 55.6306 71.0113 55.527C71.2186 55.4234 71.4258 55.3198 71.5294 55.2161C71.7366 55.1125 72.0475 54.9053 72.2547 54.8017C72.4619 54.6981 72.5655 54.5945 72.7728 54.4909C72.8764 54.4909 72.8764 54.3872 72.8764 54.2836V54.18C73.0836 54.0764 73.2908 53.8692 73.498 53.7656C73.7053 53.662 73.9125 53.4547 74.1197 53.2475C74.3269 53.0403 74.5342 52.833 74.845 52.6258C75.0522 52.5222 75.2595 52.315 75.3631 52.2114C75.3631 52.2114 75.3631 52.2114 75.4667 52.1078C75.7775 52.0041 75.9847 51.6933 76.192 51.4861C76.3992 51.1752 76.71 50.968 76.9173 50.6572C77.2281 50.3463 77.5389 50.2427 77.7462 50.0355C77.9534 49.8283 78.1606 49.621 78.3679 49.4138C78.3679 49.4138 78.4715 49.3102 78.4715 49.2066V49.103C78.4715 49.103 78.4715 49.103 78.3679 49.103C78.2642 49.2066 78.1606 49.2066 78.057 49.3102C77.8498 49.4138 77.539 49.621 77.3317 49.7247C77.0209 49.8283 76.71 50.0355 76.5028 50.2427C75.9847 50.5536 75.8811 50.5536 75.7775 50.5536C75.3631 50.7608 74.845 50.968 74.4306 51.2789C74.2233 51.4861 73.9125 51.5897 73.6016 51.7969C73.2908 52.0041 72.8764 52.2114 72.4619 52.315C72.4619 52.315 72.4619 52.315 72.3583 52.315C72.3583 52.315 72.4619 52.2114 72.5655 52.2114C72.8764 52.0041 73.1872 51.6933 73.498 51.4861L73.6016 51.3825C73.7053 51.2789 73.7053 51.2789 73.8089 51.1752C74.1197 50.968 74.3269 50.6572 74.6378 50.3463C74.9486 49.9319 75.3631 49.621 75.6739 49.2066C75.7775 48.9994 75.9847 48.8958 76.0884 48.6885C76.2956 48.4813 76.5028 48.2741 76.71 47.9632C76.8137 47.8596 77.0209 47.756 77.1245 47.6524C77.2281 47.6524 77.3317 47.5488 77.3317 47.4452C77.539 47.2379 77.6426 47.0307 77.7462 46.7199C77.7462 46.6163 77.8498 46.5127 77.8498 46.409C77.8498 46.3054 77.9534 46.3054 78.057 46.3054C78.1606 46.3054 78.1606 46.3054 78.2642 46.3054C78.3679 46.3054 78.4715 46.3054 78.5751 46.2018C78.7823 46.2018 78.8859 46.0982 78.9895 45.9946C79.3004 45.891 79.3004 45.891 79.1968 45.891ZM3.45566 46.7199C3.35204 46.8235 3.35204 46.8235 3.45566 46.7199C3.45566 46.8235 3.35204 46.8235 3.45566 46.7199ZM69.1463 20.713C69.1463 20.6094 69.1463 20.6094 69.1463 20.713V20.713ZM55.4694 14.9107C55.4694 14.9107 55.573 14.8071 55.6766 14.8071C55.7802 14.7035 55.8838 14.7035 55.9874 14.5999C55.9874 14.5999 56.0911 14.5999 56.0911 14.4962C56.1947 14.3926 56.2983 14.289 56.4019 14.1854C56.5055 14.0818 56.6091 14.0818 56.6091 13.9782C56.8163 13.8746 57.1272 13.771 57.2308 13.5637C57.438 13.4601 57.6453 13.3565 57.8525 13.1493C57.8525 13.1493 57.9561 13.1493 57.9561 13.0457C58.0597 12.942 58.2669 12.8384 58.3705 12.7348C58.5778 12.5276 58.785 12.424 58.9922 12.3204C59.0958 12.3204 59.0958 12.2168 59.1994 12.2168C59.5103 12.2168 59.6139 12.2168 59.6139 12.2168C59.7175 12.2168 59.8211 12.1131 59.8211 12.1131C59.8211 12.1131 59.9247 12.1131 59.9247 12.0095L60.0283 11.9059C60.132 11.8023 60.2356 11.8023 60.3392 11.8023C60.3392 11.8023 60.3392 11.8023 60.4428 11.8023C60.5464 11.8023 60.65 11.8023 60.65 11.6987C60.65 11.6987 60.7536 11.5951 60.8573 11.5951C60.9609 11.5951 60.9609 11.5951 60.9609 11.4915C61.1681 11.4915 61.3753 11.2842 61.5825 11.1806C61.5825 11.1806 61.6862 11.1806 61.6862 11.077C61.7898 10.9734 61.997 10.9734 62.1006 10.8698C62.3078 10.7662 62.5151 10.7662 62.7223 10.6626C62.8259 10.6626 62.9295 10.559 63.1367 10.559C63.2404 10.559 63.344 10.4553 63.4476 10.4553C63.5512 10.4553 63.5512 10.3517 63.6548 10.3517C63.7584 10.2481 63.9656 10.1445 64.1729 10.1445C64.3801 10.1445 64.4837 10.0409 64.5873 9.93727H64.6909C64.8982 9.83366 65.209 9.73005 65.5198 9.62643H65.6235C65.7271 9.62643 65.8307 9.62643 65.9343 9.52282C66.0379 9.41921 66.1415 9.41921 66.1415 9.41921C66.1415 9.41921 66.1415 9.41921 66.2451 9.41921C66.2451 9.41921 66.2451 9.41921 66.3487 9.41921C66.4524 9.41921 66.4524 9.41921 66.556 9.31559C66.7632 9.31559 67.074 9.31559 67.2813 9.21198C67.5921 9.21198 67.6957 9.10837 67.7993 9.10837C68.0066 9.00476 68.2138 9.00476 68.421 8.90114H68.5246H68.6282H68.7318H68.8355C68.9391 8.90114 69.0427 8.90114 69.1463 8.79753H69.2499H69.3535C69.4571 8.79753 69.4571 8.79753 69.5608 8.79753C69.5608 8.79753 69.5607 8.79753 69.6644 8.79753C69.6644 8.79753 69.768 8.79753 69.768 8.90114V9.00476C69.768 9.21198 69.768 9.41921 69.768 9.52282V9.62643V9.73005C69.768 9.83366 69.6644 9.93727 69.6644 10.0409V10.1445V10.2481C69.6644 10.3517 69.6644 10.559 69.5608 10.6626C69.5608 10.6626 69.5608 10.6626 69.5608 10.7662C69.5608 10.7662 69.5608 10.7662 69.5608 10.8698C69.5608 11.077 69.5607 11.2842 69.4571 11.4915C69.4571 11.5951 69.4571 11.5951 69.4571 11.6987C69.4571 11.8023 69.3535 11.9059 69.3535 12.1131C69.3535 12.2168 69.3535 12.2168 69.2499 12.3204C69.1463 12.6312 69.0427 12.942 68.9391 13.3565C68.9391 13.6673 68.8355 13.8746 68.7318 14.1854C68.7318 14.3926 68.6282 14.4962 68.6282 14.7035C68.6282 14.8071 68.6282 14.9107 68.5246 15.1179C68.5246 15.2215 68.421 15.3251 68.421 15.4288C68.3174 15.636 68.3174 15.7396 68.3174 15.9468V16.0504C68.2138 16.3613 68.2138 16.6721 68.1102 16.983C68.1102 17.0866 68.0066 17.1902 68.0066 17.2938C68.0066 17.3974 67.9029 17.3974 67.9029 17.501C67.7993 17.8119 67.6957 18.1227 67.5921 18.4335C67.4885 18.6408 67.4885 18.7444 67.3849 18.9516C67.2813 19.4697 66.9704 19.9877 66.7632 20.5058C66.556 21.0239 66.3487 21.4383 66.1415 21.9564V22.06C66.0379 22.1636 66.0379 22.3708 65.9343 22.4744C65.8307 22.6817 65.7271 22.8889 65.7271 23.0961C65.7271 23.1997 65.6235 23.3033 65.6235 23.407C65.5198 23.6142 65.5198 23.7178 65.4162 23.925C65.3126 24.0286 65.3126 24.1323 65.209 24.2359C65.209 24.3395 65.1054 24.3395 65.1054 24.3395C65.1054 24.3395 65.0018 24.3395 65.0018 24.2359C64.7945 24.1323 64.5873 23.925 64.3801 23.7178L64.2765 23.6142C64.0693 23.3033 63.9656 23.0961 63.7584 22.7853C63.7584 22.6817 63.6548 22.6817 63.6548 22.5781C63.6548 22.4744 63.6548 22.4744 63.6548 22.3708C63.7584 22.2672 63.7584 22.06 63.862 21.9564V21.8528C63.862 21.8528 63.862 21.8528 63.862 21.7492C63.862 21.6455 63.862 21.5419 63.9656 21.5419C63.9656 21.4383 64.0693 21.4383 64.0693 21.3347C64.2765 21.0239 64.3801 20.6094 64.4837 20.195C64.4837 20.0913 64.5873 19.9877 64.5873 19.8841C64.5873 19.7805 64.6909 19.6769 64.6909 19.5733C64.6909 19.4697 64.7945 19.3661 64.7945 19.2624V19.1588C64.8982 19.0552 64.8982 18.848 65.0018 18.6408C65.0018 18.4335 65.1054 18.2263 65.209 18.0191C65.3126 17.8119 65.3126 17.6046 65.4162 17.501C65.5198 17.1902 65.6235 16.983 65.6235 16.6721C65.6235 16.4649 65.7271 16.2577 65.7271 16.0504C65.7271 15.9468 65.7271 15.9468 65.7271 15.8432C65.7271 15.7396 65.7271 15.636 65.7271 15.5324C65.7271 15.4288 65.7271 15.4288 65.7271 15.3251C65.7271 15.3251 65.7271 15.3251 65.7271 15.2215C65.7271 15.1179 65.7271 15.0143 65.7271 14.9107C65.7271 14.9107 65.7271 14.9107 65.6235 14.9107H65.5198C65.4162 14.9107 65.3126 14.9107 65.209 14.9107H65.1054C65.0018 14.9107 64.7945 15.0143 64.6909 15.0143C64.5873 15.0143 64.5873 14.9107 64.5873 14.9107C64.6909 14.7035 64.5873 14.4962 64.6909 14.289C64.6909 14.1854 64.5873 14.0818 64.5873 14.0818C64.4837 14.0818 64.4837 14.0818 64.3801 14.0818C64.3801 14.0818 64.3801 14.0818 64.2765 14.0818C64.0693 14.1854 63.9656 14.289 63.862 14.289C63.862 14.289 63.862 14.289 63.7584 14.289C63.4476 14.3926 63.2404 14.4962 62.9295 14.7035C62.9295 14.7035 62.9295 14.7035 62.8259 14.7035C62.7223 14.7035 62.6187 14.8071 62.5151 14.8071V14.7035H62.4114H62.3078C62.3078 14.5999 62.3078 14.5999 62.4114 14.5999C62.5151 14.4962 62.6187 14.3926 62.7223 14.289C62.7223 14.289 62.8259 14.289 62.8259 14.1854C63.0331 14.0818 63.1367 13.9782 63.344 13.771L63.4476 13.6673C63.7584 13.4601 64.0693 13.1493 64.3801 12.942C64.4837 12.8384 64.5873 12.8384 64.6909 12.8384H64.7945C64.7945 12.8384 64.7945 12.8384 64.8982 12.7348C65.0018 12.6312 65.1054 12.424 65.209 12.2168C65.209 12.2168 65.209 12.2168 65.209 12.1131C65.209 12.1131 65.209 12.1131 65.1054 12.1131C65.1054 12.1131 65.1054 12.1131 65.0018 12.1131C65.0018 12.1131 65.0018 12.1131 64.8982 12.1131C64.8982 12.1131 64.8982 12.1131 64.7945 12.1131C64.5873 12.2168 64.4837 12.3204 64.2765 12.424C64.1729 12.5276 63.9656 12.5276 63.862 12.6312C63.6548 12.6312 63.4476 12.7348 63.344 12.8384C63.0331 12.942 62.7223 13.1493 62.4114 13.2529C62.3078 13.2529 62.2042 13.2529 62.1006 13.2529C62.1006 13.2529 61.997 13.2529 61.997 13.3565C61.8934 13.3565 61.7898 13.4601 61.7898 13.4601C61.7898 13.4601 61.6862 13.4601 61.6862 13.5637C61.5825 13.5637 61.4789 13.6673 61.3753 13.771C61.1681 13.8746 61.0645 13.9782 60.8573 14.0818C60.7536 14.1854 60.65 14.1854 60.5464 14.289C60.4428 14.289 60.2356 14.3926 60.132 14.4962C59.9247 14.5999 59.7175 14.8071 59.5103 14.9107C59.4067 14.9107 59.4067 15.0143 59.3031 15.0143C59.0958 15.2215 58.8886 15.3251 58.6814 15.5324L58.5778 15.636C58.4742 15.8432 58.2669 15.9468 58.1633 16.1541C57.9561 16.4649 57.6453 16.6721 57.5416 16.983L57.438 16.8793C57.3344 16.7757 57.2308 16.7757 57.2308 16.6721C57.2308 16.6721 57.1272 16.6721 57.1272 16.5685C57.0236 16.4649 56.8164 16.3613 56.7127 16.2577C56.4019 16.3613 56.2983 16.2577 56.1947 16.2577C56.1947 16.2577 56.0911 16.2577 56.0911 16.1541C56.0911 16.1541 56.0911 16.0504 55.9874 16.0504V15.9468C55.9874 15.9468 55.9874 15.9468 56.0911 15.8432C56.1947 15.7396 56.1947 15.7396 56.0911 15.636C55.8838 15.5324 55.7802 15.4288 55.6766 15.2215C55.6766 15.2215 55.6766 15.2215 55.6766 15.1179C55.4694 15.0143 55.4694 14.9107 55.4694 14.9107ZM26.2505 22.8889H26.3541H26.4577C26.4577 22.8889 26.4577 22.8889 26.5614 22.8889C26.7686 22.7853 26.8722 22.6817 27.0794 22.6817C27.183 22.6817 27.2866 22.5781 27.3903 22.5781C27.3903 22.5781 27.4939 22.5781 27.4939 22.4744C27.5975 22.3708 27.7011 22.3708 27.8047 22.3708C27.8047 22.3708 27.9083 22.3708 27.9083 22.2672C28.1156 22.2672 28.2192 22.1636 28.4264 22.06C28.53 21.9564 28.6336 21.9564 28.8408 21.9564C28.9445 21.9564 29.0481 21.9564 29.1517 21.9564C29.2553 21.9564 29.3589 21.8528 29.4625 21.8528C29.5661 21.8528 29.6697 21.7492 29.7734 21.7492C29.9806 21.6455 30.1878 21.6455 30.395 21.6455C30.9131 21.5419 31.4312 21.6455 31.9492 21.6455C32.2601 21.6455 32.4673 21.6455 32.7781 21.7492C32.8817 21.7492 32.9854 21.7492 32.9854 21.7492C33.089 21.7492 33.089 21.7492 33.1926 21.7492C33.3998 21.7492 33.607 21.7492 33.8143 21.8528C34.0215 21.8528 34.2287 21.9564 34.5396 22.06H34.6432C34.6432 22.06 34.7468 22.06 34.8504 22.06C34.954 22.06 35.0576 22.06 35.1612 22.1636C35.3685 22.2672 35.6793 22.3708 35.8865 22.4744C36.1974 22.6817 36.5082 22.7853 36.819 22.9925C36.819 22.9925 36.9227 22.9925 37.0263 23.0961C37.0263 23.0961 37.0263 23.0961 37.1299 23.0961C37.1299 23.0961 37.1299 23.0961 37.2335 23.0961C37.3371 23.0961 37.3371 23.0961 37.3371 23.1997C37.4407 23.3033 37.5443 23.407 37.6479 23.407C37.6479 23.407 37.7516 23.407 37.7516 23.5106C37.7516 23.5106 37.8552 23.5106 37.8552 23.6142C38.0624 23.8214 38.2696 23.925 38.3732 24.1323C38.4768 24.2359 38.4768 24.2359 38.5805 24.3395C38.6841 24.4431 38.6841 24.4431 38.7877 24.5467L38.8913 24.6503C38.9949 24.7539 39.0985 24.7539 39.2021 24.8575C39.2021 24.8575 39.2021 24.9612 39.3057 24.9612C39.3057 25.0648 39.4094 25.0648 39.4094 25.1684C39.513 25.272 39.6166 25.3756 39.7202 25.4792C39.8238 25.5828 39.8238 25.5828 39.9274 25.6864C39.9274 25.7901 40.031 25.7901 40.031 25.7901C40.031 25.7901 40.1347 25.8937 40.2383 25.8937C40.3419 25.8937 40.3419 25.9973 40.4455 25.9973C40.5491 26.2045 40.6527 26.3081 40.7563 26.4117L40.8599 26.5154H40.9636C40.9636 26.4117 41.0672 26.4117 41.0672 26.3081C41.2744 25.9973 41.378 25.6864 41.6889 25.4792L41.7925 25.3756C41.8961 25.272 41.8961 25.272 41.9997 25.1684C42.3105 24.9612 42.6214 24.7539 42.9322 24.5467C43.0358 24.4431 43.243 24.3395 43.3467 24.2359H43.4503C43.7611 23.925 44.1756 23.7178 44.59 23.407C44.6936 23.3033 44.6936 23.3033 44.7972 23.1997C44.9009 23.0961 45.1081 22.9925 45.2117 22.8889L45.3153 22.7853C45.6261 22.6817 45.937 22.5781 46.2478 22.4744C46.7659 22.2672 47.1803 22.1636 47.6984 22.06C47.6984 22.06 47.6984 22.06 47.802 22.06C47.9056 22.06 48.0092 22.06 48.1129 21.9564C48.1129 21.9564 48.1129 21.9564 48.2165 21.9564C48.3201 21.9564 48.3201 21.9564 48.4237 21.9564C48.6309 21.9564 48.7345 21.9564 48.9418 21.9564C49.0454 21.9564 49.2526 21.9564 49.3562 21.9564C49.4598 21.9564 49.5634 21.9564 49.667 21.9564C49.667 21.9564 49.667 21.9564 49.7707 21.9564H49.8743H49.9779C50.0815 21.9564 50.1851 21.9564 50.2887 21.9564C50.3923 21.9564 50.496 21.9564 50.5996 21.9564C50.7032 21.9564 50.8068 21.9564 50.9104 22.06H51.014H51.1176H51.2212C51.3249 22.06 51.5321 22.06 51.6357 22.1636C51.7393 22.1636 51.9465 22.2672 52.0502 22.2672H52.1538C52.2574 22.2672 52.2574 22.2672 52.361 22.3708C52.5682 22.4744 52.6718 22.5781 52.8791 22.5781C52.9827 22.5781 52.9827 22.5781 53.0863 22.5781C53.1899 22.5781 53.1899 22.5781 53.2935 22.5781C53.3971 22.5781 53.5007 22.5781 53.5007 22.6817C53.5007 22.6817 53.6043 22.6817 53.6043 22.7853C53.708 22.8889 53.8116 22.8889 54.0188 22.9925H54.1224C54.3296 23.0961 54.4333 23.0961 54.6405 23.1997C54.7441 23.3033 54.9513 23.3033 55.0549 23.407C55.0549 23.407 55.0549 23.407 55.1585 23.407C55.1585 23.407 55.1585 23.407 55.2622 23.407C55.3658 23.407 55.3658 23.407 55.4694 23.5106C55.573 23.6142 55.6766 23.6142 55.6766 23.7178C55.7802 23.7178 55.7802 23.7178 55.8838 23.8214C55.8838 23.8214 55.8838 23.8214 55.9874 23.8214H56.0911C56.2983 23.925 56.5055 24.0286 56.8163 24.1323C56.92 24.2359 57.0236 24.2359 57.1272 24.3395C57.2308 24.4431 57.3344 24.4431 57.438 24.5467C58.2669 25.0648 58.9922 25.5828 59.7175 26.2045C59.8211 26.2045 59.8211 26.3081 59.9247 26.3081C60.0284 26.3081 60.0284 26.4117 60.132 26.4117C60.2356 26.4117 60.2356 26.5154 60.3392 26.5154C60.4428 26.5154 60.4428 26.619 60.4428 26.619C60.5464 26.7226 60.65 26.8262 60.7536 27.0334C60.8573 27.137 60.9609 27.2406 61.0645 27.3443C61.3753 27.6551 61.6862 27.8623 61.997 28.1732C62.2042 28.2768 62.3078 28.484 62.5151 28.6912C62.7223 28.8985 62.8259 29.0021 63.0331 29.2093C63.1367 29.3129 63.1367 29.3129 63.2404 29.4165C63.344 29.5201 63.344 29.5201 63.4476 29.6237C63.6548 29.7274 63.7584 29.9346 63.9656 30.1418C64.0693 30.2454 64.0693 30.349 64.1729 30.349C64.1729 30.4526 64.2765 30.4526 64.2765 30.5563C64.4837 30.7635 64.5873 30.9707 64.6909 31.0743C64.7945 31.2815 64.8982 31.3852 65.0018 31.5924C65.0018 31.5924 65.0018 31.696 65.1054 31.696C65.0018 31.696 65.0018 31.696 64.8982 31.5924C64.4837 31.4888 64.1729 31.3852 63.7584 31.1779C63.6548 31.1779 63.5512 31.0743 63.5512 31.0743C63.2404 30.9707 62.9295 30.7635 62.6187 30.6599C62.5151 30.6599 62.4114 30.5563 62.2042 30.5563C62.1006 30.5563 61.997 30.4526 61.8934 30.4526C61.7898 30.4526 61.6862 30.349 61.5825 30.349C61.5825 30.349 61.5825 30.349 61.4789 30.349H61.3753C61.2717 30.349 61.1681 30.2454 61.0645 30.2454C60.7536 30.1418 60.4428 30.0382 60.132 29.9346C59.9247 29.9346 59.7175 29.831 59.5103 29.7274C59.3031 29.7274 59.0958 29.6237 58.9922 29.6237C58.8886 29.6237 58.8886 29.6237 58.785 29.6237C58.6814 29.6237 58.6814 29.6237 58.5778 29.6237C58.4742 29.6237 58.3705 29.6237 58.2669 29.5201C57.9561 29.5201 57.7489 29.4165 57.438 29.4165C57.3344 29.4165 57.2308 29.4165 57.2308 29.4165C57.0236 29.4165 56.8164 29.4165 56.7127 29.4165C56.6091 29.4165 56.6091 29.4165 56.5055 29.4165C56.1947 29.4165 55.7802 29.4165 55.4694 29.4165C55.3658 29.4165 55.2622 29.4165 55.1585 29.4165C55.0549 29.4165 54.9513 29.4165 54.8477 29.4165C54.5369 29.5201 54.226 29.5201 53.9152 29.6237C53.708 29.6237 53.5007 29.7274 53.2935 29.7274C53.0863 29.7274 52.9827 29.831 52.7754 29.831C52.6718 29.831 52.4646 29.9346 52.361 29.9346C52.2574 29.9346 52.2574 29.9346 52.1538 29.9346C52.0501 29.9346 51.9465 30.0382 51.8429 30.0382C51.6357 30.0382 51.5321 30.1418 51.3249 30.2454C51.1176 30.349 51.014 30.349 50.8068 30.4526C50.5996 30.5563 50.3923 30.6599 50.1851 30.7635C50.0815 30.7635 50.0815 30.8671 49.9779 30.8671C49.8743 30.9707 49.7707 30.9707 49.667 31.0743C49.5634 31.1779 49.4598 31.1779 49.3562 31.2815C49.149 31.3852 48.8381 31.5924 48.6309 31.7996C48.4237 32.0068 48.2165 32.1105 48.0092 32.3177C47.9056 32.4213 47.802 32.4213 47.6984 32.6285C47.6984 32.6285 47.6984 32.6285 47.5948 32.7321C47.1803 33.1466 46.7659 33.561 46.3514 33.9755C46.1442 34.1827 46.0406 34.3899 45.8334 34.5972C45.7298 34.7008 45.6261 34.908 45.5225 35.0116C45.3153 35.3225 45.2117 35.7369 45.2117 36.1514C45.2117 36.255 45.2117 36.255 45.2117 36.255C45.2117 36.255 45.2117 36.3586 45.1081 36.3586C45.1081 36.3586 45.1081 36.4622 45.0045 36.4622C44.9008 36.5658 44.9009 36.6694 44.9009 36.773C44.9009 36.8767 44.7972 36.9803 44.7972 37.0839V37.1875C44.7972 37.2911 44.7972 37.2911 44.7972 37.3947C44.6936 37.6019 44.6936 37.7056 44.59 37.9128C44.59 38.0164 44.4864 38.3272 44.4864 38.5345C44.4864 38.6381 44.4864 38.6381 44.4864 38.6381V38.7417C44.4864 38.8453 44.59 38.9489 44.4864 39.0525C44.4864 39.1561 44.4864 39.1561 44.4864 39.2598C44.4864 39.3634 44.4864 39.3634 44.4864 39.467C44.4864 39.5706 44.4864 39.6742 44.4864 39.7778C44.4864 39.8814 44.4864 39.985 44.4864 40.0887V40.1923C44.4864 40.2959 44.59 40.2959 44.59 40.3995L44.4864 40.5031C44.4864 40.5031 44.4864 40.5031 44.4864 40.6067C44.4864 40.6067 44.4864 40.6067 44.4864 40.7103C44.59 40.9176 44.4864 41.0212 44.4864 41.2284V41.332C44.4864 41.7465 44.59 42.0573 44.6936 42.4718C44.6936 42.4718 44.6936 42.4717 44.6936 42.5754C44.6936 42.679 44.6936 42.679 44.6936 42.7826C44.6936 42.8862 44.6936 42.8862 44.6936 42.9898V43.0934C44.6936 43.197 44.6936 43.3007 44.7972 43.3007C44.7972 43.4043 44.7972 43.5079 44.9009 43.5079C45.0045 43.9223 45.1081 44.2332 45.3153 44.6476V44.7512C45.3153 44.9585 45.4189 45.0621 45.5225 45.2693C45.6261 45.4765 45.7298 45.7874 45.8334 45.9946C45.8334 46.0982 45.8334 46.0982 45.8334 46.0982H45.7298C45.6261 46.0982 45.6261 46.2018 45.5225 46.2018C45.3153 46.3054 45.2117 46.3054 45.0045 46.409C44.9008 46.409 44.9009 46.5127 44.7972 46.5127H44.6936C44.3828 46.6163 44.0719 46.8235 43.8647 47.0307C43.7611 47.1343 43.7611 47.1343 43.6575 47.2379C43.5539 47.3416 43.5539 47.3416 43.4503 47.4452C43.1394 47.6524 42.8286 47.9632 42.6214 48.1705C42.6214 48.1705 42.6214 48.1705 42.5178 48.2741C42.5178 48.2741 42.5178 48.2741 42.4141 48.3777C42.3105 48.4813 42.2069 48.5849 42.1033 48.6885C41.8961 48.8958 41.7925 49.103 41.5852 49.2066C41.5852 49.2066 41.4816 49.2066 41.378 49.2066C41.0672 49.103 40.6527 48.9994 40.3419 48.8958C40.1347 48.7921 40.031 48.7921 39.8238 48.6885C39.7202 48.6885 39.6166 48.5849 39.513 48.5849C39.3058 48.4813 39.2021 48.4813 39.0985 48.2741L38.9949 48.1705C38.6841 47.9632 38.3732 47.6524 38.0624 47.4452C38.0624 47.4452 38.0624 47.4452 37.9588 47.4452C37.7516 47.2379 37.5443 47.1343 37.3371 47.0307C37.0263 46.8235 36.6118 46.6163 36.301 46.5127C36.1974 46.409 35.9901 46.409 35.8865 46.3054C35.7829 46.3054 35.6793 46.2018 35.5757 46.2018C35.4721 46.2018 35.3685 46.0982 35.2648 46.0982C35.1612 46.0982 35.0576 46.0982 35.0576 45.9946C35.0576 45.9946 35.0576 45.891 35.1612 45.891C35.1612 45.891 35.1612 45.7874 35.2648 45.7874C35.3685 45.5801 35.4721 45.3729 35.4721 45.2693C35.5757 45.0621 35.5757 44.9585 35.5757 44.7512V44.6476C35.6793 44.3368 35.7829 44.0259 35.8865 43.6115C35.8865 43.5079 35.8865 43.4043 35.9901 43.3007C35.9901 43.197 35.9901 43.197 35.9901 43.0934C35.9901 42.9898 35.9901 42.9898 35.9901 42.8862C35.9901 42.7826 35.9901 42.7826 35.9901 42.679C35.9901 42.5754 35.9901 42.4718 36.0938 42.4718C36.0938 42.3681 36.0938 42.2645 36.0938 42.1609V42.0573V41.9537C36.0938 41.8501 36.0938 41.7465 36.0938 41.6428C36.0938 41.5392 36.0938 41.4356 36.0938 41.332C36.0938 41.1248 36.0938 40.9176 36.0938 40.7103C36.0938 40.5031 36.0938 40.2959 36.0938 40.0887C36.0938 39.985 36.0938 39.8814 36.0938 39.7778C36.0938 39.5706 36.0938 39.3634 35.9901 39.1561C35.9901 38.9489 35.8865 38.7417 35.8865 38.4308C35.8865 38.2236 35.7829 38.12 35.7829 37.9128C35.7829 37.7056 35.6793 37.6019 35.6793 37.3947C35.6793 37.1875 35.5757 37.0839 35.5757 36.9803V36.8766V36.773C35.5757 36.5658 35.5757 36.3586 35.4721 36.255C35.4721 36.0477 35.3685 35.9441 35.2648 35.7369C35.2648 35.6333 35.1612 35.5297 35.1612 35.5297C35.1612 35.4261 35.0576 35.3225 35.0576 35.3225C35.0576 35.3225 35.0576 35.2188 34.954 35.2188C34.954 35.1152 34.8504 35.0116 34.7468 34.908V34.8044C34.7468 34.8044 34.7468 34.7008 34.6432 34.7008C34.6432 34.5972 34.5396 34.4936 34.5396 34.3899C34.4359 34.2863 34.4359 34.1827 34.3323 34.0791C34.2287 33.9755 34.1251 33.8719 34.1251 33.7683C33.9179 33.4574 33.7107 33.2502 33.5034 32.9394C33.3998 32.8357 33.2962 32.7321 33.1926 32.6285C32.9854 32.4213 32.7781 32.2141 32.5709 32.1105C32.5709 32.1105 32.5709 32.1105 32.4673 32.1105C32.2601 31.9032 31.9492 31.7996 31.742 31.5924C31.6384 31.4888 31.5348 31.4888 31.4312 31.3852C31.3276 31.2815 31.2239 31.2815 31.1203 31.1779C31.0167 31.0743 30.8095 30.9707 30.7059 30.9707C30.6023 30.9707 30.4986 30.8671 30.395 30.8671C29.9806 30.6599 29.5661 30.5563 29.0481 30.4526C28.53 30.349 28.0119 30.2454 27.5975 30.1418C27.4939 30.1418 27.3903 30.1418 27.3903 30.1418C27.2866 30.1418 27.183 30.1418 27.183 30.1418C27.0794 30.1418 27.0794 30.1418 26.9758 30.1418C26.8722 30.1418 26.7686 30.1418 26.7686 30.1418C26.665 30.1418 26.5614 30.1418 26.3541 30.1418C26.2505 30.1418 26.2505 30.1418 26.1469 30.1418C26.0433 30.1418 25.9397 30.1418 25.8361 30.1418C25.6288 30.1418 25.318 30.0382 25.1108 30.0382C25.0072 30.0382 24.9035 30.0382 24.7999 30.0382C24.6963 30.0382 24.5927 30.0382 24.4891 30.0382C24.3855 30.0382 24.2819 30.0382 24.1783 30.0382C23.7638 30.0382 23.3493 30.0382 22.9349 30.1418C22.9349 30.1418 22.9349 30.1418 22.8313 30.1418C22.8313 30.1418 22.8313 30.1418 22.7277 30.1418C22.5204 30.1418 22.3132 30.1418 22.106 30.2454C22.0024 30.2454 21.8988 30.349 21.6915 30.349C21.5879 30.349 21.4843 30.349 21.3807 30.4526C21.2771 30.4526 21.2771 30.4526 21.1735 30.5563C21.1735 30.5563 21.1735 30.5563 21.0699 30.5563C21.0699 30.5563 21.0699 30.5563 20.9663 30.5563C20.8626 30.5563 20.759 30.5563 20.6554 30.6599C20.5518 30.6599 20.4482 30.7635 20.3446 30.7635C20.0337 30.8671 19.7229 30.9707 19.4121 31.0743C19.1012 31.1779 18.7904 31.3852 18.4795 31.4888C18.3759 31.4888 18.3759 31.5924 18.2723 31.5924C18.0651 31.696 17.8579 31.7996 17.6506 31.9032H17.547C17.4434 31.9032 17.4434 31.9032 17.3398 32.0068H17.2362C17.1326 32.0068 17.029 32.0068 17.029 32.1105C16.9253 32.1105 16.9253 32.2141 16.8217 32.2141C16.7181 32.2141 16.7181 32.3177 16.6145 32.3177H16.5109H16.4073C16.4073 32.3177 16.3037 32.3177 16.3037 32.4213C16.3037 32.4213 16.3037 32.4213 16.2001 32.4213L16.0964 32.5249C16.0964 32.4213 16.2001 32.4213 16.3037 32.4213C16.3037 32.4213 16.3037 32.4213 16.3037 32.3177C16.3037 32.3177 16.3037 32.3177 16.3037 32.2141C16.3037 32.2141 16.3037 32.2141 16.3037 32.1105C16.3037 32.0068 16.4073 32.0068 16.4073 31.9032C16.5109 31.7996 16.5109 31.696 16.6145 31.5924C16.6145 31.4888 16.6145 31.4888 16.7181 31.3852V31.2815C16.8217 31.0743 16.9253 30.8671 17.1326 30.6599C17.1326 30.5563 17.2362 30.6599 17.2362 30.5563C17.2362 30.4526 17.3398 30.4526 17.3398 30.349V30.2454V30.1418C17.3398 30.0382 17.4434 30.0382 17.4434 29.9346C17.4434 29.831 17.547 29.831 17.547 29.7274C17.6506 29.6237 17.6506 29.5201 17.7542 29.4165C17.7542 29.4165 17.7542 29.4165 17.7542 29.3129C17.7542 29.3129 17.7542 29.2093 17.8579 29.2093L17.9615 29.1057C17.9615 29.1057 17.9615 29.0021 18.0651 29.0021L18.1687 28.8985C18.4795 28.6912 18.6868 28.3804 18.9976 28.1732C19.1012 28.0695 19.3084 27.9659 19.4121 27.7587C19.5157 27.6551 19.5157 27.6551 19.6193 27.5515L19.7229 27.4479C19.8265 27.4479 19.9301 27.3443 19.9301 27.2406C19.9301 27.137 20.0337 27.137 20.1374 27.137C20.3446 27.0334 20.6554 26.8262 20.8626 26.619C21.1735 26.3081 21.4843 26.1009 21.7952 25.8937C21.7952 25.8937 21.8988 25.8937 21.8988 25.7901C22.2096 25.5828 22.5204 25.3756 22.7277 25.1684C22.8313 25.0648 23.0385 24.9612 23.1421 24.8575C23.3494 24.6503 23.5566 24.5467 23.7638 24.4431C23.7638 24.4431 23.7638 24.4431 23.8674 24.4431C24.0746 24.3395 24.3855 24.1323 24.5927 24.0286L24.6963 23.925C24.9035 23.8214 25.2144 23.7178 25.4216 23.5106C25.4216 23.5106 25.5252 23.5106 25.5252 23.407C25.6288 23.3033 25.7325 23.3033 25.8361 23.1997C26.1469 22.9925 26.1469 22.8889 26.2505 22.8889ZM15.4748 22.5781C15.3712 22.1636 15.2675 21.8528 15.0603 21.5419C14.9567 21.4383 14.9567 21.2311 14.9567 21.1275C14.9567 21.1275 14.9567 21.0239 14.8531 21.0239V20.9202C14.7495 20.6094 14.6459 20.2986 14.5422 19.9877C14.5422 19.8841 14.4386 19.6769 14.4386 19.5733C14.4386 19.4697 14.4386 19.3661 14.335 19.2624C14.2314 18.848 14.2314 18.4335 14.1278 18.0191C14.0242 17.7082 14.0242 17.2938 13.9206 16.983C13.9206 16.8793 13.9206 16.7757 13.9206 16.7757C13.9206 16.4649 13.817 16.2577 13.817 15.9468C13.7133 15.4288 13.7133 15.0143 13.5061 14.4962C13.5061 14.3926 13.4025 14.1854 13.4025 14.0818C13.4025 13.8746 13.2989 13.771 13.2989 13.5637C13.1953 13.1493 13.1953 12.8384 13.0917 12.424V12.3204C13.0917 12.2168 13.0917 12.1131 13.0917 12.1131V12.0095C13.0917 11.6987 13.0917 11.3879 13.0917 11.1806C13.0917 11.1806 13.0917 11.1806 13.0917 11.077C13.0917 10.9734 13.0917 10.8698 13.0917 10.7662C13.0917 10.5589 13.1953 10.4553 13.1953 10.3517C13.2989 10.2481 13.2989 10.2481 13.5061 10.1445C13.7133 10.0409 13.9206 10.0409 14.1278 10.1445C14.4386 10.1445 14.7495 10.1445 14.9567 10.2481C15.1639 10.2481 15.3712 10.2481 15.5784 10.3517C15.682 10.3517 15.7856 10.3517 15.8892 10.4553C15.9928 10.4553 15.9928 10.4553 16.0964 10.559C16.2001 10.6626 16.4073 10.6626 16.5109 10.6626C16.7181 10.6626 16.8217 10.6626 16.9253 10.7662H17.029H17.1326C17.2362 10.7662 17.3398 10.7662 17.3398 10.8698H17.4434C17.547 10.8698 17.547 10.8698 17.6506 10.9734C17.6506 10.9734 17.6506 10.9734 17.7542 10.9734C17.7542 10.9734 17.8579 10.9734 17.8579 11.077C17.9615 11.077 18.0651 11.1806 18.0651 11.1806C18.1687 11.1806 18.2723 11.2842 18.3759 11.3879C18.3759 11.3879 18.3759 11.3879 18.4795 11.3879C18.4795 11.3879 18.4795 11.3879 18.5832 11.3879H18.6868C18.7904 11.4915 18.894 11.4915 18.9976 11.4915C19.1012 11.4915 19.2048 11.5951 19.3084 11.5951C19.4121 11.5951 19.5157 11.6987 19.6193 11.6987C19.6193 11.6987 19.7229 11.6987 19.7229 11.8023H19.8265C19.8265 11.8023 19.8265 11.8023 19.9301 11.8023H20.0337C20.1374 11.9059 20.3446 12.0095 20.4482 12.1131C20.5518 12.2168 20.6554 12.2168 20.759 12.2168C21.0699 12.2168 21.1735 12.3204 21.3807 12.424C21.4843 12.5276 21.6915 12.6312 21.7952 12.7348C21.8988 12.8384 22.0024 12.942 22.2096 12.942C22.4168 13.0457 22.6241 13.1493 22.7277 13.3565L22.8313 13.4601C23.0385 13.5637 23.2457 13.6673 23.453 13.8746L23.5566 13.9782C23.5566 13.9782 23.6602 13.9782 23.6602 14.0818L23.7638 14.1854C23.8674 14.1854 24.0746 14.289 24.1783 14.3926C24.2819 14.4962 24.2819 14.4962 24.3855 14.5999C24.4891 14.7035 24.4891 14.7035 24.5927 14.8071H24.6963C24.7999 14.9107 24.9035 14.9107 25.0072 15.0143H25.1108C25.1108 15.0143 25.1108 15.0143 25.2144 15.0143H25.318C25.4216 15.2215 25.4216 15.3251 25.5252 15.3251C25.5252 15.3251 25.5252 15.3251 25.6288 15.3251C25.7325 15.3251 25.7325 15.4288 25.8361 15.4288V15.5324L25.7325 15.636C25.6288 15.636 25.6288 15.7396 25.5252 15.7396C25.4216 15.8432 25.2144 15.9468 25.1108 16.0504C25.0072 16.1541 24.7999 16.2577 24.6963 16.3613C24.4891 16.4649 24.3855 16.6721 24.2819 16.7757C24.2819 16.7757 24.2819 16.7757 24.1783 16.7757C23.971 16.983 23.7638 17.0866 23.5566 17.2938L23.453 17.3974H23.3494C23.3494 17.3974 23.3494 17.3974 23.2457 17.2938C23.2457 17.2938 23.1421 17.2938 23.1421 17.1902C23.0385 17.0866 22.9349 16.983 22.8313 16.983C22.8313 16.983 22.8313 16.983 22.7277 16.983L22.6241 16.8793C22.5204 16.7757 22.5204 16.6721 22.4168 16.5685C22.4168 16.5685 22.4168 16.5685 22.3132 16.4649C22.2096 16.4649 22.2096 16.3613 22.106 16.3613C22.2096 16.2577 22.106 16.2577 22.106 16.1541C22.0024 16.1541 22.0024 16.0504 21.8988 16.0504C21.7952 16.0504 21.7952 15.9468 21.6915 15.9468C21.6915 15.9468 21.5879 15.9468 21.5879 15.8432C21.4843 15.7396 21.4843 15.7396 21.3807 15.636C21.2771 15.5324 21.2771 15.5324 21.1735 15.4288C21.0699 15.4288 20.9663 15.4288 20.9663 15.3251C20.8626 15.3251 20.8626 15.2215 20.759 15.2215C20.6554 15.1179 20.4482 15.0143 20.241 14.9107C20.241 14.9107 20.1374 14.8071 20.0337 14.8071C19.9301 14.8071 19.9301 14.7035 19.8265 14.7035C19.8265 14.7035 19.7229 14.7035 19.7229 14.5999C19.7229 14.5999 19.6193 14.5999 19.5157 14.4962H19.4121L19.3084 14.3926L19.2048 14.289C19.2048 14.289 19.1012 14.1854 18.9976 14.1854C18.7904 14.0818 18.6868 14.0818 18.4795 13.9782C18.3759 13.9782 18.3759 13.8746 18.2723 13.8746C18.1687 13.8746 18.1687 13.771 18.0651 13.771C17.9615 13.6673 17.8579 13.6673 17.7542 13.6673C17.6506 13.6673 17.6506 13.6673 17.547 13.5637C17.4434 13.5637 17.3398 13.4601 17.2362 13.4601C17.1326 13.4601 17.1326 13.3565 17.029 13.3565C17.1326 13.2529 17.029 13.2529 16.9253 13.2529C16.8217 13.2529 16.7181 13.1493 16.6145 13.1493C16.5109 13.1493 16.4073 13.0457 16.3037 13.0457C16.2001 13.0457 16.2001 13.0457 16.0964 13.0457C15.9928 13.0457 15.9928 13.0457 15.8892 13.0457C15.7856 13.0457 15.7856 13.0457 15.682 12.942C15.5784 12.942 15.5784 12.942 15.4748 12.942C15.3712 12.942 15.2675 12.942 15.2675 12.8384C15.2675 12.8384 15.2675 12.8384 15.1639 12.8384C15.1639 12.8384 15.1639 12.8384 15.0603 12.8384C15.1639 12.942 15.2675 12.942 15.3712 13.0457C15.3712 13.0457 15.3712 13.0457 15.4748 13.0457C15.682 13.1493 15.7856 13.2529 15.9928 13.2529C16.2001 13.3565 16.4073 13.4601 16.6145 13.6673C16.6145 13.6673 16.7181 13.6673 16.7181 13.771C16.8217 13.8746 17.029 13.9782 17.1326 13.9782C17.547 14.1854 17.9615 14.4962 18.3759 14.9107C18.3759 14.9107 18.4795 14.9107 18.4795 15.0143C18.5832 15.1179 18.6868 15.2215 18.6868 15.2215L18.7904 15.3251C18.7904 15.3251 18.7904 15.3251 18.894 15.4288C18.894 15.4288 18.894 15.4288 18.9976 15.5324C19.1012 15.636 19.2048 15.636 19.2048 15.8432C19.1012 15.8432 19.1012 15.8432 18.9976 15.8432H18.894C18.7904 15.8432 18.6868 15.7396 18.6868 15.7396H18.5832C18.4795 15.7396 18.4795 15.7396 18.3759 15.636C18.2723 15.636 18.0651 15.5324 17.9615 15.5324C17.8579 15.5324 17.8579 15.5324 17.7542 15.5324C17.547 15.4288 17.3398 15.4288 17.1326 15.3251C16.9253 15.3251 16.8217 15.2215 16.6145 15.2215C16.4073 15.2215 16.2001 15.2215 15.8892 15.2215H15.7856C15.7856 15.2215 15.682 15.3251 15.7856 15.3251C15.7856 15.3251 15.7856 15.4288 15.8892 15.4288C15.8892 15.4288 15.8892 15.4288 15.8892 15.5324C15.8892 15.636 15.9928 15.7396 15.9928 15.8432C15.9928 15.9468 16.0964 16.0504 16.0964 16.1541C16.0964 16.2577 16.0964 16.3613 16.2001 16.3613C16.3037 16.5685 16.3037 16.8793 16.4073 17.0866C16.4073 17.1902 16.5109 17.2938 16.5109 17.3974C16.6145 17.6046 16.6145 17.8119 16.7181 18.0191C16.7181 18.1227 16.8217 18.2263 16.8217 18.3299C16.7181 18.3299 16.7181 18.3299 16.6145 18.3299C16.6145 18.3299 16.6145 18.3299 16.7181 18.4335C16.7181 18.5372 16.8217 18.5372 16.9253 18.6408C17.029 18.7444 17.1326 18.848 17.2362 19.0552C17.2362 19.1588 17.3398 19.1588 17.3398 19.2624C17.3398 19.3661 17.4434 19.3661 17.4434 19.4697C17.547 19.6769 17.547 19.8841 17.6506 19.9877C17.7543 20.0913 17.7542 20.195 17.7542 20.4022C17.7542 20.4022 17.7542 20.5058 17.8579 20.5058C17.9615 20.713 18.0651 21.0239 18.1687 21.2311C18.2723 21.3347 18.2723 21.5419 18.3759 21.6455C18.4795 21.8528 18.5832 22.06 18.6868 22.2672C18.7904 22.3708 18.7904 22.4744 18.894 22.5781V22.6817C18.894 22.7853 18.7904 22.7853 18.7904 22.8889C18.7904 22.9925 18.7904 23.0961 18.6868 23.0961C18.5832 23.1997 18.5832 23.1997 18.4795 23.3034L18.3759 23.407C18.2723 23.5106 18.2723 23.6142 18.1687 23.7178C18.1687 23.8214 18.0651 23.925 18.0651 23.925C18.0651 24.0286 18.1687 24.1323 18.1687 24.1323V24.2359C17.9615 24.5467 17.7542 24.9612 17.4434 25.272V25.3756C17.4434 25.3756 17.4434 25.3756 17.4434 25.4792H17.3398C17.3398 25.4792 17.3398 25.3756 17.2362 25.3756C17.2362 25.3756 17.2362 25.272 17.1326 25.272C17.029 25.1684 17.029 25.0648 16.9253 24.8575C16.8217 24.7539 16.8217 24.5467 16.7181 24.4431C16.7181 24.3395 16.6145 24.2359 16.6145 24.0286C16.6145 23.925 16.5109 23.8214 16.5109 23.7178V23.6142C16.4073 23.5106 16.4073 23.407 16.3037 23.3034C16.2001 23.1997 16.2001 23.0961 16.0964 22.8889C15.4748 22.8889 15.4748 22.7853 15.4748 22.5781ZM14.6459 38.7417C14.335 38.9489 14.1278 39.0525 13.817 39.2598C13.7133 39.3634 13.6097 39.3634 13.5061 39.3634L13.4025 39.467C13.4025 39.467 13.4025 39.467 13.2989 39.467C13.2989 39.467 13.1953 39.467 13.1953 39.5706C12.8844 39.7778 12.5736 39.985 12.2628 40.1923C12.0555 40.3995 11.8483 40.5031 11.5375 40.7103C11.4339 40.8139 11.3302 40.8139 11.2266 40.9176C11.123 41.0212 11.0194 41.0212 10.9158 41.1248C10.7086 41.2284 10.5013 41.4356 10.2941 41.5392C10.2941 41.5392 10.1905 41.5392 10.1905 41.6428C10.0869 41.7465 9.98328 41.8501 9.77605 41.9537C9.67244 42.0573 9.46521 42.1609 9.3616 42.2645C9.3616 42.2645 9.3616 42.2645 9.25799 42.2645C9.3616 42.1609 9.3616 42.0573 9.46521 41.9537C9.67244 41.7465 9.87966 41.4356 10.0869 41.2284C10.0869 41.2284 10.0869 41.1248 10.1905 41.1248C10.1905 41.1248 10.1905 41.0212 10.2941 41.0212C10.5013 40.7103 10.7086 40.5031 10.9158 40.1923C10.9158 40.1923 10.9158 40.1923 10.9158 40.0887C11.0194 39.985 11.0194 39.8814 11.123 39.6742C11.123 39.6742 11.2266 39.6742 11.2266 39.5706C11.3302 39.467 11.3302 39.467 11.3302 39.3634C11.3302 39.3634 11.3302 39.3634 11.4339 39.2598C11.5375 39.2598 11.5375 39.1561 11.5375 39.0525C11.5375 39.0525 11.5375 38.9489 11.6411 38.9489L11.7447 38.8453C11.7447 38.7417 11.8483 38.6381 11.8483 38.6381C11.9519 38.5345 11.9519 38.5345 12.0555 38.4308C12.0555 38.3272 12.1591 38.2236 12.1591 38.12C12.2628 38.0164 12.3664 37.9128 12.3664 37.7056C12.47 37.6019 12.5736 37.4983 12.5736 37.2911V37.1875L12.6772 37.0839C12.6772 37.0839 12.6772 37.0839 12.7808 37.0839C12.7808 37.0839 12.8844 37.0839 12.8844 36.9803C12.8844 36.9803 12.8844 36.9803 12.9881 36.8766C12.9881 36.773 13.0917 36.6694 13.0917 36.6694C13.0917 36.5658 13.1953 36.5658 13.1953 36.4622V36.3586C13.1953 36.255 13.1953 36.1514 13.2989 36.1514C13.2989 36.0477 13.4025 36.0477 13.5061 35.9441C13.6097 35.8405 13.7133 35.7369 13.7133 35.5297V35.4261C13.7133 35.4261 13.7133 35.4261 13.7133 35.3225L13.817 35.2188C13.9206 35.1152 14.0242 34.908 14.1278 34.7008C14.1278 34.5972 14.2314 34.5972 14.335 34.5972C14.6459 34.3899 14.9567 34.2863 15.2675 34.0791C15.5784 33.9755 15.8892 33.7683 16.2001 33.6646C16.3037 33.561 16.4073 33.561 16.5109 33.4574C16.7181 33.3538 16.9253 33.2502 17.2362 33.1466C17.3398 33.1466 17.4434 33.043 17.4434 33.043C17.547 33.043 17.547 32.9394 17.6506 32.9394C17.8579 32.8357 17.9615 32.8357 18.1687 32.7321C18.2723 32.7321 18.3759 32.6285 18.4795 32.6285H18.5832H18.6868C19.2048 32.6285 19.6193 32.4213 20.1374 32.3177C20.1374 32.3177 20.1374 32.3177 20.241 32.3177H20.3446C20.5518 32.2141 20.759 32.2141 20.9663 32.1105C20.9663 32.1105 21.0699 32.1105 21.0699 32.0068H21.1735C21.2771 32.0068 21.4843 32.0068 21.5879 32.0068C21.6915 32.0068 21.7952 32.0068 21.8988 31.9032C22.0024 31.9032 22.0024 31.9032 22.106 31.7996C22.3132 31.696 22.5204 31.696 22.6241 31.696H22.7277C22.8313 31.696 22.9349 31.696 23.1421 31.696H23.2457C23.3494 31.696 23.3494 31.696 23.453 31.696C23.5566 31.696 23.6602 31.696 23.6602 31.696C23.7638 31.696 23.8674 31.696 24.0746 31.5924C24.1783 31.5924 24.3855 31.5924 24.4891 31.4888H24.5927C24.6963 31.4888 24.6963 31.4888 24.7999 31.4888H24.9035H25.0072H25.1108C25.2144 31.4888 25.2144 31.4888 25.318 31.4888C25.4216 31.4888 25.5252 31.4888 25.5252 31.4888H25.6288C25.7325 31.4888 25.8361 31.4888 25.8361 31.5924C26.0433 31.5924 26.1469 31.5924 26.3541 31.5924H26.4577H26.5614C26.665 31.5924 26.665 31.5924 26.7686 31.5924H26.8722C26.9758 31.5924 27.0794 31.5924 27.183 31.696C27.183 31.696 27.183 31.696 27.2866 31.696H27.3903C27.4939 31.696 27.7011 31.7996 27.8047 31.7996C27.9083 31.7996 27.9083 31.7996 28.0119 31.7996H28.1155C28.2192 31.7996 28.3228 31.7996 28.4264 31.9032H28.53C28.6336 31.9032 28.6336 31.9032 28.7372 32.0068C28.7372 32.0068 28.7372 32.0068 28.8408 32.0068C28.8408 32.0068 28.8408 32.0068 28.9445 32.0068C28.9445 32.0068 28.9445 32.0068 29.0481 32.0068C29.0481 32.0068 29.0481 32.0068 29.1517 32.0068C29.3589 32.0068 29.5661 32.1105 29.7734 32.2141C29.877 32.2141 29.877 32.2141 29.9806 32.2141C30.0842 32.2141 30.1878 32.2141 30.1878 32.2141C30.395 32.2141 30.4986 32.3177 30.7059 32.3177C30.7059 32.3177 30.7059 32.3177 30.8095 32.3177C31.0167 32.4213 31.2239 32.5249 31.4312 32.5249C31.4312 32.5249 31.5348 32.5249 31.5348 32.6285C31.6384 32.8357 31.8456 33.043 32.0528 33.1466C32.0528 33.1466 32.1565 33.1466 32.1565 33.2502C32.1565 33.2502 32.1565 33.2502 32.2601 33.2502C32.3637 33.3538 32.4673 33.3538 32.5709 33.561C32.5709 33.6646 32.6745 33.6646 32.7781 33.7683L32.8817 33.8719L32.9854 33.9755V34.0791C33.089 34.3899 33.1926 34.5972 33.2962 34.8044C33.2962 34.908 33.3998 34.908 33.3998 35.0116C33.3998 35.2188 33.5034 35.3225 33.607 35.5297C33.7107 35.6333 33.7107 35.7369 33.7107 35.9441C33.7107 36.0477 33.8143 36.255 33.8143 36.3586V36.4622C33.7106 36.3586 33.607 36.3586 33.5034 36.255C33.2962 36.0477 33.1926 35.9441 32.9854 35.8405C32.9854 35.8405 32.9854 35.8405 32.9854 35.7369C32.9854 35.6333 32.8817 35.6333 32.7781 35.5297C32.6745 35.5297 32.5709 35.4261 32.5709 35.3225L32.4673 35.2188C32.3637 35.1152 32.2601 35.1152 32.1565 35.0116C32.1565 35.0116 32.0528 35.0116 32.0528 34.908C31.9492 34.908 31.8456 34.8044 31.742 34.8044C31.6384 34.7008 31.4312 34.7008 31.3276 34.5972C31.3276 34.5972 31.2239 34.5972 31.2239 34.4936C31.1203 34.4936 31.0167 34.3899 30.9131 34.3899C30.8095 34.3899 30.7059 34.2863 30.4986 34.2863C30.0842 34.0791 29.5661 34.0791 29.1517 33.9755C28.7372 33.8719 28.4264 33.8719 28.0119 33.7683H27.9083C27.8047 33.7683 27.7011 33.7683 27.5975 33.7683C27.3903 33.7683 27.183 33.7683 26.9758 33.7683C26.8722 33.7683 26.7686 33.7683 26.665 33.7683C26.4577 33.7683 26.2505 33.7683 26.0433 33.7683C25.8361 33.7683 25.6288 33.7683 25.4216 33.8719H25.318C25.2144 33.8719 25.1108 33.8719 24.9035 33.8719C24.7999 33.8719 24.7999 33.8719 24.6963 33.8719C24.2819 33.9755 23.8674 33.9755 23.453 34.0791C23.453 34.0791 23.453 34.0791 23.3494 34.0791C23.2457 34.1827 23.0385 34.1827 22.9349 34.1827C22.8313 34.1827 22.7277 34.2863 22.5204 34.2863C22.4168 34.2863 22.3132 34.2863 22.3132 34.3899C22.0024 34.4936 21.7952 34.5972 21.4843 34.7008C21.3807 34.7008 21.1735 34.8044 21.0699 34.8044C20.6554 34.908 20.3446 35.1152 19.9301 35.2188H19.8265C19.7229 35.2188 19.7229 35.3225 19.6193 35.3225C19.5157 35.4261 19.3084 35.4261 19.2048 35.5297C18.9976 35.6333 18.894 35.6333 18.6868 35.7369C18.4795 35.8405 18.3759 35.8405 18.1687 35.9441C18.1687 35.9441 18.0651 35.9441 18.0651 36.0477C17.547 36.255 17.1326 36.5658 16.6145 36.773C16.4073 36.8767 16.2001 36.9803 16.0964 37.0839C15.8892 37.1875 15.5784 37.3947 15.3712 37.4983C15.1639 38.5345 14.8531 38.6381 14.6459 38.7417ZM29.6697 45.2693C29.6697 45.3729 29.6697 45.3729 29.6697 45.3729C29.6697 45.3729 29.6697 45.3729 29.5661 45.3729H29.4625C29.3589 45.3729 29.3589 45.3729 29.2553 45.3729C29.0481 45.3729 28.8408 45.4765 28.6336 45.3729H28.53C28.4264 45.3729 28.4264 45.3729 28.3228 45.3729H28.2192C28.1155 45.3729 28.1156 45.3729 28.0119 45.3729C27.9083 45.3729 27.8047 45.2693 27.8047 45.1657C27.8047 45.0621 27.8047 44.9585 27.8047 44.8549C27.8047 44.8549 27.8047 44.8549 27.8047 44.7512C27.8047 44.6476 27.8047 44.6476 27.8047 44.6476H27.7011C27.5975 44.6476 27.3903 44.544 27.2866 44.544C27.0794 44.4404 26.9758 44.4404 26.7686 44.3368C26.665 44.3368 26.5614 44.2332 26.4577 44.1296C26.4577 44.1296 26.4577 44.1296 26.4577 44.0259C26.4577 43.9223 26.4577 43.8187 26.4577 43.8187C26.4577 43.7151 26.4577 43.6115 26.4577 43.5079C26.4577 43.4043 26.4577 43.4043 26.4577 43.3007C26.4577 43.0934 26.5614 42.9898 26.5614 42.7826C26.5614 42.679 26.5614 42.679 26.5614 42.5754C26.5614 42.4717 26.5614 42.4717 26.665 42.5754H26.7686C26.7686 42.5754 26.8722 42.5754 26.8722 42.679C26.9758 42.7826 27.0794 42.7826 27.183 42.8862C27.2866 42.9898 27.3903 42.9898 27.4939 42.9898C27.7011 42.9898 27.9083 43.0934 28.1155 43.0934H28.2192C28.2192 43.0934 28.3228 43.0934 28.3228 43.197C28.3228 43.197 28.3228 43.197 28.4264 43.197C28.53 43.197 28.6336 43.197 28.7372 43.197H28.8408C28.9445 43.197 28.9445 43.197 29.0481 43.197H29.1517C29.2553 43.197 29.2553 43.0934 29.3589 42.9898C29.3589 42.9898 29.3589 42.9898 29.3589 42.8862C29.4625 42.7826 29.4625 42.7826 29.4625 42.679C29.4625 42.679 29.4625 42.5754 29.3589 42.5754C29.3589 42.5754 29.3589 42.5754 29.3589 42.4718C29.3589 42.3681 29.2553 42.3681 29.2553 42.2645C29.2553 42.2645 29.1517 42.1609 29.0481 42.1609C28.6336 41.9537 28.2192 41.8501 27.8047 41.6428C27.7011 41.6428 27.7011 41.5392 27.5975 41.5392C27.4939 41.4356 27.2866 41.4356 27.2866 41.332C27.183 41.332 27.183 41.2284 27.183 41.2284C27.183 41.2284 27.0794 41.2284 27.0794 41.1248C26.8722 40.9176 26.7686 40.6067 26.665 40.3995C26.665 40.2959 26.665 40.2959 26.665 40.1923V40.0887V39.985C26.665 39.985 26.665 39.985 26.665 39.8814V39.7778V39.6742C26.665 39.5706 26.665 39.467 26.665 39.3634C26.665 39.2598 26.665 39.1561 26.7686 39.0525C26.7686 38.9489 26.8722 38.8453 26.8722 38.8453C26.8722 38.7417 26.9758 38.7417 26.9758 38.6381C27.0794 38.5345 27.183 38.4308 27.183 38.3272C27.183 38.3272 27.183 38.3272 27.2866 38.2236C27.3903 38.2236 27.3903 38.12 27.3903 38.0164C27.3903 38.0164 27.3903 38.0164 27.3903 37.9128C27.4939 37.8092 27.5975 37.9128 27.7011 37.8092H27.8047L27.9083 37.7056C27.9083 37.4983 27.9083 37.2911 27.8047 37.1875V37.0839C27.8047 37.0839 27.8047 37.0839 27.9083 37.0839C28.0119 37.0839 28.0119 37.0839 28.1155 37.0839C28.2192 37.0839 28.2192 37.0839 28.3228 37.0839C28.3228 37.0839 28.3228 37.0839 28.4264 37.0839C28.6336 37.0839 28.7372 37.0839 28.9445 37.0839C29.0481 37.0839 29.2553 37.0839 29.3589 37.1875L29.4625 37.2911C29.4625 37.3947 29.4625 37.3947 29.4625 37.4983C29.4625 37.6019 29.4625 37.7056 29.4625 37.8092C29.5661 37.8092 29.6697 37.8092 29.6697 37.9128C29.7734 38.0164 29.877 38.0164 29.9806 38.0164C30.1878 38.12 30.2914 38.12 30.4986 38.12C30.7059 38.2236 30.7059 38.2236 30.7059 38.3272C30.7059 38.3272 30.7059 38.3272 30.7059 38.4308V38.5345C30.7059 38.7417 30.6023 38.8453 30.6023 39.0525C30.6023 39.1561 30.6023 39.1561 30.6023 39.2598C30.6023 39.3634 30.6023 39.467 30.6023 39.467C30.6023 39.5706 30.6023 39.5706 30.4986 39.5706C30.2914 39.467 30.1878 39.467 29.9806 39.3634C29.5661 39.1561 29.1517 39.1561 28.6336 39.1561C28.6336 39.1561 28.6336 39.1561 28.53 39.1561C28.4264 39.1561 28.3228 39.2598 28.3228 39.2598C28.3228 39.2598 28.3228 39.2598 28.2192 39.2598C28.0119 39.467 28.0119 39.7778 28.3228 39.985C28.4264 40.0887 28.6336 40.1923 28.8408 40.2959C28.9445 40.2959 29.1517 40.3995 29.2553 40.3995C29.3589 40.3995 29.4625 40.5031 29.5661 40.5031C29.6697 40.6067 29.877 40.6067 29.9806 40.7103C29.9806 40.7103 30.0842 40.7103 30.0842 40.8139H30.1878C30.2914 40.8139 30.2914 40.8139 30.395 40.9176C30.4986 40.9176 30.4986 41.0212 30.4986 41.1248C30.4986 41.1248 30.4986 41.1248 30.6023 41.2284C30.6023 41.2284 30.6023 41.2284 30.6023 41.332C30.7059 41.4356 30.8095 41.5392 30.8095 41.5392C30.8095 41.6428 30.9131 41.6428 30.9131 41.7465C31.0167 41.8501 31.0167 41.9537 31.0167 42.0573V42.1609C31.0167 42.2645 31.1203 42.3681 31.1203 42.3681C31.1203 42.3681 31.1203 42.3681 31.1203 42.4718V42.5754C31.1203 42.679 31.1203 42.679 31.1203 42.7826V42.8862C31.1203 42.9898 31.0167 43.0934 31.0167 43.197C31.0167 43.3007 30.9131 43.4043 30.9131 43.5079C30.9131 43.6115 30.8095 43.7151 30.7059 43.8187C30.7059 43.8187 30.6023 43.9223 30.6023 44.0259C30.6023 44.0259 30.6023 44.1296 30.4986 44.1296C30.4986 44.2332 30.395 44.2332 30.395 44.3368C30.4986 44.2332 30.395 44.3368 30.2914 44.3368C30.2914 44.3368 30.1878 44.3368 30.1878 44.4404C30.0842 44.544 29.877 44.6476 29.7734 44.6476C29.7734 44.6476 29.6697 44.6476 29.6697 44.7512C29.6697 44.7512 29.6697 44.7512 29.6697 44.8549C29.6697 44.9585 29.6697 45.1657 29.6697 45.2693ZM66.8668 51.7969C66.556 51.9005 66.3487 51.9005 66.1415 51.9005C66.0379 51.9005 65.9343 51.9005 65.8307 51.9005C65.7271 51.9005 65.6235 51.9005 65.5198 51.9005C65.4162 51.9005 65.3126 51.9005 65.209 51.9005C65.1054 51.9005 65.1054 51.9005 65.0018 51.9005H64.8982C64.7945 51.9005 64.6909 51.9005 64.5873 51.9005C64.4837 51.9005 64.2765 51.9005 64.1729 51.9005H64.0693C64.0693 51.9005 64.0693 51.9005 63.9656 51.9005H63.862H63.7584C63.6548 51.9005 63.5512 51.9005 63.4476 51.9005C63.344 51.9005 63.2404 51.9005 63.1367 51.9005C62.8259 51.9005 62.5151 51.9005 62.2042 52.0041C61.7898 52.1078 61.3753 52.1078 60.9609 52.2114C60.7536 52.2114 60.5464 52.315 60.3392 52.315C60.132 52.315 59.8211 52.4186 59.6139 52.4186C59.3031 52.4186 58.8886 52.5222 58.5778 52.6258C58.4742 52.6258 58.3705 52.6258 58.3705 52.6258C58.2669 52.6258 58.1633 52.6258 58.0597 52.6258C57.6453 52.7294 57.2308 52.7294 56.8163 52.833C56.4019 52.833 56.0911 52.9367 55.7802 53.0403C55.2621 53.1439 54.7441 53.2475 54.226 53.4547C54.1224 53.4547 54.1224 53.4547 54.1224 53.4547C54.1224 53.4547 54.1224 53.4547 54.1224 53.5583C54.1224 53.5583 54.1224 53.5583 54.1224 53.662C54.226 53.9728 54.3296 54.2836 54.3296 54.6981C54.3296 55.0089 54.4333 55.3198 54.4333 55.6306C54.4333 55.8378 54.4333 56.0451 54.4333 56.2523C54.4333 56.5631 54.4333 56.7703 54.4333 57.0812V57.1848C54.3296 57.2884 54.226 57.392 54.1224 57.5992C54.0188 57.5992 53.9152 57.7029 53.9152 57.7029L53.8116 57.8065C53.6043 58.0137 53.5007 58.2209 53.2935 58.3245C53.1899 58.4282 53.0863 58.5318 52.9827 58.5318L52.8791 58.6354C52.7754 58.739 52.6718 58.8426 52.4646 59.0498C52.1538 59.2571 51.9465 59.5679 51.6357 59.7751C51.5321 59.8787 51.4285 59.8787 51.4285 59.9823C51.3249 60.086 51.2212 60.1896 51.014 60.2932C50.9104 60.5004 50.8068 60.5004 50.7032 60.604C50.7032 60.604 50.5996 60.604 50.5996 60.7076C50.496 60.8113 50.3923 60.8112 50.2887 60.9149C50.1851 60.9149 50.0815 61.0185 49.9779 61.1221C49.667 61.3293 49.4598 61.5365 49.149 61.7438C48.6309 62.0546 48.1129 62.3654 47.5948 62.6763C47.2839 62.8835 46.8695 62.9871 46.5587 63.1944C46.2478 63.298 46.0406 63.4016 45.7298 63.6088C45.6261 63.6088 45.6261 63.6088 45.6261 63.7124C45.6261 63.7124 45.6261 63.7124 45.5225 63.7124C45.3153 63.816 45.0045 63.9196 44.7972 63.9196C44.6936 63.9196 44.59 63.9196 44.4864 64.0233H44.3828H44.2792H44.1756H44.0719C43.8647 64.0233 43.7611 64.1269 43.5539 64.1269C43.3467 64.1269 43.1394 64.2305 43.0358 64.2305C42.9322 64.2305 42.725 64.2305 42.6214 64.3341C42.5177 64.3341 42.5178 64.3341 42.4141 64.3341C42.3105 64.3341 42.2069 64.3341 42.1033 64.3341C41.8961 64.3341 41.6889 64.3341 41.4816 64.3341C41.378 64.3341 41.2744 64.3341 41.2744 64.3341C41.2744 64.3341 41.2744 64.3341 41.1708 64.3341C40.9636 64.3341 40.7563 64.2305 40.5491 64.2305C40.3419 64.2305 40.1347 64.2305 39.9274 64.2305C39.8238 64.2305 39.8238 64.2305 39.7202 64.2305C39.513 64.2305 39.4094 64.1269 39.2021 64.1269C39.0985 64.1269 38.9949 64.0233 38.8913 64.0233C38.7877 64.0233 38.7877 64.0233 38.6841 64.0233C38.5805 64.0233 38.4768 64.0233 38.3732 64.0233C38.2696 64.0233 38.166 64.0233 38.166 63.9196C38.0624 63.9196 37.9588 63.816 37.8552 63.816C37.6479 63.7124 37.4407 63.7124 37.3371 63.6088C37.1299 63.5052 36.9226 63.5052 36.7154 63.4016C36.7154 63.4016 36.6118 63.4016 36.5082 63.298C36.1974 63.1943 35.8865 62.9871 35.5757 62.8835C34.7468 62.4691 33.8143 62.0546 32.9854 61.5365C32.8817 61.4329 32.7781 61.4329 32.6745 61.3293C32.0528 60.8113 31.3276 60.3968 30.7059 59.7751C30.6023 59.6715 30.4986 59.5679 30.395 59.5679C30.2914 59.4643 30.2914 59.4643 30.1878 59.3607C29.877 59.1534 29.5661 58.8426 29.3589 58.5318C29.0481 58.2209 28.7372 58.0137 28.53 57.7029C28.3228 57.4956 28.1156 57.2884 27.9083 57.0812C27.8047 56.9776 27.8047 56.874 27.8047 56.7703C27.8047 56.7703 27.8047 56.7703 27.8047 56.6667C27.8047 56.3559 27.8047 56.0451 27.8047 55.7342C27.8047 55.6306 27.8047 55.6306 27.8047 55.527C27.8047 55.4234 27.8047 55.3198 27.8047 55.2161V55.1125V55.0089C27.8047 54.9053 27.8047 54.8017 27.8047 54.6981C27.8047 54.5945 27.8047 54.3872 27.9083 54.2836C27.9083 54.18 28.0119 53.9728 28.0119 53.8692C28.0119 53.7656 28.0119 53.7656 28.0119 53.662V53.5583C28.0119 53.4547 27.9083 53.4547 27.8047 53.4547C27.5975 53.4547 27.2866 53.3511 27.0794 53.3511C26.8722 53.2475 26.5614 53.2475 26.2505 53.1439C25.7325 53.0403 25.2144 52.9367 24.6963 52.833C24.5927 52.833 24.4891 52.833 24.3855 52.7294C24.2819 52.7294 24.0746 52.7294 23.971 52.6258C23.8674 52.6258 23.6602 52.6258 23.5566 52.5222C23.453 52.5222 23.2457 52.5222 23.1421 52.5222C22.8313 52.5222 22.4168 52.4186 22.106 52.315C22.0024 52.315 21.8988 52.315 21.7952 52.315C21.6915 52.315 21.5879 52.315 21.5879 52.315C21.3807 52.315 21.1735 52.2114 20.9663 52.2114C20.759 52.2114 20.5518 52.1078 20.3446 52.1078C20.1373 52.1078 19.9301 52.1078 19.7229 52.0041C19.5157 52.0041 19.3084 52.0041 18.9976 51.9005C18.7904 51.9005 18.5832 51.7969 18.2723 51.7969C18.0651 51.7969 17.8579 51.7969 17.6506 51.6933C17.547 51.6933 17.4434 51.6933 17.3398 51.6933C17.2362 51.6933 17.1326 51.6933 17.029 51.6933C16.9253 51.6933 16.7181 51.6933 16.6145 51.5897C16.4073 51.5897 16.3037 51.5897 16.0964 51.4861C15.9928 51.4861 15.8892 51.4861 15.7856 51.4861C15.682 51.4861 15.682 51.4861 15.5784 51.4861C15.5784 51.4861 15.4748 51.4861 15.4748 51.3825H15.5784C15.5784 51.3825 15.5784 51.3825 15.682 51.3825C16.2001 51.3825 16.6145 51.3825 17.1326 51.3825C17.3398 51.3825 17.4434 51.3825 17.6506 51.3825C17.8579 51.3825 18.0651 51.3825 18.2723 51.3825C18.3759 51.3825 18.4795 51.3825 18.4795 51.3825C18.5832 51.3825 18.6868 51.3825 18.6868 51.3825H18.7904H18.894C19.1012 51.3825 19.3084 51.3825 19.5157 51.3825C19.6193 51.3825 19.8265 51.3825 19.9301 51.3825C20.0337 51.3825 20.0337 51.3825 20.1374 51.3825H20.241C20.6554 51.3825 21.0699 51.3825 21.4843 51.4861C21.6915 51.4861 21.8988 51.4861 22.0024 51.5897C22.2096 51.5897 22.4168 51.6933 22.7277 51.6933C22.7277 51.6933 22.7277 51.6933 22.8313 51.6933H22.9349C23.0385 51.6933 23.1421 51.6933 23.2457 51.6933C23.3494 51.6933 23.453 51.6933 23.5566 51.6933C23.6602 51.6933 23.7638 51.6933 23.8674 51.6933C24.1783 51.6933 24.5927 51.6933 24.9035 51.7969C25.0072 51.7969 25.2144 51.7969 25.318 51.7969H25.4216H25.5252C25.9397 51.9005 26.3541 51.9005 26.7686 52.0041C27.0794 52.0041 27.2866 52.1078 27.5975 52.1078H27.7011H27.8047C27.9083 52.1078 27.9083 52.1078 28.0119 51.9005C28.0119 51.7969 28.0119 51.7969 27.9083 51.7969C27.8047 51.6933 27.7011 51.6933 27.5975 51.5897C27.4939 51.4861 27.3903 51.4861 27.2866 51.3825C26.665 51.0716 26.1469 50.8644 25.5252 50.5536C25.2144 50.45 24.9035 50.2427 24.5927 50.1391C24.1783 49.9319 23.7638 49.8283 23.453 49.621H23.3494H23.2457C23.2457 49.621 23.2457 49.621 23.1421 49.621H23.0385C22.9349 49.621 22.9349 49.621 22.8313 49.5174C22.7277 49.5174 22.7277 49.4138 22.6241 49.4138C22.5204 49.4138 22.4168 49.3102 22.3132 49.3102C22.2096 49.3102 22.2096 49.3102 22.106 49.2066C22.0024 49.103 21.7952 48.9994 21.6915 48.9994C21.2771 48.7921 20.8626 48.5849 20.3446 48.4813C20.1373 48.3777 20.0337 48.3777 19.8265 48.2741C19.5157 48.1705 19.3084 48.0669 18.9976 47.9632C18.5832 47.8596 18.1687 47.6524 17.8579 47.5488C17.6506 47.4452 17.4434 47.4452 17.2362 47.3416C17.029 47.2379 16.7181 47.1343 16.5109 47.1343C16.5109 47.1343 16.5109 47.1343 16.6145 47.1343C16.7181 47.1343 16.8217 47.1343 16.9253 47.2379C17.1326 47.3416 17.4434 47.3416 17.6506 47.3416H17.7542C18.894 47.6524 20.1374 47.9632 21.2771 48.2741C21.4843 48.3777 21.7952 48.3777 22.0024 48.4813C22.106 48.4813 22.2096 48.5849 22.3132 48.5849H22.4168C22.5204 48.5849 22.5204 48.5849 22.6241 48.6885C22.7277 48.6885 22.8313 48.7921 22.9349 48.7921C23.1421 48.8958 23.453 48.9994 23.6602 49.103C24.0746 49.2066 24.3855 49.4138 24.6963 49.5174C25.1108 49.7247 25.5252 49.8283 25.9397 50.0355C26.4577 50.2427 26.8722 50.45 27.3903 50.6572C27.7011 50.7608 28.0119 50.968 28.3228 51.0716C28.53 51.1752 28.53 51.1752 28.6336 51.0716C28.6336 51.0716 28.6336 50.968 28.7372 50.968C28.7372 50.968 28.7372 50.8644 28.8408 50.8644C28.8408 50.8644 28.8408 50.8644 28.9445 50.7608C28.9445 50.7608 28.9445 50.7608 28.8408 50.6572C28.7372 50.5536 28.6336 50.5536 28.53 50.45C28.3228 50.2427 28.0119 50.0355 27.8047 49.8283C27.4939 49.621 27.183 49.4138 26.8722 49.103C26.7686 48.9994 26.7686 48.9994 26.665 48.8958C26.5614 48.7921 26.4577 48.6885 26.3541 48.6885C25.318 48.0669 24.3855 47.3416 23.3494 46.7199C23.1421 46.6163 22.9349 46.5127 22.7277 46.3054C22.5204 46.2018 22.4168 46.0982 22.2096 45.9946C22.106 45.891 21.8988 45.7874 21.7952 45.6838C21.5879 45.5801 21.2771 45.3729 21.0699 45.2693C20.6554 45.0621 20.3446 44.8549 19.9301 44.6476C19.3084 44.2332 18.6868 43.9223 18.0651 43.6115C18.0651 43.6115 18.0651 43.6115 17.9615 43.6115C17.9615 43.6115 17.8579 43.6115 17.8579 43.5079H17.7542C17.7542 43.5079 17.7542 43.5079 17.8579 43.5079H17.9615C17.9615 43.5079 17.9615 43.5079 18.0651 43.5079C18.3759 43.6115 18.5832 43.7151 18.894 43.8187C19.3084 44.0259 19.7229 44.1296 20.1374 44.3368C20.6554 44.544 21.1735 44.8549 21.6915 45.0621C22.0024 45.2693 22.3132 45.3729 22.6241 45.5801C23.0385 45.7874 23.453 45.9946 23.8674 46.3054L23.971 46.409C24.3855 46.6163 24.7999 46.9271 25.318 47.2379C25.5252 47.3416 25.7325 47.4452 25.9397 47.6524C26.0433 47.756 26.2505 47.8596 26.3541 47.8596C26.5614 47.9632 26.8722 48.1705 27.0794 48.2741C27.3903 48.4813 27.7011 48.5849 27.9083 48.8958L28.0119 48.9994C28.3228 49.2066 28.6336 49.4138 28.8408 49.621C29.0481 49.7247 29.2553 49.9319 29.4625 50.0355C29.5661 50.1391 29.5661 50.1391 29.6697 50.0355C29.7734 49.9319 29.9806 49.8283 30.0842 49.7247C30.8095 49.103 31.742 48.6885 32.6745 48.4813C33.2962 48.3777 33.9179 48.3777 34.4359 48.4813C34.6432 48.4813 34.7468 48.5849 34.954 48.5849C35.1612 48.6885 35.2648 48.6885 35.4721 48.7921C35.7829 48.9994 35.9901 49.103 36.301 49.3102C36.4046 49.4138 36.6118 49.5174 36.7154 49.621C36.819 49.7247 36.9227 49.7247 37.0263 49.8283C37.1299 49.9319 37.3371 50.0355 37.3371 50.2427C37.4407 50.3463 37.4407 50.3463 37.5443 50.45L37.6479 50.5536C37.6479 50.5536 37.6479 50.5536 37.6479 50.6572C37.5443 50.7608 37.5443 50.7608 37.4407 50.8644C37.1299 51.3825 36.7154 52.315 36.6118 53.1439V53.2475C36.6118 53.3511 36.6118 53.3511 36.6118 53.4547C36.6118 53.5583 36.6118 53.7656 36.6118 53.8692C36.9227 55.1125 38.5805 57.1848 39.2021 57.4956C39.9274 57.8065 40.7563 58.8426 41.1708 58.8426C41.1708 58.8426 42.1033 58.1173 42.4141 57.8065C42.725 57.4956 43.8647 56.1487 43.8647 56.1487L44.9009 54.6981C44.9009 54.4909 45.0045 54.3872 45.1081 54.18C45.2117 53.8692 45.4189 53.3511 45.4189 52.9367C45.4189 52.5222 45.4189 52.1078 45.3153 51.7969C45.2117 51.4861 45.1081 51.2789 44.7972 50.968C44.4864 50.6572 44.2792 50.45 44.1756 50.3463C44.1756 50.2427 44.0719 50.2427 44.1756 50.2427C44.1756 50.2427 44.1756 50.2427 44.2792 50.2427C44.2792 50.2427 44.2792 50.2427 44.3828 50.2427C44.6936 49.8283 45.1081 49.5174 45.6261 49.2066C45.7298 49.103 45.8334 49.103 45.937 48.9994C46.3514 48.7921 46.7659 48.5849 47.1803 48.4813C47.3876 48.4813 47.5948 48.3777 47.6984 48.3777C48.2165 48.2741 48.7345 48.3777 49.2526 48.4813C49.3562 48.4813 49.4598 48.5849 49.5634 48.5849C49.7707 48.6885 49.9779 48.6885 50.1851 48.7921C50.2887 48.7921 50.2887 48.8958 50.3923 48.8958C50.7032 48.9994 50.9104 49.103 51.2212 49.3102C51.3249 49.4138 51.4285 49.4138 51.6357 49.5174L51.7393 49.621C51.8429 49.7247 51.9465 49.7247 51.9465 49.8283C52.0502 49.9319 52.0501 49.9319 52.1538 49.8283L52.2574 49.7247C52.361 49.621 52.5682 49.5174 52.6718 49.5174L52.7754 49.4138L52.8791 49.3102C52.9827 49.2066 53.0863 49.2066 53.1899 49.103C53.3971 48.8958 53.708 48.7921 53.9152 48.5849L54.0188 48.4813C54.1224 48.4813 54.1224 48.3777 54.226 48.3777C54.3296 48.3777 54.3296 48.2741 54.4333 48.2741L54.5369 48.1705C54.6405 48.0669 54.7441 48.0669 54.8477 47.9632C55.1585 47.756 55.4694 47.5488 55.8838 47.3416C55.9874 47.2379 56.0911 47.238 56.1947 47.1343C56.4019 47.0307 56.6091 46.9271 56.8163 46.7199C57.6453 46.2018 58.3705 45.7874 59.1994 45.3729C59.5103 45.1657 59.9247 45.0621 60.2356 44.8549C60.3392 44.7512 60.4428 44.7512 60.5464 44.6476C60.65 44.544 60.8573 44.544 60.9609 44.4404C61.1681 44.3368 61.3753 44.2332 61.5825 44.1296C61.997 43.9223 62.4114 43.7151 62.8259 43.6115C62.8259 43.6115 62.9295 43.6115 62.9295 43.5079C63.0331 43.4043 63.1367 43.4043 63.344 43.3007C63.4476 43.3007 63.4476 43.197 63.5512 43.197C63.7584 43.0934 63.9656 43.0934 64.1729 42.9898C64.3801 42.8862 64.4837 42.8862 64.6909 42.7826C64.6909 42.7826 64.6909 42.7826 64.7945 42.7826C64.7945 42.7826 64.7945 42.7826 64.8982 42.7826C64.5873 42.9898 64.2765 43.0934 63.9656 43.3007C63.7584 43.4043 63.4476 43.6115 63.2404 43.7151C63.2404 43.7151 63.2404 43.7151 63.1367 43.7151C63.1367 43.7151 63.0331 43.7151 63.0331 43.8187C62.9295 43.9223 62.8259 43.9223 62.7223 44.0259C62.7223 44.0259 62.6187 44.0259 62.6187 44.1296C62.5151 44.1296 62.4114 44.2332 62.3078 44.3368L62.2042 44.4404L62.1006 44.544C62.1006 44.544 61.997 44.544 61.997 44.6476C61.7898 44.7512 61.4789 44.9585 61.2717 45.0621C61.0645 45.1657 60.7536 45.3729 60.5464 45.4765C60.2356 45.6838 60.0284 45.7874 59.7175 45.9946C59.7175 45.9946 59.6139 45.9946 59.6139 46.0982C59.6139 46.0982 59.6139 46.0982 59.5103 46.0982L59.4067 46.2018C59.3031 46.2018 59.3031 46.3054 59.1994 46.3054C58.9922 46.409 58.785 46.5127 58.5778 46.6163C58.2669 46.7199 58.0597 46.9271 57.8525 47.0307C56.8163 47.6524 55.8838 48.3777 54.8477 49.103C54.7441 49.2066 54.6405 49.2066 54.6405 49.3102C54.5369 49.4138 54.4333 49.4138 54.3296 49.5174C54.1224 49.7247 53.9152 49.8283 53.708 50.0355C53.6043 50.1391 53.5007 50.1391 53.3971 50.2427C53.2935 50.2427 53.2935 50.3463 53.1899 50.3463L53.0863 50.45C52.9827 50.45 52.9827 50.5536 52.8791 50.5536C52.7754 50.5536 52.7754 50.6572 52.8791 50.6572C52.8791 50.7608 52.9827 50.7608 52.9827 50.8644C52.9827 50.8644 52.9827 50.968 53.0863 50.968C53.1899 50.968 53.2935 50.968 53.2935 50.8644C53.2935 50.8644 53.2935 50.8644 53.3971 50.8644C53.708 50.7608 54.0188 50.5536 54.226 50.45C54.5369 50.2427 54.9513 50.1391 55.2622 49.9319C55.573 49.8283 55.8838 49.7247 56.0911 49.5174C56.4019 49.4138 56.6091 49.3102 56.92 49.2066C57.5416 48.9994 58.2669 48.6885 58.8886 48.4813C59.7175 48.1705 60.65 47.9632 61.5825 47.6524C61.8934 47.5488 62.1006 47.5488 62.4114 47.4452C62.7223 47.3416 63.0331 47.2379 63.344 47.2379C63.6548 47.1343 63.9656 47.1343 64.2765 47.0307C64.6909 46.9271 65.0018 46.9271 65.4162 46.8235H65.5198C65.6235 46.8235 65.8307 46.8235 65.9343 46.8235C66.0379 46.8235 66.2451 46.8235 66.3487 46.7199C66.3487 46.7199 66.2451 46.7199 66.2451 46.8235C66.2451 46.8235 66.1415 46.8235 66.1415 46.9271C66.0379 46.9271 65.9343 47.0307 65.8307 47.0307C65.7271 47.0307 65.6235 47.1343 65.5198 47.1343C65.4162 47.1343 65.3126 47.2379 65.209 47.2379C64.6909 47.4452 64.0693 47.6524 63.5512 47.756C63.2404 47.8596 62.9295 47.9632 62.6187 48.0669C62.3078 48.1705 62.1006 48.2741 61.7898 48.3777C61.6862 48.4813 61.4789 48.4813 61.3753 48.5849C61.1681 48.6885 61.0645 48.7921 60.8573 48.7921C60.65 48.8958 60.4428 48.9994 60.132 49.103C60.0284 49.103 59.9247 49.2066 59.9247 49.2066C59.8211 49.2066 59.8211 49.2066 59.7175 49.3102C59.5103 49.4138 59.3031 49.4138 59.0958 49.5174C58.8886 49.621 58.6814 49.621 58.4742 49.7247C57.9561 49.9319 57.438 50.1391 57.0236 50.3463C56.8163 50.45 56.5055 50.5536 56.2983 50.6572C56.0911 50.7608 55.8838 50.8644 55.7802 50.968C55.3658 51.1752 55.0549 51.2789 54.6405 51.4861C54.3296 51.5897 54.0188 51.7969 53.708 51.9005C53.708 51.9005 53.708 51.9005 53.708 52.0041C53.708 52.0041 53.708 52.1078 53.8116 52.1078H53.9152H54.0188C54.226 52.1078 54.4333 52.0041 54.6405 52.0041C54.8477 52.0041 55.0549 51.9005 55.3658 51.9005C55.7802 51.7969 56.0911 51.7969 56.5055 51.6933C56.6091 51.6933 56.8163 51.6933 56.92 51.5897C57.1272 51.5897 57.3344 51.4861 57.5416 51.4861C57.7489 51.4861 58.0597 51.3825 58.2669 51.3825C58.3705 51.3825 58.3705 51.3825 58.4742 51.3825C58.5778 51.3825 58.785 51.3825 58.8886 51.3825H58.9922C59.0958 51.3825 59.1994 51.3825 59.3031 51.3825C59.4067 51.3825 59.4067 51.3825 59.5103 51.3825C59.6139 51.3825 59.6139 51.3825 59.7175 51.3825C59.7175 51.3825 59.8211 51.3825 59.8211 51.2789C59.8211 51.2789 59.8211 51.2789 59.9247 51.2789C59.9247 51.2789 59.9247 51.2789 60.0283 51.2789C60.132 51.2789 60.2356 51.2789 60.2356 51.2789C60.3392 51.2789 60.3392 51.2789 60.4428 51.2789C60.5464 51.2789 60.65 51.2789 60.65 51.2789C60.8573 51.2789 61.1681 51.2789 61.3753 51.1752C61.3753 51.1752 61.3753 51.1752 61.2717 51.1752C61.4789 51.1752 61.6862 51.0716 61.8934 51.0716C62.1006 51.0716 62.4114 51.0716 62.6187 51.0716C62.7223 51.0716 62.8259 51.0716 62.9295 50.968H63.0331H63.1367C63.6548 50.968 64.2765 50.968 64.7945 50.968C65.0018 50.968 65.1054 50.968 65.3126 50.968C65.4162 50.968 65.4162 50.968 65.5198 50.968C65.7271 50.968 65.9343 50.968 66.1415 50.968C66.6596 51.6933 66.7632 51.6933 66.8668 51.7969ZM53.0863 42.3681C53.0863 42.2645 53.0863 42.2645 53.0863 42.3681C52.9827 42.2645 52.9827 42.2645 52.8791 42.1609L52.7754 42.0573C52.5682 41.9537 52.361 41.8501 52.0502 41.7465C52.0502 41.7465 52.0502 41.7465 51.9465 41.7465C51.8429 41.7465 51.8429 41.7465 51.7393 41.7465C51.6357 41.7465 51.6357 41.6428 51.5321 41.5392C51.4285 41.5392 51.3249 41.4356 51.3249 41.4356C51.2212 41.332 51.1176 41.332 51.014 41.2284C50.9104 41.2284 50.8068 41.1248 50.8068 41.0212C50.7032 40.9176 50.5996 40.8139 50.5996 40.7103V40.6067C50.5996 40.5031 50.496 40.3995 50.496 40.2959C50.496 40.1923 50.3923 40.1923 50.3923 40.0887C50.3923 39.985 50.3923 39.985 50.3923 39.8814C50.3923 39.7778 50.3923 39.6742 50.3923 39.467V39.3634C50.3923 39.2598 50.3923 39.1561 50.3923 39.0525C50.3923 38.9489 50.496 38.7417 50.5996 38.6381C50.5996 38.6381 50.5996 38.6381 50.5996 38.5345C50.5996 38.5345 50.5996 38.5345 50.5996 38.4308C50.7032 38.3272 50.9104 38.12 51.014 38.0164C51.1176 37.9128 51.2212 37.8092 51.4285 37.8092C51.4285 37.8092 51.5321 37.8092 51.5321 37.7056C51.5321 37.7056 51.6357 37.7056 51.6357 37.6019V37.4983C51.6357 37.3947 51.6357 37.1875 51.6357 37.0839V36.9803C51.6357 36.9803 51.7393 36.9803 51.7393 36.8766C51.8429 36.8766 51.8429 36.773 51.9465 36.8766C51.9465 36.8766 51.9465 36.8766 52.0502 36.8766H52.1538C52.361 36.8766 52.6718 36.8766 52.8791 36.8766H52.9827C52.9827 36.8766 52.9827 36.8766 53.0863 36.8766C53.0863 36.8766 53.0863 36.8766 53.1899 36.8766C53.1899 36.8766 53.1899 36.8767 53.1899 36.9803C53.1899 37.0839 53.1899 37.1875 53.1899 37.2911C53.1899 37.2911 53.1899 37.2911 53.1899 37.3947C53.1899 37.4983 53.1899 37.6019 53.3971 37.6019C53.5007 37.6019 53.5007 37.6019 53.5007 37.6019C53.708 37.6019 53.8116 37.7056 54.0188 37.8092C54.1224 37.8092 54.226 37.9128 54.4333 37.9128H54.5369C54.5369 37.9128 54.5369 37.9128 54.5369 38.0164C54.5369 38.2236 54.5369 38.3272 54.5369 38.5345C54.5369 38.7417 54.4333 39.0525 54.4333 39.2598C54.4333 39.3634 54.4333 39.3634 54.4333 39.467C54.4333 39.467 54.3296 39.467 54.3296 39.3634C54.3296 39.3634 54.3296 39.2598 54.226 39.2598C54.1224 39.2598 54.0188 39.1561 54.0188 39.1561C53.9152 39.1561 53.708 39.0525 53.6043 39.0525C53.6043 39.0525 53.6043 39.0525 53.5007 39.0525H53.3971C53.2935 38.9489 53.1899 38.9489 53.0863 38.9489C52.9827 38.9489 52.9827 38.9489 52.8791 38.9489C52.6718 39.0525 52.5682 38.9489 52.361 39.0525H52.2574C52.0501 39.2598 52.0501 39.5706 52.2574 39.6742L52.361 39.7778C52.4646 39.8814 52.5682 39.985 52.7754 39.985C52.7754 39.985 52.7754 39.985 52.8791 39.985H52.9827C53.0863 39.985 53.0863 39.985 53.1899 39.985C53.2935 39.985 53.2935 40.0887 53.3971 40.0887C53.3971 40.0887 53.3971 40.0887 53.5007 40.0887C53.5007 40.0887 53.6043 40.0887 53.6043 40.1923C53.8116 40.2959 53.9152 40.3995 54.1224 40.5031C54.226 40.6067 54.3296 40.7103 54.4333 40.8139L54.5369 40.9176C54.5369 41.0212 54.6405 41.1248 54.6405 41.1248L54.7441 41.2284C54.7441 41.2284 54.7441 41.332 54.8477 41.332C54.8477 41.4356 54.9513 41.4356 54.9513 41.5392C54.9513 41.6428 54.9513 41.6428 54.9513 41.7465C54.9513 41.8501 54.9513 42.0573 54.9513 42.1609C54.9513 42.2645 54.9513 42.3681 54.9513 42.3681C54.9513 42.4718 54.8477 42.4717 54.8477 42.5754C54.8477 42.7826 54.7441 42.8862 54.6405 43.0934C54.6405 43.0934 54.6405 43.197 54.5369 43.197V43.3007C54.4332 43.5079 54.3296 43.6115 54.1224 43.7151C54.1224 43.7151 54.0188 43.7151 54.0188 43.8187C53.9152 43.9223 53.9152 44.0259 53.8116 44.0259C53.8116 44.0259 53.8116 44.0259 53.708 44.0259C53.708 44.0259 53.6043 44.0259 53.6043 44.1296C53.6043 44.1296 53.6043 44.1296 53.5007 44.1296C53.3971 44.1296 53.3971 44.2332 53.1899 44.2332C53.1899 44.2332 53.0863 44.2332 53.0863 44.3368C53.0863 44.3368 53.0863 44.3368 53.0863 44.4404C53.0863 44.544 53.0863 44.7512 53.0863 44.8549C53.0863 44.8549 53.0863 44.8548 53.0863 44.9585C53.0863 44.9585 53.0863 44.9585 52.9827 44.9585C52.8791 44.9585 52.6718 44.9585 52.5682 44.9585H52.4646H52.361C52.2574 44.9585 52.1538 44.9585 52.0502 44.9585C52.0502 44.9585 52.0502 44.9585 51.9465 44.9585C51.8429 44.9585 51.8429 44.9585 51.7393 44.9585H51.6357V44.8549C51.6357 44.7512 51.6357 44.544 51.6357 44.4404C51.6357 44.4404 51.5321 44.4404 51.5321 44.3368C51.5321 44.3368 51.5321 44.3368 51.4285 44.3368H51.3249H51.2212C51.2212 44.3368 51.1176 44.3368 51.1176 44.2332L51.014 44.1296H50.9104H50.8068H50.7032C50.7032 44.1296 50.7032 44.1296 50.5996 44.0259C50.5996 44.0259 50.5996 44.0259 50.496 43.9223H50.3923C50.2887 43.9223 50.2887 43.9223 50.2887 43.9223L50.1851 43.8187C50.1851 43.4043 50.2887 42.9898 50.3923 42.5754C50.3923 42.4717 50.3923 42.4718 50.3923 42.4718C50.3923 42.4718 50.3923 42.4718 50.496 42.4718C50.8068 42.679 51.1176 42.7826 51.4285 42.8862C51.5321 42.8862 51.7393 42.9898 51.8429 42.9898C51.8429 42.9898 51.9465 42.9898 52.0502 42.9898C52.0502 42.9898 52.0501 42.9898 52.1538 42.9898C52.2574 42.9898 52.2574 42.9898 52.361 42.9898C52.361 42.9898 52.361 42.9898 52.4646 42.9898C52.5682 42.9898 52.5682 42.9898 52.6718 42.9898H52.7754C52.9827 42.9898 53.0863 42.8862 53.1899 42.7826C53.1899 42.7826 53.2935 42.679 53.2935 42.5754V42.4718C53.1899 42.4718 53.1899 42.3681 53.0863 42.3681ZM59.4067 51.7969C59.4067 51.9005 59.4067 51.9005 59.4067 51.7969C59.3031 51.7969 59.3031 51.9005 59.4067 51.7969C59.3031 51.7969 59.3031 51.7969 59.4067 51.7969ZM70.0788 53.5583C69.9752 53.5583 69.9752 53.5583 69.8716 53.662C69.9752 53.4547 69.9752 53.4547 70.0788 53.5583C70.0788 53.4547 70.0788 53.4547 70.0788 53.5583C70.1824 53.4547 70.1824 53.4547 70.1824 53.4547C70.1824 53.4547 70.0788 53.4547 70.0788 53.5583ZM72.4619 42.4718C72.3583 42.5754 72.3583 42.5754 72.2547 42.679C72.2547 42.679 72.2547 42.679 72.1511 42.679C72.1511 42.679 72.1511 42.7826 72.0475 42.7826L71.9438 42.8862C71.8402 42.8862 71.8402 42.8862 71.7366 42.9898C71.7366 42.9898 71.7366 42.9898 71.633 42.9898H71.5294C71.3222 42.8862 71.2186 42.7826 71.0113 42.679C70.8041 42.5754 70.4933 42.3681 70.286 42.2645C70.0788 42.1609 69.9752 41.9537 69.768 41.8501C69.5607 41.6428 69.3535 41.4356 69.1463 41.2284C69.0427 41.1248 68.8355 41.0212 68.6282 40.9176C68.6282 40.9176 68.5246 40.9176 68.5246 40.8139C68.5246 40.8139 68.5246 40.8139 68.421 40.8139C68.2138 40.7103 68.1102 40.5031 67.9029 40.3995C67.9029 40.3995 67.9029 40.3995 67.7993 40.3995C67.6957 40.3995 67.6957 40.2959 67.6957 40.2959C67.5921 40.1923 67.4885 40.0887 67.3849 40.0887C67.2813 39.985 67.1777 39.985 67.1777 39.8814C67.074 39.7778 66.9704 39.6742 66.8668 39.6742C66.8668 39.6742 66.7632 39.6742 66.7632 39.5706C66.7632 39.5706 66.7632 39.467 66.6596 39.467C66.7632 39.1561 66.6596 39.1561 66.556 39.1561C66.3487 39.0525 66.1415 38.9489 66.0379 38.8453C65.9343 38.7417 65.8307 38.7417 65.7271 38.7417C65.6235 38.7417 65.6235 38.6381 65.5198 38.5345V38.4308C65.5198 38.4308 65.5198 38.4308 65.4162 38.4308C65.209 38.3272 65.1054 38.2236 64.8982 38.12H64.7945C64.5873 38.12 64.4837 38.0164 64.2765 37.8092C64.1729 37.7056 64.0693 37.6019 63.862 37.6019C63.7584 37.6019 63.6548 37.6019 63.6548 37.4983L63.5512 37.3947C63.344 37.2911 63.1367 37.1875 63.0331 37.0839C62.9295 36.9803 62.8259 36.9803 62.7223 36.9803C62.4114 36.8767 62.2042 36.773 61.8934 36.5658C61.6862 36.4622 61.3753 36.3586 61.1681 36.1514C60.9609 36.0477 60.8573 35.9441 60.65 35.8405C60.65 35.8405 60.5464 35.8405 60.5464 35.7369C60.132 35.5297 59.8211 35.3225 59.4067 35.2188C59.3031 35.1152 59.0958 35.1152 58.9922 35.0116C58.785 34.908 58.5778 34.908 58.3705 34.8044H58.2669C58.0597 34.8044 57.9561 34.7008 57.7489 34.7008H57.6453C57.2308 34.5972 56.7127 34.4936 56.2983 34.4936H56.1947C56.0911 34.4936 55.9874 34.4936 55.8838 34.4936H55.7802C55.573 34.4936 55.4694 34.4936 55.2622 34.4936C55.0549 34.4936 54.7441 34.4936 54.5369 34.4936C54.226 34.4936 53.9152 34.4936 53.6043 34.4936C53.5007 34.4936 53.5007 34.4936 53.3971 34.4936C53.2935 34.4936 53.1899 34.4936 52.9827 34.4936C52.7754 34.4936 52.6718 34.4936 52.4646 34.5972C52.2574 34.5972 52.1538 34.5972 51.9465 34.7008C51.8429 34.7008 51.8429 34.7008 51.7393 34.8044C51.5321 34.908 51.3249 34.908 51.1176 35.0116C51.014 35.0116 51.014 35.0116 50.9104 35.1152C50.9104 35.1152 50.9104 35.1152 50.8068 35.1152C50.8068 35.1152 50.8068 35.1152 50.7032 35.2188C50.7032 35.0116 50.5996 35.0116 50.496 35.0116H50.3923C50.2887 35.0116 50.1851 35.1152 50.0815 35.1152C49.7707 35.2188 49.5634 35.4261 49.2526 35.5297C49.2526 35.5297 49.2526 35.5297 49.149 35.5297C49.0454 35.6333 48.9418 35.6333 48.8381 35.7369C48.8381 35.7369 48.8382 35.7369 48.7345 35.8405C48.7345 35.8405 48.7345 35.8405 48.6309 35.8405C48.5273 35.9441 48.5273 35.9441 48.4237 35.9441C48.3201 35.9441 48.3201 36.0477 48.2165 36.0477C48.1129 36.1514 48.0092 36.1514 47.9056 36.255C47.6984 36.4622 47.3876 36.6694 47.1803 36.9803C47.0767 37.0839 47.0767 37.1875 46.9731 37.2911C46.8695 37.4983 46.7659 37.6019 46.7659 37.8092C46.7659 37.9128 46.7659 37.9128 46.7659 37.9128C46.7659 37.9128 46.7659 38.0164 46.6623 38.0164C46.5587 38.12 46.4551 38.2236 46.3514 38.3272C46.2478 38.4308 46.2478 38.4308 46.1442 38.5345L46.0406 38.6381L45.937 38.7417V38.6381V38.5345C45.8334 38.3272 45.8334 38.2236 45.8334 38.0164C45.8334 37.9128 45.8334 37.8092 45.8334 37.7056C45.8334 37.6019 45.8334 37.4983 45.8334 37.3947V37.2911C45.8334 37.0839 45.8334 36.773 45.937 36.5658C46.1442 36.1514 46.3514 35.7369 46.6623 35.4261C46.7659 35.3225 46.7659 35.3225 46.8695 35.2188C46.9731 35.1152 47.0767 34.908 47.284 34.8044C47.3876 34.7008 47.4912 34.5972 47.5948 34.4936C47.6984 34.3899 47.9056 34.1827 48.0092 34.0791C48.0092 34.0791 48.0092 34.0791 48.1129 33.9755C48.2165 33.8719 48.3201 33.7683 48.4237 33.7683C48.5273 33.6646 48.6309 33.561 48.7345 33.561C48.7345 33.561 48.7345 33.561 48.8381 33.4574C48.9418 33.3538 49.149 33.2502 49.2526 33.1466C49.3562 33.1466 49.3562 33.043 49.4598 33.043C49.5634 32.9394 49.667 32.9394 49.7707 32.8357C49.8743 32.8357 49.8743 32.7321 49.9779 32.7321C49.9779 32.7321 50.0815 32.7321 50.0815 32.6285C50.1851 32.4213 50.3923 32.4213 50.5996 32.3177C50.8068 32.2141 51.014 32.1105 51.2212 32.0068C51.4285 31.7996 51.6357 31.7996 51.8429 31.696C52.0502 31.5924 52.1538 31.5924 52.361 31.4888C52.6718 31.3852 52.9827 31.3852 53.2935 31.2815C53.6043 31.1779 53.9152 31.1779 54.3296 31.0743H54.4333C54.5369 31.0743 54.6405 30.9707 54.7441 30.9707C54.8477 31.0743 54.9513 30.9707 55.0549 30.9707C55.1585 30.9707 55.2622 30.9707 55.2622 30.8671C55.3658 30.8671 55.4694 30.7635 55.573 30.8671C55.6766 30.8671 55.6766 30.8671 55.7802 30.8671C56.2983 30.8671 56.8163 30.8671 57.3344 30.8671C57.438 30.8671 57.438 30.8671 57.5416 30.8671C57.7489 30.9707 57.9561 30.9707 58.1633 30.9707C58.3705 30.9707 58.5778 30.9707 58.785 31.0743C58.785 31.0743 58.785 31.0743 58.8886 31.0743H58.9922C59.1994 31.0743 59.4067 31.1779 59.6139 31.1779C59.8211 31.1779 59.9247 31.2815 60.132 31.2815C60.132 31.2815 60.132 31.2815 60.2356 31.2815C60.3392 31.2815 60.3392 31.2815 60.4428 31.2815C60.5464 31.2815 60.5464 31.2815 60.65 31.2815C60.7536 31.2815 60.8573 31.3852 60.8573 31.3852H60.9609H61.0645C61.0645 31.3852 61.0645 31.3852 61.1681 31.3852C61.2717 31.3852 61.3753 31.3852 61.4789 31.4888C61.5825 31.5924 61.6862 31.5924 61.7898 31.5924C61.997 31.5924 62.2042 31.696 62.4114 31.696C62.6187 31.7996 62.9295 31.7996 63.1367 31.9032C63.2404 31.9032 63.4476 32.0068 63.5512 32.0068C63.6548 32.1105 63.862 32.1105 63.9656 32.2141C64.1729 32.3177 64.4837 32.4213 64.6909 32.6285C64.7945 32.7321 64.7945 32.7321 64.8982 32.7321C65.1054 32.8357 65.3126 32.9394 65.6235 33.043C65.7271 33.043 65.7271 33.1466 65.8307 33.1466C65.9343 33.1466 66.0379 33.2502 66.1415 33.2502C66.2451 33.3538 66.2451 33.561 66.3487 33.6646C66.4524 33.7683 66.556 33.8719 66.6596 33.9755C66.7632 34.0791 66.8668 34.2863 66.8668 34.3899C66.9704 34.4936 67.074 34.7008 67.1777 34.8044C67.1777 34.908 67.2813 34.908 67.2813 35.0116C67.2813 35.0116 67.2813 35.1152 67.3849 35.1152C67.4885 35.3225 67.5921 35.5297 67.7993 35.7369C67.7993 35.8405 67.9029 35.8405 67.9029 35.9441C67.9029 35.9441 67.9029 35.9441 68.0066 36.0477C68.1102 36.1514 68.2138 36.3586 68.3174 36.4622C68.3174 36.5658 68.421 36.6694 68.5246 36.773C68.6282 36.773 68.6282 36.8766 68.6282 36.8766C68.6282 36.9803 68.7318 36.9803 68.7318 37.0839C68.9391 37.2911 69.1463 37.6019 69.2499 37.9128C69.2499 38.0164 69.3535 38.0164 69.3535 38.12C69.3535 38.2236 69.4571 38.2236 69.4571 38.3272C69.4571 38.3272 69.4571 38.3272 69.4571 38.4308C69.6644 38.6381 69.768 38.7417 69.8716 39.0525C69.9752 39.2598 70.0788 39.3634 70.1824 39.467C70.3897 39.6742 70.4933 39.8814 70.7005 40.0887C70.8041 40.1923 70.9077 40.2959 71.0113 40.3995C71.1149 40.5031 71.2186 40.6067 71.3222 40.7103C71.4258 40.8139 71.5294 40.8139 71.5294 41.0212C71.5294 41.1248 71.633 41.1248 71.633 41.2284C71.633 41.332 71.7366 41.332 71.7366 41.4356C71.7366 41.5392 71.8402 41.5392 71.8402 41.5392C71.9438 41.5392 71.9438 41.6428 71.9438 41.6428C71.9438 41.6428 71.9438 41.6428 71.9438 41.7465C72.3583 42.1609 72.4619 42.2645 72.4619 42.4718C72.5655 42.3681 72.5655 42.3681 72.4619 42.4718Z" fill="black"/>
<path d="M104.962 14.9966C115.55 14.9966 121.732 18.7061 121.732 26.8978C121.732 31.5347 119.723 34.1622 116.632 36.2488C120.728 38.2581 123.201 41.4266 123.201 46.9908C123.201 54.1007 118.409 59.8194 106.431 59.8194H89.2744V14.9966H104.962ZM100.094 32.0756H104.653C108.981 32.0756 110.913 30.6846 110.913 28.1343C110.913 25.5068 109.522 23.8839 103.649 23.8839H100.094V32.0756ZM100.094 50.8549H105.194C109.986 50.8549 112.304 49.232 112.304 45.9089C112.304 42.2767 109.831 41.0402 104.344 41.0402H100.016V50.8549H100.094Z" fill="black"/>
<path d="M154.654 59.8196H145.071V57.2694C143.757 59.3559 142.289 60.4379 138.271 60.4379C131.933 60.4379 126.292 57.3466 126.292 47.6093V27.3617H136.029V45.8318C136.029 50.2368 137.034 52.1688 140.28 52.1688C143.603 52.1688 144.839 50.3141 144.839 45.8318V27.3617H154.577V59.8196H154.654Z" fill="black"/>
<path d="M158.904 14.9966H168.642V47.0681C168.642 50.5457 170.11 51.4731 172.738 51.4731V59.8194C163.696 59.8194 158.904 57.9647 158.904 49.232V14.9966Z" fill="black"/>
<path d="M175.983 14.9966H185.721V47.0681C185.721 50.5457 187.189 51.4731 189.817 51.4731V59.8194C180.775 59.8194 175.983 57.9647 175.983 49.232V14.9966Z" fill="black"/>
<path d="M193.68 14.9966H204.035V24.1157H193.68V14.9966ZM194.066 27.3615H203.803V59.8194H194.066V27.3615Z" fill="black"/>
<path d="M226.525 37.3311C225.289 35.9401 223.975 35.09 221.038 35.09C219.647 35.09 217.947 35.3218 217.947 36.7901C217.947 37.8721 218.951 38.413 221.965 39.0313C230.853 40.7315 234.176 44.2864 234.176 50.237C234.176 56.7286 229.539 60.5926 221.193 60.5926C214.546 60.5926 210.296 59.2016 207.359 55.183L214.856 49.696C215.938 51.1644 217.251 52.2463 220.961 52.2463C223.125 52.2463 224.438 51.6281 224.438 50.4688C224.438 49.2324 223.356 48.7687 220.265 48.1504C212.924 46.5275 208.209 43.5136 208.209 37.1765C208.209 30.685 212.924 26.8209 221.193 26.8209C226.525 26.8209 231.162 28.0574 233.712 32.2306L226.525 37.3311Z" fill="black"/>
<path d="M237.422 14.9966H247.159V29.5254C248.164 28.2889 250.56 26.666 253.805 26.666C260.142 26.666 265.784 29.5254 265.784 39.4173V59.8194H256.047V41.3493C256.047 37.0216 255.042 35.0123 251.873 35.0123C248.473 35.0123 247.159 37.0989 247.159 41.272V59.8194H237.422V14.9966Z" fill="black"/>
<path d="M309.47 40.6356L315.272 60H307.122L301.972 41.744H293.039L289.518 60H281.955L290.692 15.012H306.014C310.448 15.012 313.925 16.0335 316.446 18.0764C319.011 20.1193 320.293 22.9447 320.293 26.5524C320.293 33.6809 316.685 38.3753 309.47 40.6356ZM296.951 21.5972L294.343 35.224H301.58C305.492 35.224 308.296 34.5937 309.991 33.3332C311.73 32.0292 312.599 29.8993 312.599 26.9436C312.599 25.0311 311.925 23.6619 310.578 22.836C309.231 22.0101 307.101 21.5972 304.188 21.5972H296.951ZM328.529 60H321.553L327.877 27.4H334.854L328.529 60ZM336.223 22.1188H328.595L329.964 15.012H337.592L336.223 22.1188ZM368.104 41.418L367.257 45.8516C366.387 50.5025 364.583 54.132 361.845 56.74C359.15 59.3045 355.716 60.5868 351.543 60.5868C348.197 60.5868 345.741 59.5871 344.176 57.5876L341.372 72.388H334.526L343.263 27.4H350.044L349.587 29.7472C351.674 27.7912 354.543 26.8132 358.194 26.8132C362.062 26.8132 364.888 28.1607 366.67 30.8556C368.452 33.594 368.93 37.1148 368.104 41.418ZM351.609 54.5884C353.912 54.5884 355.803 53.7843 357.281 52.176C358.759 50.5677 359.759 48.3509 360.28 45.5256L360.997 41.744C362.171 35.8325 360.454 32.8768 355.847 32.8768C353.586 32.8768 351.717 33.6157 350.239 35.0936C348.762 36.5715 347.762 38.6579 347.24 41.3528L346.458 45.5256C345.284 51.5675 347.001 54.5884 351.609 54.5884ZM401.914 41.418L401.066 45.8516C400.197 50.5025 398.393 54.132 395.655 56.74C392.96 59.3045 389.526 60.5868 385.353 60.5868C382.006 60.5868 379.55 59.5871 377.986 57.5876L375.182 72.388H368.336L377.073 27.4H383.854L383.397 29.7472C385.484 27.7912 388.352 26.8132 392.004 26.8132C395.872 26.8132 398.697 28.1607 400.48 30.8556C402.262 33.594 402.74 37.1148 401.914 41.418ZM385.418 54.5884C387.722 54.5884 389.613 53.7843 391.091 52.176C392.569 50.5677 393.568 48.3509 394.09 45.5256L394.807 41.744C395.981 35.8325 394.264 32.8768 389.656 32.8768C387.396 32.8768 385.527 33.6157 384.049 35.0936C382.571 36.5715 381.572 38.6579 381.05 41.3528L380.268 45.5256C379.094 51.5675 380.811 54.5884 385.418 54.5884ZM425.553 51.3936L430.182 55.11C428.66 57.066 426.878 58.4787 424.835 59.348C422.836 60.1739 420.337 60.5868 417.337 60.5868C413.165 60.5868 409.992 59.2393 407.818 56.5444C405.732 53.7625 405.102 50.1983 405.927 45.8516L406.775 41.418C408.688 31.6815 414.034 26.8132 422.814 26.8132C427.03 26.8132 430.03 28.1389 431.812 30.7904C433.594 33.4419 434.029 37.1148 433.116 41.8092L432.399 45.3952H412.904C412.339 48.3075 412.491 50.5677 413.36 52.176C414.23 53.7843 415.86 54.5884 418.25 54.5884C419.989 54.5884 421.402 54.3493 422.488 53.8712C423.575 53.3496 424.596 52.5237 425.553 51.3936ZM421.706 32.8768C417.837 32.8768 415.273 35.2675 414.012 40.0488H426.465C427.117 35.2675 425.531 32.8768 421.706 32.8768ZM465.018 31.7032L458.89 35.4848C458.02 33.8331 456.564 33.0072 454.521 33.0072C452.696 33.0072 451.109 33.6592 449.762 34.9632C448.458 36.2672 447.588 38.0493 447.154 40.3096L443.307 60H436.33L442.655 27.4H449.501L448.914 30.1384C450.827 27.9216 453.5 26.8132 456.934 26.8132C460.628 26.8132 463.323 28.4432 465.018 31.7032ZM490.989 32.3552L485.317 35.9412C484.665 34.8545 483.86 34.0939 482.904 33.6592C481.991 33.2245 480.622 33.0072 478.797 33.0072C477.014 33.0072 475.602 33.3549 474.559 34.0504C473.515 34.7024 472.994 35.6587 472.994 36.9192C472.994 37.9624 473.428 38.7448 474.298 39.2664C475.167 39.788 476.558 40.1575 478.471 40.3748C481.687 40.766 484.186 41.7223 485.969 43.2436C487.751 44.7215 488.642 46.6992 488.642 49.1768C488.642 52.7845 487.381 55.5881 484.86 57.5876C482.339 59.5871 478.71 60.5868 473.972 60.5868C470.929 60.5868 468.495 60.1304 466.669 59.2176C464.844 58.3048 463.344 56.8921 462.171 54.9796L467.908 51.3936C468.995 53.4365 471.385 54.458 475.08 54.458C477.08 54.458 478.644 54.0885 479.775 53.3496C480.948 52.6107 481.535 51.5892 481.535 50.2852C481.535 49.242 481.1 48.4813 480.231 48.0032C479.362 47.4816 477.775 47.0687 475.471 46.7644C469.038 45.9385 465.822 42.9828 465.822 37.8972C465.822 34.5503 467.082 31.8771 469.603 29.8776C472.124 27.8347 475.645 26.8132 480.166 26.8132C485.556 26.8132 489.163 28.6605 490.989 32.3552Z" fill="black"/>
</svg>
