<svg width="24" height="24" viewBox="0 0 24 24" fill="none" xmlns="http://www.w3.org/2000/svg">
<path d="M18.1916 19.6076L14.4766 15.8916C11.9343 17.6991 8.43107 17.257 6.4175 14.8746C4.40394 12.4921 4.55179 8.96422 6.75763 6.75863C8.96289 4.55208 12.4912 4.40359 14.874 6.41705C17.2569 8.4305 17.6992 11.9341 15.8916 14.4766L19.6066 18.1926L18.1926 19.6066L18.1916 19.6076ZM10.9996 7.00062C9.10333 7.00019 7.46732 8.33131 7.0821 10.1881C6.69689 12.0448 7.66834 13.9169 9.40831 14.6709C11.1483 15.4248 13.1785 14.8535 14.2699 13.3027C15.3612 11.7519 15.2137 9.64795 13.9166 8.26463L14.5216 8.86463L13.8396 8.18463L13.8276 8.17263C13.0794 7.41981 12.061 6.99776 10.9996 7.00062Z" fill="white"/>
</svg>
