<svg width="450" height="250" viewBox="0 0 450 250" fill="none" xmlns="http://www.w3.org/2000/svg">
<path fill-rule="evenodd" clip-rule="evenodd" d="M160.846 30.6708C157.78 31.1698 155.726 32.7749 154.867 35.3433C154.093 37.6541 153.252 55.1101 153.914 55.1101C154.141 55.1101 155.827 54.6963 157.66 54.1902C161.66 53.0863 173.409 52.9133 176.723 53.9097C178.354 54.3996 193.213 54.5623 236.527 54.5645L294.16 54.5677V103.522V152.477L297.415 153.618L300.669 154.758L300.656 120.529C300.637 73.548 299.858 36.7444 298.83 34.2829C297.803 31.8256 296.822 31.3733 291.1 30.7175C285.674 30.0958 164.647 30.0524 160.846 30.6708ZM293.343 37.321C293.418 37.4089 293.599 39.8613 293.744 42.7698L294.009 48.0585H227.094H160.179V42.6548V37.2505L165.197 37.0276C170.712 36.7829 293.124 37.0628 293.343 37.321ZM163.789 40.3717C162.611 41.673 162.65 43.3323 163.883 44.4486C165.877 46.2533 168.858 45.0035 168.858 42.363C168.858 39.6747 165.584 38.3885 163.789 40.3717ZM172.682 40.1607C171.577 41.4924 172.216 43.9018 173.884 44.6981C176.926 46.1491 179.165 43.5585 177.313 40.7319C176.306 39.1941 173.747 38.8784 172.682 40.1607ZM182.236 40.0614C180.652 41.2201 180.817 43.8221 182.528 44.6618C185.779 46.256 188.442 43.6431 186.534 40.7319C185.565 39.2516 183.734 38.9662 182.236 40.0614ZM192.27 40.7611C190.448 44.76 191.12 44.8956 214.151 45.1814C235.973 45.4521 289.029 44.6374 290.499 44.0087C291.697 43.4966 291.724 41.9111 290.551 40.9374C289.304 39.9025 272.501 39.4946 228.478 39.4311L192.899 39.3796L192.27 40.7611ZM158.009 58.1212C136.811 62.6608 122.806 87.1229 129.921 107.184L131.364 111.252L115.937 126.715C107.453 135.219 100.512 142.446 100.512 142.774C100.512 143.439 114.334 157.088 115.008 157.088C115.243 157.088 122.104 150.416 130.254 142.262L145.071 127.437L149.06 129.528C174.336 142.772 205.185 124.081 205.185 95.5214C205.185 71.0365 182.325 52.9138 158.009 58.1212ZM176.023 65.9556C198.304 72.8743 205.247 100.754 188.788 117.209C171.142 134.849 141.113 125.961 136.083 101.609C131.348 78.6876 153.461 58.9484 176.023 65.9556ZM199.867 67.4505C199.967 67.674 200.888 69.0165 201.916 70.4339L203.783 73.0104H209.335C216.001 73.0104 218.914 70.6671 215.941 67.6946C215.217 66.9704 199.548 66.7329 199.867 67.4505ZM237.514 67.8958C236.372 69.0393 236.437 71.011 237.654 72.1127C239.252 73.5588 279.472 73.471 280.787 72.0183C281.964 70.717 281.926 69.0577 280.692 67.9414C279.224 66.6124 238.841 66.5701 237.514 67.8958ZM215.146 80.3957C214.312 81.6682 214.298 81.9617 215.018 83.2434L215.819 84.6728L227.341 84.8192C239.964 84.9798 241.002 84.7845 241.002 82.2513C241.002 79.1112 240.457 78.9772 227.686 78.9772H216.075L215.146 80.3957ZM250.404 80.3957C249.57 81.6682 249.556 81.9617 250.276 83.2434L251.078 84.6728L265.379 84.8176C280.886 84.9744 281.684 84.8344 281.684 81.9606C281.684 79.1296 280.857 78.9772 265.517 78.9772H251.333L250.404 80.3957ZM152.036 81.4252L149.634 83.8727L155.449 89.706C162.451 96.7305 162.423 95.4249 155.722 102.149L150.179 107.71L153.934 110.973C156.725 113.831 154.723 112.89 161.119 106.515L166.688 100.965L172.385 106.642L179.71 113.405L182.276 110.838L183.216 107.186L177.538 101.489L171.861 95.7926L177.411 90.2235C183.786 83.8271 183.643 84.2019 180.784 81.41L178.606 79.2831L172.773 85.0975L166.942 90.9113L160.993 84.944C154.051 77.9802 155.037 78.3675 152.036 81.4252ZM209.998 99.319L209.812 102.303L214.178 102.302C218.955 102.302 219.847 101.864 219.847 99.5197C219.847 97.0256 218.615 96.3351 214.163 96.3351H210.183L209.998 99.319ZM237.868 97.1796C236.462 98.1642 236.291 100.226 237.514 101.45C238.804 102.739 279.543 102.739 280.832 101.45C281.975 100.306 281.91 98.3345 280.692 97.2328C279.234 95.9131 239.746 95.8637 237.868 97.1796ZM211.289 109.113C208.258 111.236 210.557 114.778 214.965 114.778C218.089 114.778 219.847 113.606 219.847 111.523C219.847 109.44 218.089 108.269 214.965 108.269C213.606 108.269 211.952 108.649 211.289 109.113ZM250.805 109.698C249.376 111.515 249.393 111.828 251.012 113.446L252.344 114.778H265.929C280.67 114.778 281.684 114.568 281.684 111.523C281.684 108.471 280.692 108.269 265.722 108.269H251.929L250.805 109.698ZM137.104 120.067C139.69 122.849 140.373 121.827 126.968 135.242L114.911 147.308L112.584 145.024L110.257 142.74L122.602 130.386C129.392 123.592 135.007 118.032 135.08 118.032C135.153 118.032 136.064 118.948 137.104 120.067ZM199.865 123.457L197.001 126.711H207.526C219.221 126.711 220.137 126.442 219.752 123.111C219.475 120.711 217.787 120.219 209.797 120.21L202.73 120.202L199.865 123.457ZM238.832 120.569C236.593 121.395 236.05 123.929 237.747 125.626C239.237 127.116 278.381 127.336 280.478 125.867C281.856 124.902 282.04 123.066 280.915 121.526C280.156 120.487 241.437 119.607 238.832 120.569ZM185.945 134.046C183.856 135.059 180.27 136.321 177.976 136.848C171.283 138.387 173.787 138.628 196.537 138.637C219.741 138.645 220.389 138.567 220.389 135.734C220.389 132.455 220.211 132.417 204.296 132.305L189.742 132.202L185.945 134.046ZM242.765 132.964C241.135 134.113 241.127 136.664 242.75 137.8C243.781 138.523 246.51 138.645 261.614 138.645C282.118 138.645 284.279 138.064 280.915 133.46C279.83 131.975 244.813 131.519 242.765 132.964ZM320.258 147.534L305.409 162.39L301.5 160.281C276.372 146.728 245.341 165.345 245.341 193.973C245.341 225.938 282.633 243.587 307.852 223.559C319.703 214.148 324.966 196.398 320.114 182.202L318.779 178.297L334.134 162.95C342.579 154.508 349.488 147.208 349.488 146.726C349.488 145.874 336.376 132.678 335.53 132.678C335.297 132.678 328.425 139.364 320.258 147.534ZM153.782 174.085C153.87 195.118 154.145 212.529 154.393 212.778C154.989 213.373 245.513 213.709 245.263 213.115C245.157 212.863 244.595 211.382 244.013 209.824L242.957 206.991H207.535H172.113V204.279V201.567H206.892H241.671L241.344 200.347C241.164 199.675 241.013 198.2 241.009 197.067L241.002 195.008L205.066 195.169C171.847 195.317 168.996 195.402 167.366 196.293L165.604 197.255V202.124V206.991H162.891H160.179V172.297V137.602L157.874 137.006C156.606 136.679 153.503 135.198 152.968 135.043C152.037 134.772 153.629 137.52 153.782 174.085ZM328.061 159.259C313.79 173.54 315.476 172.433 312.861 169.24L310.818 166.747L323.231 154.324L335.645 141.902L338.086 144.343L340.527 146.784L328.061 159.259ZM173.306 145.263C172.334 146.235 172.521 148.661 173.647 149.681C175.106 151.002 203.574 151.043 204.891 149.726C205.9 148.717 206.014 146.184 205.093 145.263C204.164 144.334 174.235 144.334 173.306 145.263ZM237.56 145.604C234.507 148.977 241.169 152.353 246.695 150.233C248.185 149.662 248.757 147.38 247.784 145.894C246.651 144.165 239.057 143.949 237.56 145.604ZM253.053 145.29C251.962 146.618 252.044 148.525 253.245 149.726C254.636 151.117 279.516 150.991 280.787 149.586C281.918 148.337 281.938 146.569 280.832 145.464C279.699 144.331 253.974 144.17 253.053 145.29ZM173.507 157.397C173.039 157.867 172.655 158.826 172.655 159.529C172.655 162.537 172.452 162.512 196.477 162.512C217.214 162.512 218.65 162.45 219.492 161.52C220.623 160.27 220.643 158.503 219.537 157.397C218.247 156.107 174.798 156.107 173.507 157.397ZM246.034 157.223C241.538 163.034 250.771 164.796 258.112 159.529L262.271 156.545H254.415C248.772 156.545 246.411 156.736 246.034 157.223ZM291.448 163.723C311.717 168.569 321.474 192.874 310.273 210.613C297.284 231.184 265.494 229.335 255.202 207.41C243.912 183.36 265.377 157.489 291.448 163.723ZM173.507 178.01C173.039 178.479 172.655 179.438 172.655 180.141C172.655 183.037 173.135 183.124 189.002 183.124C198.059 183.124 204.045 182.91 204.695 182.563C205.897 181.919 206.153 178.868 205.093 177.809C203.995 176.711 174.619 176.898 173.507 178.01ZM211.523 178.15C210.372 179.422 210.387 180.543 211.575 181.993C212.508 183.133 212.775 183.15 227.381 183.003L242.239 182.853L242.968 180.412C243.369 179.07 243.701 177.789 243.706 177.564C243.726 176.544 212.462 177.113 211.523 178.15ZM288.465 190.176C282.205 196.441 276.842 201.567 276.547 201.567C276.252 201.567 273.996 199.562 271.532 197.111L267.052 192.654L264.876 194.78C263.679 195.949 262.699 197.165 262.699 197.482C262.699 198.205 275.813 211.331 276.535 211.331C277.255 211.331 304.466 184.095 304.466 183.374C304.466 182.826 300.621 178.785 300.099 178.785C299.96 178.785 294.724 183.911 288.465 190.176Z" fill="#023047"/>
<rect opacity="0.3" x="341.48" y="33.3976" width="23" height="23" rx="11.5" transform="rotate(5.55212 341.48 33.3976)" fill="#023047" fill-opacity="0.25" stroke="#023047" stroke-width="5"/>
<rect opacity="0.3" x="72.1422" y="110.627" width="12.5" height="12.5" rx="6.25" transform="rotate(-8.87307 72.1422 110.627)" fill="#023047" fill-opacity="0.25" stroke="#023047" stroke-width="4.5"/>
<rect opacity="0.3" x="18.6236" y="158.995" width="8.5" height="8.5" rx="4.25" transform="rotate(-8.87307 18.6236 158.995)" fill="#023047" fill-opacity="0.25" stroke="#023047" stroke-width="4.5"/>
<rect opacity="0.3" x="418.198" y="84.1754" width="9.5" height="9.5" rx="4.75" transform="rotate(5.55212 418.198 84.1754)" fill="#023047" fill-opacity="0.25" stroke="#023047" stroke-width="4.5"/>
<path opacity="0.3" d="M366.66 204.167L355.57 208.445C354.987 208.67 354.331 208.379 354.106 207.796C353.881 207.213 354.172 206.557 354.755 206.332L366.464 201.816C367.289 201.498 368.216 201.909 368.534 202.734L372.643 213.386L383.295 209.277C384.12 208.959 385.047 209.37 385.365 210.195L389.881 221.903C390.106 222.487 389.816 223.142 389.232 223.367C388.649 223.592 387.994 223.301 387.769 222.718L383.491 211.628L372.839 215.737C372.014 216.055 371.087 215.644 370.769 214.82L366.66 204.167Z" fill="#FA9823" stroke="#023047" stroke-width="4"/>
<path opacity="0.3" d="M37.1889 62.1533L25.7916 65.528C25.1921 65.7055 24.5623 65.3634 24.3848 64.764C24.2073 64.1645 24.5493 63.5346 25.1488 63.3571L37.1819 59.7941C38.0297 59.5431 38.9205 60.0269 39.1715 60.8747L42.4131 71.8223L53.3607 68.5807C54.2085 68.3297 55.0993 68.8135 55.3503 69.6613L58.9133 81.6944C59.0908 82.2939 58.7487 82.9237 58.1492 83.1012C57.5497 83.2787 56.9199 82.9367 56.7424 82.3372L53.3677 70.9399L42.42 74.1815C41.5722 74.4325 40.6815 73.9488 40.4304 73.101L37.1889 62.1533Z" fill="#FA9823" stroke="#023047" stroke-width="4"/>
<path opacity="0.3" d="M108.177 207.62L89.4875 218.16C88.1464 218.916 86.4896 217.937 86.5051 216.398L86.7215 194.942C86.737 193.403 88.4133 192.458 89.7388 193.241L108.212 204.156C109.537 204.939 109.518 206.863 108.177 207.62Z" fill="#023047" fill-opacity="0.25" stroke="#023047" stroke-width="6"/>
<path opacity="0.3" d="M101.427 34.51L94.2556 39.2378C92.6489 40.297 90.498 39.2198 90.384 37.2986L89.8751 28.7245C89.7611 26.8034 91.7696 25.4793 93.4903 26.3411L101.17 30.1875C102.891 31.0493 103.033 33.4507 101.427 34.51Z" fill="#023047" fill-opacity="0.25" stroke="#023047" stroke-width="5"/>
<path opacity="0.3" d="M380.016 144.365L388.084 131.421C388.899 130.115 390.822 130.18 391.547 131.538L398.722 144.998C399.446 146.357 398.428 147.99 396.889 147.938L381.645 147.422C380.107 147.37 379.201 145.672 380.016 144.365Z" fill="#023047" fill-opacity="0.25" stroke="#023047" stroke-width="6"/>
</svg>
