<svg width="451" height="250" viewBox="0 0 451 250" fill="none" xmlns="http://www.w3.org/2000/svg">
<path fill-rule="evenodd" clip-rule="evenodd" d="M161.603 30.6708C158.537 31.1698 156.483 32.7749 155.624 35.3433C154.85 37.6541 154.009 55.1101 154.67 55.1101C154.898 55.1101 156.584 54.6963 158.417 54.1902C162.416 53.0863 174.166 52.9133 177.48 53.9097C179.111 54.3996 193.97 54.5623 237.284 54.5645L294.917 54.5677V103.522V152.477L298.172 153.618L301.426 154.758L301.413 120.529C301.394 73.548 300.615 36.7444 299.586 34.2829C298.56 31.8256 297.579 31.3733 291.857 30.7175C286.431 30.0958 165.404 30.0524 161.603 30.6708ZM294.1 37.321C294.175 37.4089 294.356 39.8613 294.501 42.7698L294.766 48.0585H227.851H160.936V42.6548V37.2505L165.954 37.0276C171.469 36.7829 293.881 37.0628 294.1 37.321ZM164.546 40.3717C163.368 41.673 163.407 43.3323 164.64 44.4486C166.634 46.2533 169.615 45.0035 169.615 42.363C169.615 39.6747 166.341 38.3885 164.546 40.3717ZM173.439 40.1607C172.334 41.4924 172.973 43.9018 174.641 44.6981C177.683 46.1491 179.922 43.5585 178.07 40.7319C177.063 39.1941 174.503 38.8784 173.439 40.1607ZM182.993 40.0614C181.409 41.2201 181.574 43.8221 183.285 44.6618C186.536 46.256 189.199 43.6431 187.291 40.7319C186.321 39.2516 184.491 38.9662 182.993 40.0614ZM193.027 40.7611C191.205 44.76 191.877 44.8956 214.908 45.1814C236.73 45.4521 289.786 44.6374 291.256 44.0087C292.454 43.4966 292.481 41.9111 291.308 40.9374C290.061 39.9025 273.258 39.4946 229.234 39.4311L193.656 39.3796L193.027 40.7611ZM158.766 58.1212C137.568 62.6608 123.563 87.1229 130.678 107.184L132.12 111.252L116.694 126.715C108.21 135.219 101.268 142.446 101.268 142.774C101.268 143.439 115.091 157.088 115.765 157.088C116 157.088 122.861 150.416 131.011 142.262L145.828 127.437L149.817 129.528C175.093 142.772 205.942 124.081 205.942 95.5214C205.942 71.0365 183.082 52.9138 158.766 58.1212ZM176.78 65.9556C199.06 72.8743 206.004 100.754 189.545 117.209C171.899 134.849 141.87 125.961 136.84 101.609C132.105 78.6876 154.218 58.9484 176.78 65.9556ZM200.624 67.4505C200.724 67.674 201.645 69.0165 202.673 70.4339L204.54 73.0104H210.092C216.758 73.0104 219.671 70.6671 216.698 67.6946C215.974 66.9704 200.305 66.7329 200.624 67.4505ZM238.271 67.8958C237.128 69.0393 237.194 71.011 238.411 72.1127C240.009 73.5588 280.229 73.471 281.543 72.0183C282.721 70.717 282.683 69.0577 281.449 67.9414C279.981 66.6124 239.598 66.5701 238.271 67.8958ZM215.903 80.3957C215.069 81.6682 215.055 81.9617 215.774 83.2434L216.576 84.6728L228.098 84.8192C240.72 84.9798 241.759 84.7845 241.759 82.2513C241.759 79.1112 241.214 78.9772 228.443 78.9772H216.832L215.903 80.3957ZM251.161 80.3957C250.326 81.6682 250.313 81.9617 251.033 83.2434L251.835 84.6728L266.136 84.8176C281.643 84.9744 282.441 84.8344 282.441 81.9606C282.441 79.1296 281.614 78.9772 266.273 78.9772H252.09L251.161 80.3957ZM152.793 81.4252L150.391 83.8727L156.206 89.706C163.208 96.7305 163.18 95.4249 156.479 102.149L150.936 107.71L154.691 110.973C157.482 113.831 155.48 112.89 161.876 106.515L167.445 100.965L173.142 106.642L180.466 113.405L183.033 110.838L183.973 107.186L178.295 101.489L172.618 95.7926L178.168 90.2235C184.543 83.8271 184.4 84.2019 181.54 81.41L179.363 79.2831L173.53 85.0975L167.699 90.9113L161.75 84.944C154.808 77.9802 155.794 78.3675 152.793 81.4252ZM210.755 99.319L210.569 102.303L214.935 102.302C219.711 102.302 220.604 101.864 220.604 99.5197C220.604 97.0256 219.372 96.3351 214.92 96.3351H210.94L210.755 99.319ZM238.625 97.1796C237.219 98.1642 237.048 100.226 238.271 101.45C239.561 102.739 280.3 102.739 281.589 101.45C282.732 100.306 282.667 98.3345 281.449 97.2328C279.991 95.9131 240.503 95.8637 238.625 97.1796ZM212.046 109.113C209.015 111.236 211.314 114.778 215.722 114.778C218.846 114.778 220.604 113.606 220.604 111.523C220.604 109.44 218.846 108.269 215.722 108.269C214.363 108.269 212.709 108.649 212.046 109.113ZM251.562 109.698C250.133 111.515 250.15 111.828 251.769 113.446L253.1 114.778H266.686C281.427 114.778 282.441 114.568 282.441 111.523C282.441 108.471 281.449 108.269 266.479 108.269H252.686L251.562 109.698ZM137.86 120.067C140.447 122.849 141.13 121.827 127.725 135.242L115.668 147.308L113.341 145.024L111.014 142.74L123.359 130.386C130.149 123.592 135.764 118.032 135.837 118.032C135.91 118.032 136.821 118.948 137.86 120.067ZM200.622 123.457L197.758 126.711H208.283C219.978 126.711 220.893 126.442 220.509 123.111C220.232 120.711 218.544 120.219 210.554 120.21L203.487 120.202L200.622 123.457ZM239.589 120.569C237.35 121.395 236.807 123.929 238.504 125.626C239.994 127.116 279.138 127.336 281.235 125.867C282.613 124.902 282.797 123.066 281.671 121.526C280.913 120.487 242.194 119.607 239.589 120.569ZM186.702 134.046C184.613 135.059 181.027 136.321 178.733 136.848C172.04 138.387 174.544 138.628 197.294 138.637C220.498 138.645 221.146 138.567 221.146 135.734C221.146 132.455 220.968 132.417 205.053 132.305L190.499 132.202L186.702 134.046ZM243.522 132.964C241.892 134.113 241.884 136.664 243.507 137.8C244.538 138.523 247.267 138.645 262.371 138.645C282.875 138.645 285.036 138.064 281.672 133.46C280.587 131.975 245.57 131.519 243.522 132.964ZM321.015 147.534L306.166 162.39L302.257 160.281C277.129 146.728 246.098 165.345 246.098 193.973C246.098 225.938 283.39 243.587 308.609 223.559C320.46 214.148 325.722 196.398 320.871 182.202L319.536 178.297L334.891 162.95C343.336 154.508 350.245 147.208 350.245 146.726C350.245 145.874 337.133 132.678 336.287 132.678C336.054 132.678 329.182 139.364 321.015 147.534ZM154.539 174.085C154.627 195.118 154.902 212.529 155.15 212.778C155.746 213.373 246.27 213.709 246.02 213.115C245.914 212.863 245.352 211.382 244.77 209.824L243.714 206.991H208.292H172.87V204.279V201.567H207.649H242.427L242.1 200.347C241.921 199.675 241.77 198.2 241.766 197.067L241.759 195.008L205.822 195.169C172.604 195.317 169.753 195.402 168.123 196.293L166.36 197.255V202.124V206.991H163.648H160.936V172.297V137.602L158.631 137.006C157.363 136.679 154.26 135.198 153.725 135.043C152.794 134.772 154.386 137.52 154.539 174.085ZM328.818 159.259C314.547 173.54 316.233 172.433 313.618 169.24L311.575 166.747L323.988 154.324L336.402 141.902L338.843 144.343L341.284 146.784L328.818 159.259ZM174.063 145.263C173.09 146.235 173.278 148.661 174.404 149.681C175.863 151.002 204.331 151.043 205.648 149.726C206.657 148.717 206.771 146.184 205.85 145.263C204.921 144.334 174.992 144.334 174.063 145.263ZM238.317 145.604C235.264 148.977 241.926 152.353 247.452 150.233C248.942 149.662 249.514 147.38 248.541 145.894C247.408 144.165 239.814 143.949 238.317 145.604ZM253.81 145.29C252.719 146.618 252.801 148.525 254.002 149.726C255.393 151.117 280.273 150.991 281.543 149.586C282.675 148.337 282.694 146.569 281.589 145.464C280.456 144.331 254.73 144.17 253.81 145.29ZM174.264 157.397C173.796 157.867 173.412 158.826 173.412 159.529C173.412 162.537 173.209 162.512 197.234 162.512C217.971 162.512 219.407 162.45 220.248 161.52C221.38 160.27 221.4 158.503 220.294 157.397C219.004 156.107 175.555 156.107 174.264 157.397ZM246.791 157.223C242.295 163.034 251.528 164.796 258.869 159.529L263.027 156.545H255.172C249.528 156.545 247.168 156.736 246.791 157.223ZM292.205 163.723C312.474 168.569 322.231 192.874 311.03 210.613C298.041 231.184 266.251 229.335 255.959 207.41C244.669 183.36 266.134 157.489 292.205 163.723ZM174.264 178.01C173.796 178.479 173.412 179.438 173.412 180.141C173.412 183.037 173.892 183.124 189.759 183.124C198.816 183.124 204.802 182.91 205.451 182.563C206.654 181.919 206.909 178.868 205.85 177.809C204.752 176.711 175.376 176.898 174.264 178.01ZM212.28 178.15C211.129 179.422 211.144 180.543 212.332 181.993C213.265 183.133 213.532 183.15 228.138 183.003L242.995 182.853L243.725 180.412C244.126 179.07 244.458 177.789 244.463 177.564C244.483 176.544 213.219 177.113 212.28 178.15ZM289.222 190.176C282.962 196.441 277.599 201.567 277.304 201.567C277.009 201.567 274.753 199.562 272.289 197.111L267.809 192.654L265.633 194.78C264.436 195.949 263.456 197.165 263.456 197.482C263.456 198.205 276.57 211.331 277.292 211.331C278.012 211.331 305.223 184.095 305.223 183.374C305.223 182.826 301.378 178.785 300.856 178.785C300.717 178.785 295.481 183.911 289.222 190.176Z" fill="#FA9823"/>
<rect opacity="0.5" x="342.237" y="33.3976" width="23" height="23" rx="11.5" transform="rotate(5.55212 342.237 33.3976)" fill="#FA9823" fill-opacity="0.25" stroke="#FA9823" stroke-width="5"/>
<rect opacity="0.5" x="72.8991" y="110.627" width="12.5" height="12.5" rx="6.25" transform="rotate(-8.87307 72.8991 110.627)" fill="#FA9823" fill-opacity="0.25" stroke="#FA9823" stroke-width="4.5"/>
<rect opacity="0.5" x="19.3805" y="158.995" width="8.5" height="8.5" rx="4.25" transform="rotate(-8.87307 19.3805 158.995)" fill="#FA9823" fill-opacity="0.25" stroke="#FA9823" stroke-width="4.5"/>
<rect opacity="0.5" x="418.955" y="84.1754" width="9.5" height="9.5" rx="4.75" transform="rotate(5.55212 418.955 84.1754)" fill="#FA9823" fill-opacity="0.25" stroke="#FA9823" stroke-width="4.5"/>
<path opacity="0.5" d="M367.417 204.167L356.327 208.445C355.744 208.67 355.088 208.379 354.863 207.796C354.638 207.213 354.929 206.557 355.512 206.332L367.221 201.816C368.046 201.498 368.972 201.909 369.291 202.734L373.4 213.386L384.052 209.277C384.877 208.959 385.804 209.37 386.122 210.195L390.638 221.903C390.863 222.487 390.573 223.142 389.989 223.367C389.406 223.592 388.751 223.301 388.526 222.718L384.248 211.628L373.596 215.737C372.771 216.055 371.844 215.644 371.526 214.82L367.417 204.167Z" fill="#FA9823" stroke="#FA9823" stroke-width="4"/>
<path opacity="0.5" d="M37.9458 62.1533L26.5485 65.528C25.949 65.7055 25.3192 65.3634 25.1417 64.764C24.9642 64.1645 25.3062 63.5346 25.9057 63.3571L37.9388 59.7941C38.7866 59.5431 39.6774 60.0269 39.9284 60.8747L43.17 71.8223L54.1176 68.5807C54.9654 68.3297 55.8562 68.8135 56.1072 69.6613L59.6702 81.6944C59.8477 82.2939 59.5056 82.9237 58.9061 83.1012C58.3067 83.2787 57.6768 82.9367 57.4993 82.3372L54.1246 70.9399L43.1769 74.1815C42.3292 74.4325 41.4384 73.9488 41.1874 73.101L37.9458 62.1533Z" fill="#FA9823" stroke="#FA9823" stroke-width="4"/>
<path opacity="0.5" d="M108.934 207.62L90.2444 218.16C88.9033 218.916 87.2464 217.937 87.262 216.398L87.4784 194.942C87.4939 193.403 89.1702 192.458 90.4957 193.241L108.968 204.156C110.294 204.939 110.275 206.863 108.934 207.62Z" fill="#FA9823" fill-opacity="0.25" stroke="#FA9823" stroke-width="6"/>
<path opacity="0.5" d="M102.184 34.51L95.0125 39.2378C93.4058 40.297 91.2549 39.2198 91.1409 37.2986L90.632 28.7245C90.518 26.8034 92.5265 25.4793 94.2472 26.3411L101.927 30.1875C103.648 31.0493 103.79 33.4507 102.184 34.51Z" fill="#FA9823" fill-opacity="0.25" stroke="#FA9823" stroke-width="5"/>
<path opacity="0.5" d="M380.773 144.365L388.841 131.421C389.656 130.115 391.579 130.18 392.303 131.538L399.479 144.998C400.203 146.357 399.185 147.99 397.646 147.938L382.402 147.422C380.864 147.37 379.958 145.672 380.773 144.365Z" fill="#FA9823" fill-opacity="0.25" stroke="#FA9823" stroke-width="6"/>
</svg>
