<svg width="450" height="251" viewBox="0 0 450 251" fill="none" xmlns="http://www.w3.org/2000/svg">
<path d="M156.735 116.194C155.584 115.044 153.72 115.044 152.57 116.194C151.422 117.342 151.42 119.203 152.565 120.354L156.846 124.654H134.544C132.914 124.654 131.593 125.975 131.593 127.605C131.593 129.234 132.914 130.555 134.544 130.555H156.846L152.565 134.856C151.419 136.007 151.422 137.867 152.57 139.016C153.72 140.166 155.584 140.166 156.735 139.016L165.735 130.015C167.066 128.684 167.066 126.525 165.735 125.194L156.735 116.194Z" fill="#023047"/>
<path d="M306.328 116.194C305.178 115.044 303.313 115.044 302.163 116.194C301.015 117.342 301.013 119.203 302.158 120.354L306.439 124.654H284.137C282.507 124.654 281.187 125.975 281.187 127.605C281.187 129.234 282.507 130.555 284.137 130.555H306.439L302.158 134.856C301.013 136.007 301.015 137.867 302.163 139.016C303.313 140.166 305.178 140.166 306.328 139.016L315.329 130.015C316.66 128.684 316.66 126.525 315.328 125.194L306.328 116.194Z" fill="#023047"/>
<path fill-rule="evenodd" clip-rule="evenodd" d="M68.4271 87.3755C38.2626 93.0875 24.3997 127.754 42.584 152.001C66.1907 183.477 116.052 166.973 116.052 127.682C116.052 102.319 92.9163 82.7381 68.4271 87.3755ZM217.769 87.3755C187.604 93.0875 173.741 127.754 191.926 152.001C215.532 183.477 265.394 166.973 265.394 127.682C265.394 102.319 242.258 82.7381 217.769 87.3755ZM367.933 87.3755C337.769 93.0875 323.906 127.754 342.09 152.001C365.697 183.477 415.558 166.973 415.558 127.682C415.558 102.319 392.422 82.7381 367.933 87.3755ZM80.2943 92.2984C103.951 94.5678 118.353 122.407 107.107 144.127C89.1293 178.851 36.3389 163.129 39.8223 124.088C41.4494 105.857 59.017 90.408 76.3859 91.9352C77.1778 92.0047 78.9366 92.168 80.2943 92.2984ZM229.636 92.2984C253.292 94.5678 267.694 122.407 256.448 144.127C238.471 178.851 185.681 163.129 189.164 124.088C190.791 105.857 208.359 90.408 225.728 91.9352C226.519 92.0047 228.278 92.168 229.636 92.2984ZM379.8 92.2984C403.457 94.5678 417.859 122.407 406.613 144.127C388.635 178.851 335.845 163.129 339.328 124.088C340.955 105.857 358.523 90.408 375.892 91.9352C376.684 92.0047 378.443 92.168 379.8 92.2984ZM222.267 105.292C221.681 105.988 221.202 107.061 221.202 107.677C221.202 108.596 220.928 108.896 219.678 109.348C215.743 110.771 212.494 115.615 212.466 120.098C212.431 125.614 216.067 129.029 224.971 131.841C229.206 133.179 230.439 134.306 230.136 136.564C229.543 140.983 223.041 141.066 217.13 136.73C213.363 133.966 208.856 139.115 212.254 142.3C213.769 143.72 217.58 145.878 219.454 146.378C221.009 146.793 221.202 146.978 221.202 148.056C221.202 152.77 227.522 153.185 228.818 148.556C229.129 147.447 229.614 146.845 230.559 146.398C242.176 140.895 239.467 128.437 225.729 124.185C220.765 122.649 219.396 121.169 220.152 118.157C220.955 114.96 227.674 114.756 229.712 117.866C230.696 119.368 232.863 120.239 234.068 119.616C238.315 117.42 236.779 112.588 230.888 109.607C228.904 108.603 228.607 108.297 228.607 107.249C228.607 104.154 224.334 102.835 222.267 105.292ZM392.478 113.893C390.812 114.581 390.703 115.428 390.703 127.609C390.703 140.962 390.761 141.217 393.788 141.217C396.82 141.217 396.874 140.978 396.874 127.476C396.874 113.769 396.392 112.278 392.478 113.893ZM383.016 118.007C381.383 118.681 381.24 119.621 381.24 129.666C381.24 140.724 381.372 141.217 384.326 141.217C387.285 141.217 387.411 140.739 387.411 129.533C387.411 118.109 386.78 116.454 383.016 118.007ZM373.553 122.122C371.969 122.776 371.778 123.809 371.778 131.723C371.778 140.494 372.013 141.217 374.863 141.217C377.722 141.217 377.949 140.509 377.949 131.59C377.949 122.431 377.122 120.649 373.553 122.122ZM364.091 126.236C362.582 126.859 362.315 127.989 362.315 133.78C362.315 140.278 362.705 141.217 365.401 141.217C368.109 141.217 368.487 140.292 368.487 133.647C368.487 126.728 367.387 124.875 364.091 126.236ZM354.628 130.35C352.686 131.152 351.969 138.223 353.623 140.266C356.12 143.351 359.024 140.898 359.024 135.704C359.024 130.986 357.522 129.156 354.628 130.35ZM63.4265 132.359C61.1637 132.514 58.8495 132.897 58.2838 133.211C56.9439 133.954 53.6708 137.773 53.2988 138.415L52.9454 139.066C52.4715 139.657 52.4369 146.41 53.1655 148.548C55.4056 155.122 71.9299 159.918 82.7125 157.122C90.0998 156.035 96.8193 150.693 98.084 147.667C98.7715 146.023 98.628 140.445 98.1807 139.887L97.7792 138.845C97.4079 137.727 93.5063 133.493 91.6882 132.891C90.0459 132.346 69.308 131.956 63.4265 132.359Z" fill="#023047"/>
<rect x="63.6839" y="103.564" width="23.8241" height="23.8241" rx="11.9121" fill="#023047"/>
<path opacity="0.3" d="M394.381 202.73L382.634 204.544C382.016 204.64 381.438 204.216 381.342 203.598C381.247 202.98 381.67 202.402 382.288 202.307L394.691 200.391C395.565 200.256 396.382 200.855 396.517 201.729L398.26 213.012L409.544 211.269C410.418 211.134 411.236 211.733 411.371 212.607L413.286 225.009C413.382 225.627 412.958 226.206 412.34 226.301C411.722 226.396 411.144 225.973 411.049 225.355L409.234 213.608L397.951 215.351C397.077 215.486 396.259 214.887 396.124 214.013L394.381 202.73Z" fill="#FA9823" stroke="#023047" stroke-width="4"/>
<path opacity="0.3" d="M39.442 31.3167L27.5559 31.3985C26.9307 31.4028 26.4204 30.8995 26.4161 30.2743C26.4118 29.6491 26.9151 29.1388 27.5403 29.1345L40.0895 29.0481C40.9737 29.042 41.6953 29.7538 41.7014 30.638L41.78 42.0552L53.1972 41.9766C54.0814 41.9705 54.8031 42.6823 54.8091 43.5665L54.8955 56.1157C54.8998 56.7409 54.3965 57.2512 53.7713 57.2555C53.1461 57.2598 52.6358 56.7565 52.6315 56.1313L52.5497 44.2452L41.1325 44.3238C40.2483 44.3299 39.5266 43.618 39.5206 42.7339L39.442 31.3167Z" fill="#FA9823" stroke="#023047" stroke-width="4"/>
<path opacity="0.3" d="M149.232 208.589L136.319 219.386C135.138 220.373 133.331 219.712 133.066 218.195L130.172 201.615C129.907 200.098 131.384 198.863 132.83 199.392L148.636 205.176C150.082 205.705 150.413 207.601 149.232 208.589Z" fill="#023047" fill-opacity="0.25" stroke="#023047" stroke-width="6"/>
<path opacity="0.3" d="M257.141 30.4862L271.24 21.2921C272.529 20.4511 274.246 21.3215 274.329 22.8589L275.242 39.6656C275.326 41.2029 273.714 42.2542 272.341 41.5578L257.329 33.9452C255.956 33.2489 255.852 31.3272 257.141 30.4862Z" fill="#023047" fill-opacity="0.25" stroke="#023047" stroke-width="6"/>
<rect opacity="0.2" x="24.719" y="210.114" width="8.5" height="8.5" rx="4.25" transform="rotate(-8.87307 24.719 210.114)" fill="#023047" fill-opacity="0.25" stroke="#023047" stroke-width="4.5"/>
<rect opacity="0.2" x="131.074" y="68.3809" width="8.44958" height="8.44958" rx="4.22479" transform="rotate(-8.87307 131.074 68.3809)" fill="#023047" fill-opacity="0.25" stroke="#023047" stroke-width="4.5"/>
<rect opacity="0.2" x="298.705" y="219.886" width="9.49529" height="9.49529" rx="4.74765" transform="rotate(-8.87307 298.705 219.886)" fill="#023047" fill-opacity="0.25" stroke="#023047" stroke-width="4.5"/>
<path opacity="0.3" d="M421.12 34.4313L413.361 30.7474C411.622 29.922 411.429 27.5241 413.013 26.4312L420.083 21.5536C421.667 20.4607 423.841 21.4925 423.995 23.4108L424.684 31.9723C424.839 33.8906 422.858 35.2567 421.12 34.4313Z" fill="#023047" fill-opacity="0.25" stroke="#023047" stroke-width="5"/>
<rect opacity="0.2" x="352.855" y="49.5616" width="12.6636" height="12.6636" rx="6.33179" transform="rotate(5.55212 352.855 49.5616)" fill="#023047" fill-opacity="0.25" stroke="#023047" stroke-width="4.5"/>
</svg>
