<svg width="451" height="251" viewBox="0 0 451 251" fill="none" xmlns="http://www.w3.org/2000/svg">
<path d="M157.491 116.194C156.341 115.044 154.477 115.044 153.327 116.194C152.179 117.342 152.176 119.203 153.322 120.354L157.603 124.654H135.3C133.671 124.654 132.35 125.975 132.35 127.605C132.35 129.234 133.671 130.555 135.3 130.555H157.603L153.322 134.856C152.176 136.007 152.178 137.867 153.327 139.016C154.477 140.166 156.341 140.166 157.491 139.016L166.492 130.015C167.823 128.684 167.823 126.525 166.492 125.194L157.491 116.194Z" fill="#FA9823"/>
<path d="M307.085 116.194C305.935 115.044 304.07 115.044 302.92 116.194C301.772 117.342 301.77 119.203 302.915 120.354L307.196 124.654H284.894C283.264 124.654 281.943 125.975 281.943 127.605C281.943 129.234 283.264 130.555 284.894 130.555H307.196L302.915 134.856C301.77 136.007 301.772 137.867 302.92 139.016C304.07 140.166 305.935 140.166 307.085 139.016L316.085 130.015C317.417 128.684 317.417 126.525 316.085 125.194L307.085 116.194Z" fill="#FA9823"/>
<path fill-rule="evenodd" clip-rule="evenodd" d="M69.184 87.3755C39.0195 93.0875 25.1566 127.754 43.3409 152.001C66.9476 183.477 116.809 166.973 116.809 127.682C116.809 102.319 93.6732 82.7381 69.184 87.3755ZM218.526 87.3755C188.361 93.0875 174.498 127.754 192.683 152.001C216.289 183.477 266.15 166.973 266.15 127.682C266.15 102.319 243.015 82.7381 218.526 87.3755ZM368.69 87.3755C338.526 93.0875 324.663 127.754 342.847 152.001C366.454 183.477 416.315 166.973 416.315 127.682C416.315 102.319 393.179 82.7381 368.69 87.3755ZM81.0512 92.2984C104.708 94.5678 119.109 122.407 107.864 144.127C89.8862 178.851 37.0957 163.129 40.5792 124.088C42.2063 105.857 59.7739 90.408 77.1428 91.9352C77.9347 92.0047 79.6935 92.168 81.0512 92.2984ZM230.393 92.2984C254.049 94.5678 268.451 122.407 257.205 144.127C239.228 178.851 186.437 163.129 189.921 124.088C191.548 105.857 209.116 90.408 226.484 91.9352C227.276 92.0047 229.035 92.168 230.393 92.2984ZM380.557 92.2984C404.214 94.5678 418.616 122.407 407.37 144.127C389.392 178.851 336.602 163.129 340.085 124.088C341.712 105.857 359.28 90.408 376.649 91.9352C377.441 92.0047 379.2 92.168 380.557 92.2984ZM223.024 105.292C222.438 105.988 221.959 107.061 221.959 107.677C221.959 108.596 221.685 108.896 220.435 109.348C216.5 110.771 213.251 115.615 213.223 120.098C213.188 125.614 216.824 129.029 225.728 131.841C229.963 133.179 231.195 134.306 230.893 136.564C230.3 140.983 223.798 141.066 217.887 136.73C214.12 133.966 209.613 139.115 213.011 142.3C214.526 143.72 218.337 145.878 220.21 146.378C221.766 146.793 221.959 146.978 221.959 148.056C221.959 152.77 228.279 153.185 229.575 148.556C229.886 147.447 230.371 146.845 231.316 146.398C242.933 140.895 240.224 128.437 226.486 124.185C221.522 122.649 220.153 121.169 220.909 118.157C221.712 114.96 228.431 114.756 230.469 117.866C231.453 119.368 233.62 120.239 234.825 119.616C239.071 117.42 237.536 112.588 231.645 109.607C229.661 108.603 229.364 108.297 229.364 107.249C229.364 104.154 225.091 102.835 223.024 105.292ZM393.235 113.893C391.569 114.581 391.46 115.428 391.46 127.609C391.46 140.962 391.518 141.217 394.545 141.217C397.577 141.217 397.631 140.978 397.631 127.476C397.631 113.769 397.149 112.278 393.235 113.893ZM383.772 118.007C382.14 118.681 381.997 119.621 381.997 129.666C381.997 140.724 382.129 141.217 385.083 141.217C388.042 141.217 388.168 140.739 388.168 129.533C388.168 118.109 387.537 116.454 383.772 118.007ZM374.31 122.122C372.726 122.776 372.535 123.809 372.535 131.723C372.535 140.494 372.77 141.217 375.62 141.217C378.479 141.217 378.706 140.509 378.706 131.59C378.706 122.431 377.879 120.649 374.31 122.122ZM364.848 126.236C363.339 126.859 363.072 127.989 363.072 133.78C363.072 140.278 363.462 141.217 366.158 141.217C368.866 141.217 369.244 140.292 369.244 133.647C369.244 126.728 368.144 124.875 364.848 126.236ZM355.385 130.35C353.442 131.152 352.725 138.223 354.38 140.266C356.877 143.351 359.781 140.898 359.781 135.704C359.781 130.986 358.279 129.156 355.385 130.35ZM64.1834 132.359C61.9206 132.514 59.6064 132.897 59.0407 133.211C57.7008 133.954 54.4277 137.773 54.0557 138.415L53.7023 139.066C53.2284 139.657 53.1938 146.41 53.9224 148.548C56.1625 155.122 72.6868 159.918 83.4694 157.122C90.8567 156.035 97.5762 150.693 98.8409 147.667C99.5284 146.023 99.3849 140.445 98.9376 139.887L98.5361 138.845C98.1648 137.727 94.2632 133.493 92.4451 132.891C90.8028 132.346 70.0649 131.956 64.1834 132.359Z" fill="#FA9823"/>
<rect x="64.4408" y="103.564" width="23.8241" height="23.8241" rx="11.9121" fill="#FA9823"/>
<path opacity="0.5" d="M395.138 202.73L383.391 204.544C382.773 204.64 382.195 204.216 382.099 203.598C382.004 202.98 382.427 202.402 383.045 202.307L395.448 200.391C396.321 200.256 397.139 200.855 397.274 201.729L399.017 213.012L410.301 211.269C411.175 211.134 411.992 211.733 412.127 212.607L414.043 225.009C414.139 225.627 413.715 226.206 413.097 226.301C412.479 226.396 411.901 225.973 411.806 225.355L409.991 213.608L398.707 215.351C397.834 215.486 397.016 214.887 396.881 214.013L395.138 202.73Z" fill="#FA9823" stroke="#FA9823" stroke-width="4"/>
<path opacity="0.5" d="M40.1989 31.3167L28.3128 31.3985C27.6876 31.4028 27.1773 30.8995 27.173 30.2743C27.1687 29.6491 27.672 29.1388 28.2972 29.1345L40.8464 29.0481C41.7306 29.042 42.4522 29.7538 42.4583 30.638L42.5369 42.0552L53.9541 41.9766C54.8383 41.9705 55.5599 42.6823 55.566 43.5665L55.6524 56.1157C55.6567 56.7409 55.1534 57.2512 54.5282 57.2555C53.903 57.2598 53.3927 56.7565 53.3884 56.1313L53.3066 44.2452L41.8894 44.3238C41.0052 44.3299 40.2835 43.618 40.2774 42.7339L40.1989 31.3167Z" fill="#FA9823" stroke="#FA9823" stroke-width="4"/>
<path opacity="0.5" d="M149.989 208.589L137.076 219.386C135.895 220.373 134.088 219.712 133.823 218.195L130.929 201.615C130.664 200.098 132.141 198.863 133.586 199.392L149.393 205.176C150.839 205.705 151.17 207.601 149.989 208.589Z" fill="#FA9823" fill-opacity="0.25" stroke="#FA9823" stroke-width="6"/>
<path opacity="0.5" d="M257.898 30.4862L271.997 21.2921C273.286 20.4511 275.003 21.3215 275.086 22.8589L275.999 39.6656C276.083 41.2029 274.471 42.2542 273.098 41.5578L258.086 33.9452C256.713 33.2489 256.608 31.3272 257.898 30.4862Z" fill="#FA9823" fill-opacity="0.25" stroke="#FA9823" stroke-width="6"/>
<rect opacity="0.3" x="25.4759" y="210.114" width="8.5" height="8.5" rx="4.25" transform="rotate(-8.87307 25.4759 210.114)" fill="#FA9823" fill-opacity="0.25" stroke="#FA9823" stroke-width="4.5"/>
<rect opacity="0.3" x="131.831" y="68.3809" width="8.44958" height="8.44958" rx="4.22479" transform="rotate(-8.87307 131.831 68.3809)" fill="#FA9823" fill-opacity="0.25" stroke="#FA9823" stroke-width="4.5"/>
<rect opacity="0.3" x="299.462" y="219.886" width="9.49529" height="9.49529" rx="4.74765" transform="rotate(-8.87307 299.462 219.886)" fill="#FA9823" fill-opacity="0.25" stroke="#FA9823" stroke-width="4.5"/>
<path opacity="0.5" d="M421.877 34.4313L414.118 30.7474C412.379 29.922 412.186 27.5241 413.77 26.4312L420.84 21.5536C422.424 20.4607 424.597 21.4925 424.752 23.4108L425.441 31.9723C425.595 33.8906 423.615 35.2567 421.877 34.4313Z" fill="#FA9823" fill-opacity="0.25" stroke="#FA9823" stroke-width="5"/>
<rect opacity="0.3" x="353.612" y="49.5616" width="12.6636" height="12.6636" rx="6.33179" transform="rotate(5.55212 353.612 49.5616)" fill="#FA9823" fill-opacity="0.25" stroke="#FA9823" stroke-width="4.5"/>
</svg>
