<svg width="450" height="251" viewBox="0 0 450 251" fill="none" xmlns="http://www.w3.org/2000/svg">
<path fill-rule="evenodd" clip-rule="evenodd" d="M127.321 34.2714C125.672 34.9622 123.393 37.1112 121.91 39.3743C120.843 41.0016 120.755 45.9531 120.584 113.549C120.382 193.459 120.086 188.046 124.88 192.266L127.834 194.865H159.2H190.566V204.368V213.871H187.659C183.716 213.871 183.848 217.638 187.296 217.902C194.528 218.457 252.796 218.457 260.037 217.902C263.058 217.671 262.922 214.333 259.873 213.88L256.76 213.871V204.368V194.865H289.265C326.029 194.865 323.398 195.237 327.6 189.438L329.508 186.804V114.375V41.9473L327.875 39.1613C326.978 37.629 325.247 35.7598 324.03 35.0074L321.816 33.6396L225.224 33.6809C172.098 33.7039 128.042 33.97 127.321 34.2714ZM322.543 40.1057L324.342 41.9847L324.737 105.644L325.131 169.305H224.98H124.829L125.185 105.596L125.54 41.887L127.588 40.0572L129.636 38.2274H225.189H320.743L322.543 40.1057ZM174.072 42.8151C150.401 42.9953 130.789 43.3885 130.489 43.6887C129.775 44.4031 129.775 163.13 130.489 163.843C131.181 164.536 318.733 164.569 319.425 163.877C320.135 163.168 320.607 79.3961 320.014 59.6054C319.541 43.8283 319.498 43.4514 318.128 43.1644C315.866 42.6899 220.805 42.4592 174.072 42.8151ZM315.089 103.766V160.129H224.974H134.858V103.766V47.4028H224.974H315.089V103.766ZM243.785 61.0021C243.088 61.993 242.06 63.7003 241.502 64.7948C239.923 67.8889 232.104 75.998 227.669 79.1425C219.316 85.0633 214.336 86.7404 196.366 89.6864C182.391 91.977 182.839 91.8478 180.012 94.4019C176.133 97.9062 175.862 99.8816 177.771 110.766C179.729 121.924 179.984 122.632 182.989 125.271C185.412 127.398 186.088 127.596 191.139 127.654L194.005 127.688L196.795 135.832C200.401 146.356 201.411 147.097 208.401 144.348C214.846 141.814 215.445 139.354 212.209 128.705C210.679 123.671 210.212 124.302 216.154 123.375C231.992 120.904 252.964 126.855 256.828 134.917C257.874 137.099 259.829 137.486 260.936 135.731C261.562 134.738 258.813 115.019 257.607 111.847C257.447 111.426 258.592 110.517 260.151 109.826C273.082 104.106 269.269 84.7598 255.211 84.7598H252.964L251.885 78.8908C251.292 75.6631 250.687 72.0499 250.539 70.8624C249.619 63.4276 249.332 62.0009 248.49 60.6744C247.227 58.684 245.322 58.817 243.785 61.0021ZM250.103 97.8007C252.697 112.723 254.736 125.014 254.636 125.115C254.535 125.216 252.404 124.303 249.9 123.088C241.75 119.13 236.033 117.911 225.482 117.882L216.159 117.857L215.828 116.218C215.646 115.317 214.748 110.304 213.832 105.077C212.917 99.8501 212.01 94.7964 211.818 93.8461C211.485 92.205 211.693 92.0497 215.958 90.754C225.287 87.9208 238.787 78.341 243.424 71.2641C245.057 68.7723 245.055 68.7625 250.103 97.8007ZM260.392 92.1926C263.968 95.769 264.173 99.2439 261.028 102.982C258.865 105.553 256.859 106.084 256.443 104.197C255.747 101.032 254.138 91.7633 254.138 90.9139C254.138 89.0651 258.068 89.8692 260.392 92.1926ZM208.751 105.857C209.906 112.774 210.746 118.54 210.617 118.67C210.488 118.799 205.658 119.731 199.885 120.741C185.157 123.32 185.278 123.392 183.025 110.648C182.452 107.403 181.813 103.804 181.605 102.649C180.928 98.8729 183.648 97.03 191.877 95.691C195.662 95.075 200.233 94.3134 202.035 93.9988C203.838 93.6842 205.613 93.3932 205.981 93.3533C206.352 93.3126 207.586 98.8874 208.751 105.857ZM207.516 130.801C209.403 137.993 209.36 138.383 206.552 139.557C203.668 140.761 204.167 141.33 201.398 133.681C198.623 126.015 198.635 126.205 200.888 125.863C206.18 125.062 205.968 124.904 207.516 130.801ZM324.804 180.135C324.553 185.878 324.387 186.52 322.744 188.164L320.958 189.949H224.974H128.989L127.203 188.164C125.56 186.52 125.395 185.878 125.144 180.135L124.871 173.892H224.974H325.077L324.804 180.135ZM252.026 204.532L252.208 213.871H224.008H195.809V204.361V194.851L223.827 195.021L251.845 195.193L252.026 204.532Z" fill="#023047"/>
<rect opacity="0.3" x="353.702" y="32.5233" width="23" height="23" rx="11.5" transform="rotate(13.6802 353.702 32.5233)" fill="#023047" fill-opacity="0.25" stroke="#023047" stroke-width="5"/>
<rect opacity="0.3" x="423.234" y="88.2998" width="9.5" height="9.5" rx="4.75" transform="rotate(13.6802 423.234 88.2998)" fill="#023047" fill-opacity="0.25" stroke="#023047" stroke-width="4.5"/>
<path opacity="0.3" d="M362.292 202.7L352.059 208.748C351.521 209.066 350.827 208.887 350.508 208.349C350.19 207.811 350.369 207.117 350.907 206.799L361.711 200.413C362.472 199.963 363.454 200.216 363.903 200.977L369.713 210.806L379.542 204.997C380.303 204.547 381.285 204.799 381.735 205.56L388.12 216.364C388.438 216.902 388.259 217.597 387.721 217.915C387.183 218.233 386.489 218.054 386.171 217.516L380.123 207.283L370.294 213.093C369.533 213.542 368.551 213.29 368.101 212.529L362.292 202.7Z" fill="#FA9823" stroke="#023047" stroke-width="4"/>
<path opacity="0.3" d="M369.234 136.551L370.679 121.367C370.825 119.834 372.576 119.034 373.83 119.927L386.257 128.77C387.512 129.663 387.329 131.579 385.929 132.219L372.057 138.56C370.656 139.2 369.088 138.084 369.234 136.551Z" fill="#023047" fill-opacity="0.25" stroke="#023047" stroke-width="6"/>
<rect opacity="0.3" x="118.824" y="220.818" width="10" height="10" rx="5" fill="#023047" fill-opacity="0.25" stroke="#023047" stroke-width="5"/>
<rect opacity="0.3" x="71.9374" y="108.167" width="12.5" height="12.5" rx="6.25" fill="#023047" fill-opacity="0.25" stroke="#023047" stroke-width="4.5"/>
<rect opacity="0.3" x="25.4374" y="145.042" width="8.5" height="8.5" rx="4.25" fill="#023047" fill-opacity="0.25" stroke="#023047" stroke-width="4.5"/>
<path opacity="0.3" d="M42.8868 48.9309L31.5555 52.5205C30.9594 52.7093 30.3232 52.3792 30.1344 51.7832C29.9456 51.1872 30.2757 50.551 30.8717 50.3622L42.8353 46.5722C43.6782 46.3052 44.5779 46.7721 44.8449 47.6149L48.293 58.4993L59.1774 55.0513C60.0203 54.7842 60.92 55.2511 61.187 56.094L64.977 68.0575C65.1658 68.6535 64.8357 69.2898 64.2397 69.4786C63.6437 69.6674 63.0074 69.3373 62.8186 68.7413L59.229 57.4099L48.3446 60.8579C47.5017 61.125 46.6019 60.6581 46.3349 59.8152L42.8868 48.9309Z" fill="#FA9823" stroke="#023047" stroke-width="4"/>
<path opacity="0.3" d="M82.9653 192.179L62.874 199.711C61.4323 200.251 59.9463 199.028 60.1991 197.51L63.7223 176.344C63.9752 174.826 65.7772 174.15 66.966 175.129L83.5341 188.762C84.7229 189.741 84.4069 191.639 82.9653 192.179Z" fill="#023047" fill-opacity="0.25" stroke="#023047" stroke-width="6"/>
<path opacity="0.3" d="M105.98 37.9827L98.1655 41.5478C96.4146 42.3465 94.4555 40.9504 94.6392 39.0347L95.459 30.4846C95.6427 28.5689 97.8313 27.5705 99.3985 28.6874L106.393 33.6724C107.96 34.7893 107.731 37.1839 105.98 37.9827Z" fill="#023047" fill-opacity="0.25" stroke="#023047" stroke-width="5"/>
<path fill-rule="evenodd" clip-rule="evenodd" d="M277.301 70.1925C278.154 70.8943 278.276 72.1546 277.575 73.0076L272.228 79.5054C271.527 80.3584 270.266 80.481 269.413 79.7792C268.56 79.0774 268.438 77.817 269.14 76.964L274.486 70.4662C275.188 69.6132 276.448 69.4907 277.301 70.1925Z" fill="#023047"/>
<path fill-rule="evenodd" clip-rule="evenodd" d="M278.347 73.643L273.001 80.1408C271.948 81.4203 270.057 81.6041 268.778 80.5514C267.498 79.4987 267.315 77.6081 268.367 76.3287L273.714 69.8308C274.766 68.5514 276.657 68.3676 277.936 69.4202C279.216 70.4729 279.4 72.3635 278.347 73.643ZM277.575 73.0076C278.276 72.1546 278.154 70.8943 277.301 70.1925C276.448 69.4907 275.188 69.6132 274.486 70.4662L269.14 76.964C268.438 77.817 268.56 79.0774 269.413 79.7792C270.266 80.481 271.527 80.3584 272.228 79.5054L277.575 73.0076Z" fill="#023047"/>
<path fill-rule="evenodd" clip-rule="evenodd" d="M289.612 90.6216C289.831 91.7041 289.132 92.7597 288.049 92.9794L279.803 94.6529C278.72 94.8726 277.665 94.1732 277.445 93.0907C277.225 92.0082 277.925 90.9525 279.007 90.7329L287.254 89.0593C288.336 88.8396 289.392 89.5391 289.612 90.6216Z" fill="#023047"/>
<path fill-rule="evenodd" clip-rule="evenodd" d="M288.248 93.9594L280.002 95.633C278.378 95.9625 276.795 94.9133 276.465 93.2896C276.135 91.6658 277.185 90.0824 278.808 89.7528L287.055 88.0793C288.679 87.7498 290.262 88.799 290.592 90.4227C290.921 92.0465 289.872 93.6299 288.248 93.9594ZM288.049 92.9794C289.132 92.7597 289.831 91.7041 289.612 90.6216C289.392 89.5391 288.336 88.8396 287.254 89.0593L279.007 90.7329C277.925 90.9525 277.225 92.0082 277.445 93.0907C277.665 94.1732 278.72 94.8726 279.803 94.6529L288.049 92.9794Z" fill="#023047"/>
<path fill-rule="evenodd" clip-rule="evenodd" d="M286.491 115.697C285.908 116.635 284.674 116.922 283.736 116.339L276.592 111.893C275.655 111.309 275.367 110.076 275.951 109.138C276.535 108.2 277.768 107.913 278.706 108.497L285.85 112.943C286.788 113.526 287.075 114.759 286.491 115.697Z" fill="#023047"/>
<path fill-rule="evenodd" clip-rule="evenodd" d="M283.208 117.188L276.064 112.742C274.657 111.866 274.227 110.016 275.102 108.61C275.977 107.203 277.827 106.772 279.234 107.648L286.378 112.094C287.785 112.969 288.216 114.819 287.34 116.226C286.465 117.632 284.615 118.063 283.208 117.188ZM283.736 116.339C284.674 116.922 285.908 116.635 286.491 115.697C287.075 114.759 286.788 113.526 285.85 112.943L278.706 108.497C277.768 107.913 276.535 108.2 275.951 109.138C275.367 110.076 275.655 111.309 276.592 111.893L283.736 116.339Z" fill="#023047"/>
</svg>
