<svg width="451" height="251" viewBox="0 0 451 251" fill="none" xmlns="http://www.w3.org/2000/svg">
<path fill-rule="evenodd" clip-rule="evenodd" d="M128.078 34.2714C126.429 34.9622 124.15 37.1112 122.667 39.3743C121.6 41.0016 121.512 45.9531 121.341 113.549C121.139 193.459 120.843 188.046 125.637 192.266L128.591 194.865H159.957H191.323V204.368V213.871H188.416C184.473 213.871 184.605 217.638 188.052 217.902C195.285 218.457 253.553 218.457 260.794 217.902C263.814 217.671 263.679 214.333 260.63 213.88L257.517 213.871V204.368V194.865H290.021C326.786 194.865 324.155 195.237 328.357 189.438L330.265 186.804V114.375V41.9473L328.632 39.1613C327.734 37.629 326.004 35.7598 324.786 35.0074L322.573 33.6396L225.981 33.6809C172.855 33.7039 128.799 33.97 128.078 34.2714ZM323.299 40.1057L325.099 41.9847L325.494 105.644L325.888 169.305H225.737H125.586L125.941 105.596L126.297 41.887L128.345 40.0572L130.393 38.2274H225.946H321.5L323.299 40.1057ZM174.829 42.8151C151.158 42.9953 131.546 43.3885 131.245 43.6887C130.532 44.4031 130.532 163.13 131.245 163.843C131.938 164.536 319.49 164.569 320.182 163.877C320.892 163.168 321.364 79.3961 320.771 59.6054C320.298 43.8283 320.254 43.4514 318.885 43.1644C316.623 42.6899 221.562 42.4592 174.829 42.8151ZM315.846 103.766V160.129H225.731H135.615V103.766V47.4028H225.731H315.846V103.766ZM244.542 61.0021C243.845 61.993 242.817 63.7003 242.259 64.7948C240.68 67.8889 232.861 75.998 228.426 79.1425C220.073 85.0633 215.093 86.7404 197.123 89.6864C183.148 91.977 183.596 91.8478 180.769 94.4019C176.89 97.9062 176.619 99.8816 178.528 110.766C180.486 121.924 180.741 122.632 183.746 125.271C186.169 127.398 186.845 127.596 191.896 127.654L194.762 127.688L197.552 135.832C201.158 146.356 202.168 147.097 209.158 144.348C215.603 141.814 216.202 139.354 212.966 128.705C211.436 123.671 210.969 124.302 216.91 123.375C232.749 120.904 253.721 126.855 257.585 134.917C258.631 137.099 260.585 137.486 261.693 135.731C262.319 134.738 259.57 115.019 258.364 111.847C258.204 111.426 259.349 110.517 260.908 109.826C273.839 104.106 270.026 84.7598 255.968 84.7598H253.721L252.642 78.8908C252.049 75.6631 251.443 72.0499 251.296 70.8624C250.376 63.4276 250.089 62.0009 249.247 60.6744C247.984 58.684 246.078 58.817 244.542 61.0021ZM250.86 97.8007C253.454 112.723 255.493 125.014 255.393 125.115C255.292 125.216 253.161 124.303 250.657 123.088C242.507 119.13 236.79 117.911 226.239 117.882L216.916 117.857L216.585 116.218C216.403 115.317 215.505 110.304 214.589 105.077C213.673 99.8501 212.767 94.7964 212.574 93.8461C212.241 92.205 212.45 92.0497 216.715 90.754C226.044 87.9208 239.544 78.341 244.181 71.2641C245.814 68.7723 245.812 68.7625 250.86 97.8007ZM261.148 92.1926C264.725 95.769 264.93 99.2439 261.785 102.982C259.622 105.553 257.616 106.084 257.2 104.197C256.504 101.032 254.895 91.7633 254.895 90.9139C254.895 89.0651 258.825 89.8692 261.148 92.1926ZM209.508 105.857C210.663 112.774 211.503 118.54 211.374 118.67C211.245 118.799 206.415 119.731 200.642 120.741C185.914 123.32 186.035 123.392 183.782 110.648C183.208 107.403 182.569 103.804 182.362 102.649C181.685 98.8729 184.405 97.03 192.634 95.691C196.418 95.075 200.99 94.3134 202.792 93.9988C204.594 93.6842 206.37 93.3932 206.738 93.3533C207.108 93.3126 208.343 98.8874 209.508 105.857ZM208.272 130.801C210.16 137.993 210.117 138.383 207.309 139.557C204.425 140.761 204.923 141.33 202.154 133.681C199.38 126.015 199.392 126.205 201.645 125.863C206.937 125.062 206.725 124.904 208.272 130.801ZM325.561 180.135C325.309 185.878 325.144 186.52 323.501 188.164L321.715 189.949H225.731H129.746L127.96 188.164C126.317 186.52 126.152 185.878 125.901 180.135L125.628 173.892H225.731H325.834L325.561 180.135ZM252.783 204.532L252.965 213.871H224.765H196.566V204.361V194.851L224.584 195.021L252.602 195.193L252.783 204.532Z" fill="#FA9823"/>
<rect opacity="0.3" x="354.459" y="32.5233" width="23" height="23" rx="11.5" transform="rotate(13.6802 354.459 32.5233)" fill="#FA9823" fill-opacity="0.25" stroke="#FA9823" stroke-width="5"/>
<rect opacity="0.3" x="423.991" y="88.2998" width="9.5" height="9.5" rx="4.75" transform="rotate(13.6802 423.991 88.2998)" fill="#FA9823" fill-opacity="0.25" stroke="#FA9823" stroke-width="4.5"/>
<path opacity="0.3" d="M363.049 202.7L352.816 208.748C352.278 209.066 351.583 208.887 351.265 208.349C350.947 207.811 351.126 207.117 351.664 206.799L362.468 200.413C363.229 199.963 364.21 200.216 364.66 200.977L370.47 210.806L380.299 204.997C381.06 204.547 382.042 204.799 382.491 205.56L388.877 216.364C389.195 216.902 389.016 217.597 388.478 217.915C387.94 218.233 387.246 218.054 386.928 217.516L380.88 207.283L371.051 213.093C370.289 213.542 369.308 213.29 368.858 212.529L363.049 202.7Z" fill="#FA9823" stroke="#FA9823" stroke-width="4"/>
<path opacity="0.3" d="M369.991 136.551L371.436 121.367C371.582 119.834 373.333 119.034 374.587 119.927L387.014 128.77C388.269 129.663 388.086 131.579 386.686 132.219L372.814 138.56C371.413 139.2 369.845 138.084 369.991 136.551Z" fill="#FA9823" fill-opacity="0.25" stroke="#FA9823" stroke-width="6"/>
<rect opacity="0.3" x="119.581" y="220.818" width="10" height="10" rx="5" fill="#FA9823" fill-opacity="0.25" stroke="#FA9823" stroke-width="5"/>
<rect opacity="0.3" x="72.6943" y="108.167" width="12.5" height="12.5" rx="6.25" fill="#FA9823" fill-opacity="0.25" stroke="#FA9823" stroke-width="4.5"/>
<rect opacity="0.3" x="26.1943" y="145.042" width="8.5" height="8.5" rx="4.25" fill="#FA9823" fill-opacity="0.25" stroke="#FA9823" stroke-width="4.5"/>
<path opacity="0.3" d="M43.6437 48.9309L32.3123 52.5205C31.7163 52.7093 31.0801 52.3792 30.8913 51.7832C30.7025 51.1872 31.0326 50.551 31.6286 50.3622L43.5922 46.5722C44.435 46.3052 45.3348 46.7721 45.6018 47.6149L49.0499 58.4993L59.9343 55.0513C60.7772 54.7842 61.6769 55.2511 61.9439 56.094L65.7339 68.0575C65.9227 68.6535 65.5926 69.2898 64.9966 69.4786C64.4005 69.6674 63.7643 69.3373 63.5755 68.7413L59.9858 57.4099L49.1015 60.8579C48.2586 61.125 47.3588 60.6581 47.0918 59.8152L43.6437 48.9309Z" fill="#FA9823" stroke="#FA9823" stroke-width="4"/>
<path opacity="0.3" d="M83.7222 192.179L63.6309 199.711C62.1893 200.251 60.7032 199.028 60.956 197.51L64.4793 176.344C64.7321 174.826 66.5341 174.15 67.723 175.129L84.291 188.762C85.4798 189.741 85.1638 191.639 83.7222 192.179Z" fill="#FA9823" fill-opacity="0.25" stroke="#FA9823" stroke-width="6"/>
<path opacity="0.3" d="M106.737 37.9827L98.9224 41.5478C97.1715 42.3465 95.2125 40.9504 95.3961 39.0347L96.2159 30.4846C96.3996 28.5689 98.5882 27.5705 100.155 28.6874L107.15 33.6724C108.717 34.7893 108.488 37.1839 106.737 37.9827Z" fill="#FA9823" fill-opacity="0.25" stroke="#FA9823" stroke-width="5"/>
<path fill-rule="evenodd" clip-rule="evenodd" d="M276.56 69.3326C277.413 70.0344 277.536 71.2948 276.834 72.1478L271.488 78.6456C270.786 79.4986 269.525 79.6211 268.672 78.9193C267.819 78.2175 267.697 76.9571 268.399 76.1042L273.745 69.6063C274.447 68.7534 275.707 68.6308 276.56 69.3326Z" fill="#FA9823"/>
<path fill-rule="evenodd" clip-rule="evenodd" d="M277.606 72.7831L272.26 79.2809C271.207 80.5604 269.316 80.7442 268.037 79.6915C266.758 78.6388 266.574 76.7482 267.626 75.4688L272.973 68.971C274.025 67.6915 275.916 67.5077 277.195 68.5604C278.475 69.6131 278.659 71.5037 277.606 72.7831ZM276.834 72.1478C277.536 71.2948 277.413 70.0344 276.56 69.3326C275.707 68.6308 274.447 68.7534 273.745 69.6063L268.399 76.1042C267.697 76.9571 267.819 78.2175 268.672 78.9193C269.525 79.6211 270.786 79.4986 271.488 78.6456L276.834 72.1478Z" fill="#FA9823"/>
<path fill-rule="evenodd" clip-rule="evenodd" d="M288.871 89.7617C289.09 90.8442 288.391 91.8999 287.308 92.1196L279.062 93.7931C277.979 94.0128 276.924 93.3133 276.704 92.2308C276.484 91.1483 277.184 90.0927 278.266 89.873L286.513 88.1995C287.595 87.9798 288.651 88.6792 288.871 89.7617Z" fill="#FA9823"/>
<path fill-rule="evenodd" clip-rule="evenodd" d="M287.507 93.0996L279.261 94.7731C277.637 95.1026 276.054 94.0535 275.724 92.4297C275.395 90.8059 276.444 89.2225 278.068 88.893L286.314 87.2194C287.938 86.8899 289.521 87.9391 289.851 89.5629C290.18 91.1866 289.131 92.7701 287.507 93.0996ZM287.308 92.1196C288.391 91.8999 289.09 90.8442 288.871 89.7617C288.651 88.6792 287.595 87.9798 286.513 88.1995L278.266 89.873C277.184 90.0927 276.484 91.1483 276.704 92.2308C276.924 93.3133 277.979 94.0128 279.062 93.7931L287.308 92.1196Z" fill="#FA9823"/>
<path fill-rule="evenodd" clip-rule="evenodd" d="M285.75 114.837C285.167 115.775 283.933 116.062 282.996 115.479L275.851 111.033C274.914 110.449 274.627 109.216 275.21 108.278C275.794 107.34 277.027 107.053 277.965 107.637L285.109 112.083C286.047 112.666 286.334 113.9 285.75 114.837Z" fill="#FA9823"/>
<path fill-rule="evenodd" clip-rule="evenodd" d="M282.467 116.328L275.323 111.882C273.916 111.006 273.486 109.156 274.361 107.75C275.237 106.343 277.087 105.912 278.493 106.788L285.637 111.234C287.044 112.109 287.475 113.959 286.599 115.366C285.724 116.772 283.874 117.203 282.467 116.328ZM282.996 115.479C283.933 116.062 285.167 115.775 285.75 114.837C286.334 113.9 286.047 112.666 285.109 112.083L277.965 107.637C277.027 107.053 275.794 107.34 275.21 108.278C274.627 109.216 274.914 110.449 275.851 111.033L282.996 115.479Z" fill="#FA9823"/>
</svg>
