<svg width="283" height="286" viewBox="0 0 283 286" fill="none" xmlns="http://www.w3.org/2000/svg">
<path fill-rule="evenodd" clip-rule="evenodd" d="M162.632 1.31531C156.894 2.01654 154.62 2.4663 143.768 5.04585L135.519 7.00687L129.05 5.74708C101.37 0.357292 68.4081 5.98307 48.5104 19.4936C33.9626 29.3712 24.4136 45.895 20.7771 67.4832C20.5035 69.1081 20.3723 69.2546 19.6962 68.6922C18.1825 67.4329 11.4032 67.8517 9.25832 69.3369C3.25161 73.4964 2.8207 80.6953 8.25801 86.0382C11.768 89.4877 11.6561 89.2367 10.4516 90.9492C-2.29234 109.069 -3.4601 145.382 7.86232 171.48L9.72301 175.769L8.12434 179.031C-6.21301 208.282 8.34969 238.925 38.6096 243.178C41.5338 243.589 44.3605 244.021 44.8913 244.138C45.4221 244.255 47.1593 246 48.7517 248.016C61.9188 264.685 76.6707 275.544 93.9516 281.289C106.625 285.501 107.76 285.663 124.511 285.636C140.587 285.609 148.228 284.776 160.01 281.767C161.487 281.389 163.224 281.078 163.87 281.074C166.145 281.062 178.151 276.654 184.829 273.379C201.583 265.162 213.71 254.467 226.234 236.864C227.988 234.399 228.753 233.682 229.371 233.919C238.729 237.525 255.808 234.335 265.097 227.247C284.976 212.077 287.287 191.569 271.676 168.857L268.168 163.752L270.892 163.935C281.371 164.639 286.285 150.769 277.636 144.905C275.342 143.35 271.337 142.286 267.775 142.286C264.908 142.286 264.858 141.904 267.083 136.954C273.646 122.345 273.502 112.127 266.444 91.5073C265.761 89.5124 264.298 84.2895 263.192 79.9007C256.656 53.9437 249.403 39.4805 236.609 26.8864C216.535 7.1268 190.031 -2.03462 162.632 1.31531ZM187.166 23.0993C218.627 31.0527 232.868 47.3304 243.211 87.1548C245.258 95.0405 245.932 97.4165 246.64 99.245C251.807 112.605 251.815 119.674 246.674 130.737C244.358 135.722 242.023 142.771 241.947 145.003C241.913 146.035 241.705 145.139 241.486 143.011C239.765 126.301 238.803 121.38 234.462 107.1C232.578 100.902 231.069 98.7396 227.551 97.1906C223.879 95.5744 222.305 95.4153 214.524 95.8728C207.1 96.3095 207.018 96.3032 206.202 95.2402C205.749 94.6502 204.895 93.5399 204.304 92.7734C199.705 86.8134 187.661 88.905 186.203 95.9168C185.85 97.6162 183.916 97.7975 166.301 97.7816C130.122 97.7487 109.429 94.0544 77.2855 81.8917C72.75 80.1754 71.7738 79.6028 70.0661 77.6583C64.1796 70.9565 53.1061 72.9354 50.4295 81.1673C50.0936 82.1998 47.6563 86.8303 45.0129 91.4579C31.9968 114.245 25.576 129.871 23.185 144.581C22.2402 150.393 21.4981 145.538 21.4923 133.508C21.4831 115.234 24.3822 106.219 33.5047 96.1533C37.6594 91.5692 38.4329 89.8887 39.538 83.0442C45.1446 48.3227 52.2313 37.754 75.0503 30.0811C99.98 21.6983 125.852 23.5534 151.292 35.5478C153.814 36.7365 157.831 38.6386 160.219 39.7755C165.334 42.209 168.24 42.6578 171.298 41.4875C178.883 38.5844 180.521 29.1115 174.397 23.566L172.347 21.7099L178.27 22.0291C181.529 22.2047 185.531 22.6863 187.166 23.0993ZM82.2885 106.149C112.121 116.347 133.664 119.43 172.058 118.993L190.137 118.788L191.585 120.972C196.803 128.848 208.765 127.298 210.91 118.468C211.199 117.275 211.444 117.138 213.299 117.138H215.365L216.414 121.032C220.254 135.296 220.89 146.136 218.535 157.159C217.561 161.72 218.337 161.656 207.394 158.074C184.734 150.656 161.142 148.857 139.753 152.915C135.749 153.675 134.311 153.721 128.346 153.277C121.977 152.803 121.241 152.84 117.33 153.823C113.933 154.677 112.937 154.767 112.07 154.301C110.767 153.6 100.123 151.109 95.7997 150.494C86.5078 149.17 58.4749 154.306 49.446 158.986C48.6923 159.376 47.6848 159.697 47.2075 159.699C46.7298 159.701 45.7961 159.984 45.1326 160.329C42.0472 161.934 42.1075 161.984 42.453 158.128C43.9561 141.362 50.181 124.77 63.7544 101.35L64.6365 99.8277L68.5167 101.297C70.6505 102.106 76.8478 104.289 82.2885 106.149ZM241.378 150.87C241.257 151.335 241.157 150.955 241.157 150.024C241.157 149.093 241.257 148.712 241.378 149.177C241.5 149.642 241.5 150.405 241.378 150.87ZM99.0342 163.764C110.285 167.312 113.18 192.342 103.41 201.603C95.4783 209.12 70.6645 212.418 60.2932 207.333C52.7848 203.651 45.854 190.777 45.2523 179.392C44.9053 172.822 44.7364 172.987 55.5536 169.336C73.705 163.209 90.4647 161.061 99.0342 163.764ZM178.556 163.628C187.404 164.487 200.102 167.565 203.058 169.568C206.602 171.969 206.753 184.524 203.327 191.957C197.752 204.058 169.559 213.914 154.302 209.096C143.146 205.572 139.467 199.204 139.797 183.984L139.953 176.807L141.796 173.072C146.625 163.288 154.422 161.286 178.556 163.628ZM128.426 169.526C128.459 169.572 128.301 172.874 128.077 176.864C127.295 190.695 128.231 198.066 131.666 205.152C138.84 219.952 159.081 226.207 180.004 220.09C198.605 214.652 206.714 208.709 212.212 196.487C216.042 187.975 217.493 185.269 220.161 181.672L223.05 177.775L226.378 177.784C228.763 177.792 230.32 177.507 231.877 176.779C233.77 175.894 235.688 175.092 240.521 173.166C242.129 172.525 247.447 172.131 248.073 172.606C248.768 173.133 254.946 181.588 256.874 184.652C262.465 193.536 262.004 200.695 255.404 207.526C248.955 214.2 243.659 215.38 231.877 212.77C220.639 210.281 217.929 211.105 213.192 218.454C202.692 234.742 191.344 246.012 178.671 252.738C172.336 256.1 162.528 259.593 154.911 261.2C153.584 261.48 151.522 261.921 150.327 262.181C139.957 264.436 118.26 265.293 110.035 263.771C93.4077 260.696 82.2277 253.914 68.8588 238.793C58.8368 227.458 56.4212 224.452 53.081 219.155L51.9982 217.439L54.4766 218.65C57.0312 219.899 58.4653 220.117 70.7074 221.121C106.781 224.08 124.854 207.123 120.199 174.687C119.492 169.766 119.533 169.577 121.375 169.209C122.391 169.006 128.241 169.269 128.426 169.526ZM160.619 172.707C146.067 177.68 150.122 201.455 165.527 201.486C173.791 201.503 178.597 195.199 179.136 183.634L179.384 178.314L177.764 176.473C174.457 172.714 166.021 170.861 160.619 172.707ZM76.9371 172.826C75.1574 173.192 73.3315 174.462 71.9838 176.27C70.7846 177.88 70.7349 189.585 71.9152 192.417C77.0427 204.716 97.2845 200.897 97.2387 187.639C97.2285 184.76 94.6098 177.716 92.8523 175.841C90.5598 173.395 82.025 171.778 76.9371 172.826ZM28.7261 189.918C28.7261 197.075 32.959 209.469 38.8436 219.542C40.5561 222.473 40.6304 222.432 36.2055 221.007C26.0494 217.734 20.697 202.783 25.687 191.624C26.3438 190.155 27.0787 188.451 27.3199 187.837C28.0211 186.053 28.7261 187.096 28.7261 189.918Z" fill="#130F26"/>
</svg>
