<svg width="417" height="89" viewBox="0 0 417 89" fill="none" xmlns="http://www.w3.org/2000/svg">
<path d="M74.7275 68.0316C74.9828 73.1372 75.7061 77.2642 76.8974 80.4126C78.8545 86.0287 83.6197 88.8368 91.193 88.8368C98.596 88.8368 103.404 86.0287 105.616 80.4126C106.637 77.8598 107.275 74.5837 107.531 70.5844C107.786 66.4999 107.956 60.4158 108.041 52.332H93.4905C93.4905 63.9897 93.4054 71.0949 93.2352 73.6477C93.1501 75.69 92.4694 76.7111 91.193 76.7111C89.9166 76.7111 89.2358 75.69 89.1507 73.6477C88.9806 70.3291 88.8955 60.586 88.8955 44.4184C88.8955 27.3998 88.9806 17.5716 89.1507 14.9338C89.2358 13.0617 89.9166 12.1257 91.193 12.1257C92.4694 12.1257 93.1501 13.0617 93.2352 14.9338C93.4054 17.4865 93.4905 25.6129 93.4905 39.3128H108.041C107.871 22.4645 107.063 12.1683 105.616 8.42417C104.51 5.70121 102.638 3.61644 100 2.16987C97.3622 0.723289 94.4265 0 91.193 0C87.8744 0 84.8961 0.723289 82.2582 2.16987C79.7055 3.61644 77.9185 5.70121 76.8974 8.42417C76.1316 10.4664 75.5359 13.5297 75.1105 17.6142C74.685 21.6135 74.4297 25.3576 74.3446 28.8464V44.4184C74.3446 54.9699 74.4723 62.841 74.7275 68.0316Z" fill="url(#paint0_linear_171_9363)"/>
<path d="M3.3853 80.6679C1.68345 76.9238 0.83252 69.0953 0.83252 57.1823V52.8426H15.3834V57.1823C15.3834 67.2232 15.4685 73.0521 15.6386 74.6688C15.7237 76.0303 16.1917 76.7111 17.0427 76.7111C17.9787 76.7111 18.4893 76.0303 18.5743 74.6688C18.6594 73.0521 18.702 70.2015 18.702 66.117V1.02111H33.2528V57.1823C33.2528 69.0953 32.4019 76.9238 30.7001 80.6679C28.2324 86.1138 23.8926 88.8368 17.6809 88.8368C10.5331 88.8368 5.76789 86.1138 3.3853 80.6679Z" fill="url(#paint1_linear_171_9363)"/>
<path fill-rule="evenodd" clip-rule="evenodd" d="M35.5673 87.8157L46.5442 1.02111H62.3715L73.3484 87.8157H58.6699L57.5212 74.7965H51.2669L50.2458 87.8157H35.5673ZM52.1604 63.5642H56.7554L56.3724 57.1823L54.8408 26.6766H54.0749C53.4793 40.887 52.9687 51.0556 52.5433 57.1823L52.1604 63.5642Z" fill="url(#paint2_linear_171_9363)"/>
<path fill-rule="evenodd" clip-rule="evenodd" d="M113.262 80.4126C112.496 78.5406 111.9 75.6474 111.475 71.7331C111.134 67.7338 110.922 63.9897 110.836 60.5009V44.4184C110.836 24.8471 111.645 12.849 113.262 8.42417C114.283 5.7863 116.112 3.74408 118.75 2.2975C121.388 0.765834 124.366 0 127.685 0C131.003 0 133.982 0.765834 136.619 2.2975C139.257 3.74408 141.087 5.7863 142.108 8.42417C143.725 12.849 144.533 24.8471 144.533 44.4184C144.533 51.6513 144.491 57.0121 144.406 60.5009C144.406 63.9897 144.193 67.7338 143.767 71.7331C143.427 75.6474 142.874 78.5406 142.108 80.4126C139.725 86.0287 134.918 88.8368 127.685 88.8368C120.452 88.8368 115.644 86.0287 113.262 80.4126ZM125.643 73.6477C125.728 75.69 126.408 76.7111 127.685 76.7111C128.961 76.7111 129.642 75.69 129.727 73.6477C129.897 70.3291 129.982 60.586 129.982 44.4184C129.982 27.3998 129.897 17.5716 129.727 14.9338C129.642 13.0617 128.961 12.1257 127.685 12.1257C126.408 12.1257 125.728 13.0617 125.643 14.9338C125.472 17.5716 125.387 27.3998 125.387 44.4184C125.387 60.586 125.472 70.3291 125.643 73.6477Z" fill="url(#paint3_linear_171_9363)"/>
<path fill-rule="evenodd" clip-rule="evenodd" d="M165.453 1.02111H148.605V87.8157H166.602C171.963 87.8157 175.919 86.2414 178.472 83.093C180.174 81.0508 181.28 78.2427 181.791 74.6688C182.301 71.095 182.557 66.2872 182.557 60.2456C182.557 55.3953 182.301 51.8215 181.791 49.5239C181.365 47.2264 180.387 45.3119 178.855 43.7802C177.834 42.7591 176.685 41.9932 175.409 41.4827V41.355C176.855 40.9296 178.089 40.1212 179.11 38.9299C181.408 36.2069 182.557 31.4843 182.557 24.762C182.557 21.3583 182.514 18.7629 182.429 16.976C182.344 15.189 181.918 13.0617 181.153 10.594C180.387 8.12635 179.281 6.16922 177.834 4.72264C175.366 2.25496 171.239 1.02111 165.453 1.02111ZM164.815 75.69H163.155V48.6305H164.432C166.049 48.6305 167.07 49.2261 167.495 50.4174C167.836 51.5236 168.006 54.7997 168.006 60.2456C168.006 67.3934 167.921 71.648 167.75 73.0095C167.58 73.9455 167.282 74.6263 166.857 75.0518C166.517 75.4772 165.836 75.69 164.815 75.69ZM164.049 37.3982H163.155V13.1468H164.942C166.729 13.1468 167.708 14.0828 167.878 15.9549C167.963 16.8909 168.006 19.8266 168.006 24.762C168.006 30.1228 167.793 33.5265 167.368 34.9731C166.942 36.5899 165.836 37.3982 164.049 37.3982Z" fill="url(#paint4_linear_171_9363)"/>
<path d="M280.381 80.4126C279.189 77.2642 278.466 73.1372 278.211 68.0316C277.956 62.841 277.828 54.9699 277.828 44.4184V28.8464C277.913 25.3576 278.168 21.6135 278.594 17.6142C279.019 13.5297 279.615 10.4664 280.381 8.42417C281.402 5.70121 283.189 3.61643 285.741 2.16986C288.379 0.723283 291.358 0 294.676 0C297.91 0 300.845 0.723283 303.483 2.16986C306.121 3.61643 307.993 5.70121 309.099 8.42417C310.546 12.1683 311.354 22.4645 311.525 39.3128H296.974C296.974 25.6129 296.889 17.4865 296.718 14.9338C296.633 13.0617 295.953 12.1257 294.676 12.1257C293.4 12.1257 292.719 13.0617 292.634 14.9338C292.464 17.5716 292.379 27.3999 292.379 44.4184C292.379 60.586 292.464 70.3291 292.634 73.6477C292.719 75.6899 293.4 76.7111 294.676 76.7111C295.953 76.7111 296.633 75.6899 296.718 73.6477C296.889 71.0949 296.974 63.9897 296.974 52.332H311.525C311.439 60.4158 311.269 66.4999 311.014 70.5844C310.759 74.5838 310.121 77.8598 309.099 80.4126C306.887 86.0287 302.079 88.8368 294.676 88.8368C287.103 88.8368 282.338 86.0287 280.381 80.4126Z" fill="url(#paint5_linear_171_9363)"/>
<path d="M202.506 1.02112V87.8157H217.057V49.5239H217.567L222.035 87.8157H237.096L230.076 44.2907L236.33 1.02112H221.652L217.567 39.5681H217.057V1.02112H202.506Z" fill="url(#paint6_linear_171_9363)"/>
<path d="M239.995 57.0546C239.995 68.7974 240.846 76.626 242.548 80.5402C244.93 86.0713 249.695 88.8368 256.843 88.8368C264.076 88.8368 268.841 86.0713 271.139 80.5402C272.841 76.626 273.692 68.7974 273.692 57.0546V1.02112H259.141V69.0527C259.141 69.308 259.098 69.6909 259.013 70.2015V71.6055C259.013 72.031 258.971 72.4564 258.885 72.8819V74.0306C258.715 75.8176 258.034 76.7111 256.843 76.7111C255.652 76.7111 254.971 75.8176 254.801 74.0306C254.631 72.4139 254.546 70.2866 254.546 67.6487V1.02112H239.995V57.0546Z" fill="url(#paint7_linear_171_9363)"/>
<path d="M340.358 1.02112H315.596V87.8157H340.358V75.6899H330.147V48.6305H339.082V37.3982H330.147V13.1468H340.358V1.02112Z" fill="url(#paint8_linear_171_9363)"/>
<path fill-rule="evenodd" clip-rule="evenodd" d="M357.664 87.8157H343.113V1.02112H359.834C365.875 1.02112 370.002 2.25495 372.215 4.72264C373.661 6.25431 374.725 8.50926 375.406 11.4875C376.172 14.3807 376.597 16.7633 376.682 18.6353C376.767 20.5073 376.81 23.1877 376.81 26.6765C376.81 29.7399 376.767 31.9948 376.682 33.4414C376.597 34.888 376.299 36.5048 375.789 38.2917C375.278 40.0787 374.512 41.5678 373.491 42.7591C372.555 43.7802 371.321 44.5886 369.79 45.1842V45.3119C371.236 45.9075 372.428 46.6734 373.364 47.6094C375.661 49.9069 376.81 54.8422 376.81 62.4155V87.8157H362.259V60.8838C362.259 57.4801 362.131 55.2677 361.876 54.2466C361.621 53.0553 360.642 52.4596 358.94 52.4596H357.664V87.8157ZM357.664 41.2274H358.685C360.472 41.2274 361.536 40.419 361.876 38.8023C362.131 37.3557 362.259 33.3138 362.259 26.6765C362.259 21.1455 362.174 17.5716 362.004 15.9549C361.834 14.0828 360.94 13.1468 359.323 13.1468H357.664V41.2274Z" fill="url(#paint9_linear_171_9363)"/>
<path fill-rule="evenodd" clip-rule="evenodd" d="M405.963 1.02112H390.136L379.159 87.8157H393.838L394.859 74.7965H401.113L402.262 87.8157H416.94L405.963 1.02112ZM400.347 63.5642H395.752L396.135 57.1823C396.561 51.0556 397.071 40.887 397.667 26.6765H398.433L399.964 57.1823L400.347 63.5642Z" fill="url(#paint10_linear_171_9363)"/>
<defs>
<linearGradient id="paint0_linear_171_9363" x1="0.83252" y1="0" x2="416.94" y2="88.8369" gradientUnits="userSpaceOnUse">
<stop stop-color="#F03744"/>
<stop offset="1" stop-color="#F03758"/>
</linearGradient>
<linearGradient id="paint1_linear_171_9363" x1="0.83252" y1="0" x2="416.94" y2="88.8369" gradientUnits="userSpaceOnUse">
<stop stop-color="#F03744"/>
<stop offset="1" stop-color="#F03758"/>
</linearGradient>
<linearGradient id="paint2_linear_171_9363" x1="0.83252" y1="0" x2="416.94" y2="88.8369" gradientUnits="userSpaceOnUse">
<stop stop-color="#F03744"/>
<stop offset="1" stop-color="#F03758"/>
</linearGradient>
<linearGradient id="paint3_linear_171_9363" x1="0.83252" y1="0" x2="416.94" y2="88.8369" gradientUnits="userSpaceOnUse">
<stop stop-color="#F03744"/>
<stop offset="1" stop-color="#F03758"/>
</linearGradient>
<linearGradient id="paint4_linear_171_9363" x1="0.83252" y1="0" x2="416.94" y2="88.8369" gradientUnits="userSpaceOnUse">
<stop stop-color="#F03744"/>
<stop offset="1" stop-color="#F03758"/>
</linearGradient>
<linearGradient id="paint5_linear_171_9363" x1="0.83252" y1="0" x2="416.94" y2="88.8369" gradientUnits="userSpaceOnUse">
<stop stop-color="#F03744"/>
<stop offset="1" stop-color="#F03758"/>
</linearGradient>
<linearGradient id="paint6_linear_171_9363" x1="0.83252" y1="0" x2="416.94" y2="88.8369" gradientUnits="userSpaceOnUse">
<stop stop-color="#F03744"/>
<stop offset="1" stop-color="#F03758"/>
</linearGradient>
<linearGradient id="paint7_linear_171_9363" x1="0.83252" y1="0" x2="416.94" y2="88.8369" gradientUnits="userSpaceOnUse">
<stop stop-color="#F03744"/>
<stop offset="1" stop-color="#F03758"/>
</linearGradient>
<linearGradient id="paint8_linear_171_9363" x1="0.83252" y1="0" x2="416.94" y2="88.8369" gradientUnits="userSpaceOnUse">
<stop stop-color="#F03744"/>
<stop offset="1" stop-color="#F03758"/>
</linearGradient>
<linearGradient id="paint9_linear_171_9363" x1="0.83252" y1="0" x2="416.94" y2="88.8369" gradientUnits="userSpaceOnUse">
<stop stop-color="#F03744"/>
<stop offset="1" stop-color="#F03758"/>
</linearGradient>
<linearGradient id="paint10_linear_171_9363" x1="0.83252" y1="0" x2="416.94" y2="88.8369" gradientUnits="userSpaceOnUse">
<stop stop-color="#F03744"/>
<stop offset="1" stop-color="#F03758"/>
</linearGradient>
</defs>
</svg>
