<svg width="306" height="272" viewBox="0 0 306 272" fill="none" xmlns="http://www.w3.org/2000/svg">
<path d="M3.94419 113.605C1.55236 108.343 0.356445 97.3408 0.356445 80.598V74.4988H20.8066V80.598C20.8066 94.7098 20.9262 102.902 21.1654 105.174C21.285 107.088 21.9427 108.044 23.1386 108.044C24.4542 108.044 25.1717 107.088 25.2913 105.174C25.4109 102.902 25.4707 98.8955 25.4707 93.1551V1.66752H45.9208V80.598C45.9208 97.3408 44.7249 108.343 42.3331 113.605C38.8649 121.259 32.7658 125.086 24.0356 125.086C13.9899 125.086 7.29276 121.259 3.94419 113.605Z" fill="url(#paint0_linear_139_328)"/>
<path d="M49.1736 123.651L64.601 1.66752H86.845L102.272 123.651H81.6428L80.0283 105.353H71.2383L69.8032 123.651H49.1736ZM72.494 89.5674H78.952L78.4138 80.598L76.2611 37.7244H75.1848C74.3477 57.6962 73.6301 71.9874 73.0322 80.598L72.494 89.5674Z" fill="url(#paint1_linear_139_328)"/>
<path d="M107.26 113.246C105.586 108.822 104.569 103.021 104.211 95.8459C103.852 88.5508 103.672 77.4886 103.672 62.6592C103.672 52.8527 103.672 45.5576 103.672 40.774C103.792 35.8707 104.151 30.6087 104.749 24.9879C105.347 19.2475 106.184 14.9422 107.26 12.072C108.695 8.24506 111.207 5.31506 114.794 3.28201C118.502 1.24895 122.687 0.232422 127.352 0.232422C131.896 0.232422 136.022 1.24895 139.729 3.28201C143.437 5.31506 146.068 8.24506 147.622 12.072C149.655 17.334 150.791 31.8046 151.031 55.4837H130.58C130.58 36.2295 130.461 24.8085 130.222 21.2207C130.102 18.5897 129.145 17.2742 127.352 17.2742C125.558 17.2742 124.601 18.5897 124.481 21.2207C124.242 24.9281 124.123 38.7409 124.123 62.6592C124.123 85.3816 124.242 99.0749 124.481 103.739C124.601 106.609 125.558 108.044 127.352 108.044C129.145 108.044 130.102 106.609 130.222 103.739C130.461 100.151 130.58 90.1653 130.58 73.7812H151.031C150.911 85.1425 150.672 93.6933 150.313 99.4337C149.954 105.054 149.057 109.659 147.622 113.246C144.513 121.14 137.756 125.086 127.352 125.086C116.708 125.086 110.011 121.14 107.26 113.246Z" fill="url(#paint2_linear_139_328)"/>
<path d="M158.367 113.246C157.291 110.615 156.454 106.549 155.856 101.048C155.378 95.4273 155.079 90.1653 154.959 85.262C154.959 80.3588 154.959 72.8245 154.959 62.6592C154.959 35.1532 156.095 18.2907 158.367 12.072C159.802 8.36465 162.374 5.49445 166.081 3.4614C169.788 1.30875 173.974 0.232422 178.638 0.232422C183.302 0.232422 187.488 1.30875 191.195 3.4614C194.903 5.49445 197.474 8.36465 198.909 12.072C201.181 18.2907 202.317 35.1532 202.317 62.6592C202.317 72.8245 202.257 80.3588 202.138 85.262C202.138 90.1653 201.839 95.4273 201.241 101.048C200.763 106.549 199.985 110.615 198.909 113.246C195.56 121.14 188.803 125.086 178.638 125.086C168.473 125.086 161.716 121.14 158.367 113.246ZM175.768 103.739C175.887 106.609 176.844 108.044 178.638 108.044C180.432 108.044 181.389 106.609 181.508 103.739C181.747 99.0749 181.867 85.3816 181.867 62.6592C181.867 38.7409 181.747 24.9281 181.508 21.2207C181.389 18.5897 180.432 17.2742 178.638 17.2742C176.844 17.2742 175.887 18.5897 175.768 21.2207C175.529 24.9281 175.409 38.7409 175.409 62.6592C175.409 85.3816 175.529 99.0749 175.768 103.739Z" fill="url(#paint3_linear_139_328)"/>
<path d="M208.039 123.651V1.66752H231.719C239.851 1.66752 245.651 3.4016 249.119 6.86976C251.152 8.90281 252.707 11.6534 253.783 15.1216C254.859 18.5897 255.457 21.5795 255.577 24.0909C255.697 26.6024 255.756 30.2499 255.756 35.0336C255.756 44.4813 254.142 51.1186 250.913 54.9456C249.478 56.6199 247.744 57.756 245.711 58.3539V58.5333C247.505 59.2509 249.119 60.3272 250.554 61.7623C252.707 63.9149 254.082 66.6058 254.68 69.8347C255.398 73.0637 255.756 78.0866 255.756 84.9033C255.756 93.3943 255.398 100.151 254.68 105.174C253.963 110.197 252.408 114.143 250.016 117.014C246.428 121.439 240.867 123.651 233.333 123.651H208.039ZM228.49 106.609H230.822C232.257 106.609 233.213 106.31 233.692 105.712C234.29 105.114 234.708 104.158 234.947 102.842C235.187 100.929 235.306 94.949 235.306 84.9033C235.306 77.2494 235.067 72.6451 234.589 71.0904C233.991 69.4162 232.556 68.579 230.283 68.579H228.49V106.609ZM228.49 52.7929H229.745C232.257 52.7929 233.811 51.6568 234.409 49.3846C235.007 47.3515 235.306 42.5678 235.306 35.0336C235.306 28.0973 235.246 23.9713 235.127 22.6558C234.888 20.0248 233.512 18.7093 231.001 18.7093H228.49V52.7929Z" fill="url(#paint4_linear_139_328)"/>
<path d="M3.94419 270.332V148.349H24.3944V202.524H25.1119L30.8523 148.349H51.4819L42.6919 209.161L52.5582 270.332H31.3905L25.1119 216.516H24.3944V270.332H3.94419Z" fill="url(#paint5_linear_139_328)"/>
<path d="M60.22 260.107C57.8281 254.606 56.6322 243.604 56.6322 227.1V148.349H77.0824V241.989C77.0824 245.696 77.202 248.686 77.4412 250.958C77.6804 253.47 78.6371 254.726 80.3114 254.726C81.9856 254.726 82.9424 253.47 83.1816 250.958C83.1816 250.48 83.1816 249.942 83.1816 249.344C83.3012 248.746 83.361 248.148 83.361 247.55C83.361 246.952 83.361 246.294 83.361 245.577C83.4805 244.859 83.5403 244.321 83.5403 243.962C83.5403 243.604 83.5403 243.185 83.5403 242.707C83.5403 242.109 83.5403 241.87 83.5403 241.989V148.349H103.991V227.1C103.991 243.604 102.795 254.606 100.403 260.107C97.1738 267.881 90.4767 271.767 80.3114 271.767C70.2657 271.767 63.5685 267.881 60.22 260.107Z" fill="url(#paint6_linear_139_328)"/>
<path d="M113.392 259.928C111.717 255.503 110.701 249.703 110.342 242.527C109.983 235.232 109.804 224.17 109.804 209.341C109.804 199.534 109.804 192.239 109.804 187.455C109.923 182.552 110.282 177.29 110.88 171.669C111.478 165.929 112.315 161.624 113.392 158.753C114.827 154.926 117.338 151.996 120.926 149.963C124.633 147.93 128.819 146.914 133.483 146.914C138.027 146.914 142.153 147.93 145.861 149.963C149.568 151.996 152.199 154.926 153.754 158.753C155.787 164.015 156.923 178.486 157.162 202.165H136.712C136.712 182.911 136.592 171.49 136.353 167.902C136.234 165.271 135.277 163.956 133.483 163.956C131.689 163.956 130.732 165.271 130.613 167.902C130.374 171.609 130.254 185.422 130.254 209.341C130.254 232.063 130.374 245.756 130.613 250.42C130.732 253.291 131.689 254.726 133.483 254.726C135.277 254.726 136.234 253.291 136.353 250.42C136.592 246.833 136.712 236.847 136.712 220.463H157.162C157.042 231.824 156.803 240.375 156.444 246.115C156.086 251.736 155.189 256.34 153.754 259.928C150.644 267.821 143.887 271.767 133.483 271.767C122.839 271.767 116.142 267.821 113.392 259.928Z" fill="url(#paint7_linear_139_328)"/>
<path d="M162.884 270.332V148.349H197.685V165.391H183.334V199.474H195.892V215.26H183.334V253.291H197.685V270.332H162.884Z" fill="url(#paint8_linear_139_328)"/>
<path d="M201.558 270.332V148.349H225.057C233.548 148.349 239.349 150.083 242.458 153.551C244.491 155.704 245.986 158.873 246.943 163.059C248.019 167.125 248.617 170.473 248.736 173.104C248.856 175.735 248.916 179.503 248.916 184.406C248.916 188.711 248.856 191.88 248.736 193.913C248.617 195.946 248.198 198.219 247.481 200.73C246.763 203.241 245.687 205.334 244.252 207.009C242.936 208.444 241.202 209.58 239.05 210.417V210.596C241.083 211.433 242.757 212.51 244.072 213.825C247.301 217.054 248.916 223.991 248.916 234.634V270.332H228.466V232.482C228.466 227.698 228.286 224.589 227.928 223.153C227.569 221.479 226.193 220.642 223.802 220.642H222.008V270.332H201.558ZM222.008 204.856H223.443C225.954 204.856 227.449 203.72 227.928 201.448C228.286 199.415 228.466 193.734 228.466 184.406C228.466 176.632 228.346 171.609 228.107 169.337C227.868 166.706 226.612 165.391 224.34 165.391H222.008V204.856Z" fill="url(#paint9_linear_139_328)"/>
<path d="M252.218 270.332L267.645 148.349H289.889L305.316 270.332H284.687L283.072 252.035H274.282L272.847 270.332H252.218ZM275.538 236.249H281.996L281.458 227.279L279.305 184.406H278.229C277.392 204.378 276.674 218.669 276.076 227.279L275.538 236.249Z" fill="url(#paint10_linear_139_328)"/>
<defs>
<linearGradient id="paint0_linear_139_328" x1="0.356445" y1="0.232422" x2="443.543" y2="271.768" gradientUnits="userSpaceOnUse">
<stop stop-color="#F03744"/>
<stop offset="1" stop-color="#F03758"/>
</linearGradient>
<linearGradient id="paint1_linear_139_328" x1="0.356445" y1="0.232422" x2="443.543" y2="271.768" gradientUnits="userSpaceOnUse">
<stop stop-color="#F03744"/>
<stop offset="1" stop-color="#F03758"/>
</linearGradient>
<linearGradient id="paint2_linear_139_328" x1="0.356445" y1="0.232422" x2="443.543" y2="271.768" gradientUnits="userSpaceOnUse">
<stop stop-color="#F03744"/>
<stop offset="1" stop-color="#F03758"/>
</linearGradient>
<linearGradient id="paint3_linear_139_328" x1="0.356445" y1="0.232422" x2="443.543" y2="271.768" gradientUnits="userSpaceOnUse">
<stop stop-color="#F03744"/>
<stop offset="1" stop-color="#F03758"/>
</linearGradient>
<linearGradient id="paint4_linear_139_328" x1="0.356445" y1="0.232422" x2="443.543" y2="271.768" gradientUnits="userSpaceOnUse">
<stop stop-color="#F03744"/>
<stop offset="1" stop-color="#F03758"/>
</linearGradient>
<linearGradient id="paint5_linear_139_328" x1="0.356445" y1="0.232422" x2="443.543" y2="271.768" gradientUnits="userSpaceOnUse">
<stop stop-color="#F03744"/>
<stop offset="1" stop-color="#F03758"/>
</linearGradient>
<linearGradient id="paint6_linear_139_328" x1="0.356445" y1="0.232422" x2="443.543" y2="271.768" gradientUnits="userSpaceOnUse">
<stop stop-color="#F03744"/>
<stop offset="1" stop-color="#F03758"/>
</linearGradient>
<linearGradient id="paint7_linear_139_328" x1="0.356445" y1="0.232422" x2="443.543" y2="271.768" gradientUnits="userSpaceOnUse">
<stop stop-color="#F03744"/>
<stop offset="1" stop-color="#F03758"/>
</linearGradient>
<linearGradient id="paint8_linear_139_328" x1="0.356445" y1="0.232422" x2="443.543" y2="271.768" gradientUnits="userSpaceOnUse">
<stop stop-color="#F03744"/>
<stop offset="1" stop-color="#F03758"/>
</linearGradient>
<linearGradient id="paint9_linear_139_328" x1="0.356445" y1="0.232422" x2="443.543" y2="271.768" gradientUnits="userSpaceOnUse">
<stop stop-color="#F03744"/>
<stop offset="1" stop-color="#F03758"/>
</linearGradient>
<linearGradient id="paint10_linear_139_328" x1="0.356445" y1="0.232422" x2="443.543" y2="271.768" gradientUnits="userSpaceOnUse">
<stop stop-color="#F03744"/>
<stop offset="1" stop-color="#F03758"/>
</linearGradient>
</defs>
</svg>
