<svg width="187" height="169" viewBox="0 0 187 169" fill="none" xmlns="http://www.w3.org/2000/svg">
<path d="M12.4375 70.8143C10.9611 67.5661 10.2228 60.7745 10.2228 50.4394V46.6745H22.8464V50.4394C22.8464 59.1504 22.9202 64.2072 23.0679 65.6098C23.1417 66.791 23.5477 67.3816 24.2859 67.3816C25.098 67.3816 25.5409 66.791 25.6147 65.6098C25.6885 64.2072 25.7255 61.7342 25.7255 58.1907V1.71692H38.349V50.4394C38.349 60.7745 37.6108 67.5661 36.1344 70.8143C33.9935 75.5389 30.2286 77.9012 24.8396 77.9012C18.6385 77.9012 14.5045 75.5389 12.4375 70.8143Z" fill="url(#paint0_linear_154_846)"/>
<path d="M40.3569 77.0153L49.8799 1.71692H63.6108L73.1339 77.0153H60.3996L59.403 65.7206H53.9771L53.0912 77.0153H40.3569ZM54.7522 55.9761H58.7386L58.4064 50.4394L57.0776 23.9742H56.4132C55.8964 36.3025 55.4535 45.1242 55.0844 50.4394L54.7522 55.9761Z" fill="url(#paint1_linear_154_846)"/>
<path d="M76.2128 70.5928C75.1793 67.8614 74.5518 64.281 74.3303 59.8517C74.1088 55.3486 73.9981 48.52 73.9981 39.3661C73.9981 33.3127 73.9981 28.8096 73.9981 25.8567C74.0719 22.83 74.2934 19.5818 74.6625 16.1122C75.0316 12.5687 75.5484 9.91115 76.2128 8.13943C77.0986 5.77712 78.6489 3.96849 80.8635 2.71352C83.152 1.45854 85.7358 0.831055 88.6149 0.831055C91.4201 0.831055 93.9669 1.45854 96.2554 2.71352C98.5439 3.96849 100.168 5.77712 101.128 8.13943C102.383 11.3876 103.084 20.3201 103.232 34.9368H90.608C90.608 23.0515 90.5342 16.0015 90.3866 13.7868C90.3128 12.1627 89.7222 11.3507 88.6149 11.3507C87.5075 11.3507 86.9169 12.1627 86.8431 13.7868C86.6955 16.0753 86.6217 24.6017 86.6217 39.3661C86.6217 53.3923 86.6955 61.8449 86.8431 64.724C86.9169 66.4957 87.5075 67.3816 88.6149 67.3816C89.7222 67.3816 90.3128 66.4957 90.3866 64.724C90.5342 62.5093 90.608 56.3452 90.608 46.2316H103.232C103.158 53.2447 103.01 58.5229 102.789 62.0664C102.567 65.536 102.014 68.3782 101.128 70.5928C99.2083 75.4651 95.0374 77.9012 88.6149 77.9012C82.0447 77.9012 77.9107 75.4651 76.2128 70.5928Z" fill="url(#paint2_linear_154_846)"/>
<path d="M107.76 70.5928C107.096 68.9687 106.579 66.4588 106.21 63.063C105.915 59.5933 105.73 56.3452 105.656 53.3185C105.656 50.2918 105.656 45.641 105.656 39.3661C105.656 22.3871 106.358 11.9782 107.76 8.13943C108.646 5.85095 110.233 4.07922 112.522 2.82425C114.81 1.49545 117.394 0.831055 120.273 0.831055C123.152 0.831055 125.736 1.49545 128.025 2.82425C130.313 4.07922 131.9 5.85095 132.786 8.13943C134.189 11.9782 134.89 22.3871 134.89 39.3661C134.89 45.641 134.853 50.2918 134.779 53.3185C134.779 56.3452 134.595 59.5933 134.226 63.063C133.93 66.4588 133.45 68.9687 132.786 70.5928C130.719 75.4651 126.548 77.9012 120.273 77.9012C113.998 77.9012 109.827 75.4651 107.76 70.5928ZM118.502 64.724C118.575 66.4957 119.166 67.3816 120.273 67.3816C121.381 67.3816 121.971 66.4957 122.045 64.724C122.193 61.8449 122.266 53.3923 122.266 39.3661C122.266 24.6017 122.193 16.0753 122.045 13.7868C121.971 12.1627 121.381 11.3507 120.273 11.3507C119.166 11.3507 118.575 12.1627 118.502 13.7868C118.354 16.0753 118.28 24.6017 118.28 39.3661C118.28 53.3923 118.354 61.8449 118.502 64.724Z" fill="url(#paint3_linear_154_846)"/>
<path d="M138.422 77.0153V1.71692H153.039C158.059 1.71692 161.639 2.78734 163.78 4.92817C165.035 6.18315 165.995 7.88105 166.659 10.0219C167.323 12.1627 167.693 14.0083 167.766 15.5585C167.84 17.1088 167.877 19.3604 167.877 22.3132C167.877 28.1452 166.881 32.2423 164.887 34.6046C164.001 35.6381 162.931 36.3394 161.676 36.7085V36.8193C162.783 37.2622 163.78 37.9266 164.666 38.8125C165.995 40.1413 166.844 41.8023 167.213 43.7954C167.656 45.7886 167.877 48.8892 167.877 53.097C167.877 58.3384 167.656 62.5093 167.213 65.6098C166.77 68.7104 165.81 71.1465 164.334 72.9182C162.119 75.6496 158.686 77.0153 154.036 77.0153H138.422ZM151.046 66.4957H152.485C153.371 66.4957 153.962 66.3111 154.257 65.942C154.626 65.5729 154.884 64.9823 155.032 64.1703C155.18 62.9892 155.254 59.2981 155.254 53.097C155.254 48.3724 155.106 45.5303 154.811 44.5706C154.442 43.5371 153.556 43.0203 152.153 43.0203H151.046V66.4957ZM151.046 33.2758H151.821C153.371 33.2758 154.331 32.5745 154.7 31.1719C155.069 29.9169 155.254 26.964 155.254 22.3132C155.254 18.0316 155.217 15.4847 155.143 14.6727C154.995 13.0486 154.146 12.2365 152.596 12.2365H151.046V33.2758Z" fill="url(#paint4_linear_154_846)"/>
<path d="M0.4375 167.559V92.261H13.0611V125.702H13.504L17.0474 92.261H29.7817L24.3558 129.799L30.4461 167.559H17.3796L13.504 134.34H13.0611V167.559H0.4375Z" fill="url(#paint5_linear_154_846)"/>
<path d="M35.1756 161.248C33.6992 157.852 32.961 151.06 32.961 140.873V92.261H45.5845V150.064C45.5845 152.352 45.6584 154.198 45.806 155.6C45.9536 157.15 46.5442 157.926 47.5777 157.926C48.6112 157.926 49.2018 157.15 49.3495 155.6C49.3495 155.305 49.3495 154.973 49.3495 154.604C49.4233 154.235 49.4602 153.865 49.4602 153.496C49.4602 153.127 49.4602 152.721 49.4602 152.278C49.534 151.835 49.5709 151.503 49.5709 151.282C49.5709 151.06 49.5709 150.802 49.5709 150.507C49.5709 150.137 49.5709 149.99 49.5709 150.064V92.261H62.1945V140.873C62.1945 151.06 61.4563 157.852 59.9798 161.248C57.9866 166.046 53.8526 168.445 47.5777 168.445C41.3767 168.445 37.2427 166.046 35.1756 161.248Z" fill="url(#paint6_linear_154_846)"/>
<path d="M67.9976 161.137C66.9641 158.405 66.3366 154.825 66.1151 150.396C65.8937 145.893 65.7829 139.064 65.7829 129.91C65.7829 123.857 65.7829 119.354 65.7829 116.401C65.8567 113.374 66.0782 110.126 66.4473 106.656C66.8164 103.113 67.3332 100.455 67.9976 98.6835C68.8834 96.3212 70.4337 94.5126 72.6484 93.2576C74.9368 92.0026 77.5206 91.3751 80.3997 91.3751C83.2049 91.3751 85.7518 92.0026 88.0402 93.2576C90.3287 94.5126 91.9528 96.3212 92.9125 98.6835C94.1675 101.932 94.8688 110.864 95.0164 125.481H82.3929C82.3929 113.596 82.319 106.546 82.1714 104.331C82.0976 102.707 81.507 101.895 80.3997 101.895C79.2923 101.895 78.7018 102.707 78.6279 104.331C78.4803 106.619 78.4065 115.146 78.4065 129.91C78.4065 143.936 78.4803 152.389 78.6279 155.268C78.7018 157.04 79.2923 157.926 80.3997 157.926C81.507 157.926 82.0976 157.04 82.1714 155.268C82.319 153.053 82.3929 146.889 82.3929 136.776H95.0164C94.9426 143.789 94.795 149.067 94.5735 152.61C94.352 156.08 93.7984 158.922 92.9125 161.137C90.9931 166.009 86.8222 168.445 80.3997 168.445C73.8295 168.445 69.6955 166.009 67.9976 161.137Z" fill="url(#paint7_linear_154_846)"/>
<path d="M98.5486 167.559V92.261H120.031V102.781H111.172V123.82H118.923V133.564H111.172V157.04H120.031V167.559H98.5486Z" fill="url(#paint8_linear_154_846)"/>
<path d="M122.421 167.559V92.261H136.927C142.168 92.261 145.749 93.3314 147.668 95.4722C148.923 96.801 149.846 98.7573 150.437 101.341C151.101 103.851 151.47 105.918 151.544 107.542C151.618 109.166 151.655 111.492 151.655 114.518C151.655 117.176 151.618 119.132 151.544 120.387C151.47 121.642 151.212 123.045 150.769 124.595C150.326 126.145 149.661 127.437 148.776 128.471C147.963 129.357 146.893 130.058 145.564 130.575V130.685C146.819 131.202 147.853 131.866 148.665 132.679C150.658 134.672 151.655 138.953 151.655 145.524V167.559H139.031V144.195C139.031 141.242 138.92 139.322 138.699 138.437C138.477 137.403 137.628 136.886 136.152 136.886H135.045V167.559H122.421ZM135.045 127.142H135.931C137.481 127.142 138.404 126.441 138.699 125.038C138.92 123.783 139.031 120.276 139.031 114.518C139.031 109.72 138.957 106.619 138.81 105.217C138.662 103.593 137.887 102.781 136.484 102.781H135.045V127.142Z" fill="url(#paint9_linear_154_846)"/>
<path d="M153.693 167.559L163.216 92.261H176.947L186.47 167.559H173.735L172.739 156.265H167.313L166.427 167.559H153.693ZM168.088 146.52H172.074L171.742 140.983L170.413 114.518H169.749C169.232 126.847 168.789 135.668 168.42 140.983L168.088 146.52Z" fill="url(#paint10_linear_154_846)"/>
<defs>
<linearGradient id="paint0_linear_154_846" x1="-1.77734" y1="0.83105" x2="271.795" y2="168.445" gradientUnits="userSpaceOnUse">
<stop stop-color="#F03744"/>
<stop offset="1" stop-color="#F03758"/>
</linearGradient>
<linearGradient id="paint1_linear_154_846" x1="-1.77734" y1="0.83105" x2="271.795" y2="168.445" gradientUnits="userSpaceOnUse">
<stop stop-color="#F03744"/>
<stop offset="1" stop-color="#F03758"/>
</linearGradient>
<linearGradient id="paint2_linear_154_846" x1="-1.77734" y1="0.83105" x2="271.795" y2="168.445" gradientUnits="userSpaceOnUse">
<stop stop-color="#F03744"/>
<stop offset="1" stop-color="#F03758"/>
</linearGradient>
<linearGradient id="paint3_linear_154_846" x1="-1.77734" y1="0.83105" x2="271.795" y2="168.445" gradientUnits="userSpaceOnUse">
<stop stop-color="#F03744"/>
<stop offset="1" stop-color="#F03758"/>
</linearGradient>
<linearGradient id="paint4_linear_154_846" x1="-1.77734" y1="0.83105" x2="271.795" y2="168.445" gradientUnits="userSpaceOnUse">
<stop stop-color="#F03744"/>
<stop offset="1" stop-color="#F03758"/>
</linearGradient>
<linearGradient id="paint5_linear_154_846" x1="-1.77734" y1="0.83105" x2="271.795" y2="168.445" gradientUnits="userSpaceOnUse">
<stop stop-color="#F03744"/>
<stop offset="1" stop-color="#F03758"/>
</linearGradient>
<linearGradient id="paint6_linear_154_846" x1="-1.77734" y1="0.83105" x2="271.795" y2="168.445" gradientUnits="userSpaceOnUse">
<stop stop-color="#F03744"/>
<stop offset="1" stop-color="#F03758"/>
</linearGradient>
<linearGradient id="paint7_linear_154_846" x1="-1.77734" y1="0.83105" x2="271.795" y2="168.445" gradientUnits="userSpaceOnUse">
<stop stop-color="#F03744"/>
<stop offset="1" stop-color="#F03758"/>
</linearGradient>
<linearGradient id="paint8_linear_154_846" x1="-1.77734" y1="0.83105" x2="271.795" y2="168.445" gradientUnits="userSpaceOnUse">
<stop stop-color="#F03744"/>
<stop offset="1" stop-color="#F03758"/>
</linearGradient>
<linearGradient id="paint9_linear_154_846" x1="-1.77734" y1="0.83105" x2="271.795" y2="168.445" gradientUnits="userSpaceOnUse">
<stop stop-color="#F03744"/>
<stop offset="1" stop-color="#F03758"/>
</linearGradient>
<linearGradient id="paint10_linear_154_846" x1="-1.77734" y1="0.83105" x2="271.795" y2="168.445" gradientUnits="userSpaceOnUse">
<stop stop-color="#F03744"/>
<stop offset="1" stop-color="#F03758"/>
</linearGradient>
</defs>
</svg>
