<svg width="24" height="25" viewBox="0 0 24 25" fill="none" xmlns="http://www.w3.org/2000/svg">
<path d="M19.5984 10.8115C19.5984 16.7211 12.0004 21.7865 12.0004 21.7865C12.0004 21.7865 4.40234 16.7211 4.40234 10.8115C4.40234 8.79642 5.20285 6.86382 6.62776 5.43891C8.05267 4.014 9.98526 3.2135 12.0004 3.2135C14.0155 3.2135 15.9481 4.014 17.373 5.43891C18.7979 6.86382 19.5984 8.79642 19.5984 10.8115Z" stroke="#F73A45" stroke-width="2.5" stroke-linecap="round" stroke-linejoin="round"/>
<path d="M12.0005 13.3442C13.3992 13.3442 14.5331 12.2103 14.5331 10.8115C14.5331 9.41278 13.3992 8.27886 12.0005 8.27886C10.6017 8.27886 9.46777 9.41278 9.46777 10.8115C9.46777 12.2103 10.6017 13.3442 12.0005 13.3442Z" stroke="#F73A45" stroke-width="2.5" stroke-linecap="round" stroke-linejoin="round"/>
</svg>
