<svg width="222" height="24" viewBox="0 0 222 24" fill="none" xmlns="http://www.w3.org/2000/svg">
<g clip-path="url(#clip0_151_116)">
<path d="M12 22C17.5228 22 22 17.5228 22 12C22 6.47715 17.5228 2 12 2C6.47715 2 2 6.47715 2 12C2 17.5228 6.47715 22 12 22Z" stroke="#F03745" stroke-width="2.5" stroke-linecap="round" stroke-linejoin="round"/>
<path d="M8 12L12 16L16 12" stroke="#F03745" stroke-width="2.5" stroke-linecap="round" stroke-linejoin="round"/>
<path d="M12 8V16" stroke="#F03745" stroke-width="2.5" stroke-linecap="round" stroke-linejoin="round"/>
</g>
<path d="M41.3239 9.68093C41.2784 9.2226 41.0833 8.86654 40.7386 8.61275C40.3939 8.35896 39.9261 8.23207 39.3352 8.23207C38.9337 8.23207 38.5947 8.28888 38.3182 8.40252C38.0417 8.51237 37.8295 8.66578 37.6818 8.86275C37.5379 9.05972 37.4659 9.2832 37.4659 9.5332C37.4583 9.74154 37.5019 9.92335 37.5966 10.0787C37.6951 10.234 37.8295 10.3684 38 10.4821C38.1705 10.5919 38.3674 10.6885 38.5909 10.7718C38.8144 10.8514 39.053 10.9196 39.3068 10.9764L40.3523 11.2264C40.8598 11.34 41.3258 11.4915 41.75 11.6809C42.1742 11.8703 42.5417 12.1033 42.8523 12.3798C43.1629 12.6563 43.4034 12.9821 43.5739 13.3571C43.7481 13.7321 43.8371 14.162 43.8409 14.6468C43.8371 15.359 43.6553 15.9764 43.2955 16.4991C42.9394 17.0181 42.4242 17.4215 41.75 17.7093C41.0795 17.9934 40.2708 18.1355 39.3239 18.1355C38.3845 18.1355 37.5663 17.9915 36.8693 17.7037C36.1761 17.4158 35.6345 16.9896 35.2443 16.4252C34.858 15.8571 34.6553 15.1544 34.6364 14.3173H37.017C37.0436 14.7074 37.1553 15.0332 37.3523 15.2946C37.553 15.5521 37.8201 15.7472 38.1534 15.8798C38.4905 16.0086 38.8712 16.073 39.2955 16.073C39.7121 16.073 40.0739 16.0124 40.3807 15.8912C40.6913 15.7699 40.9318 15.6014 41.1023 15.3855C41.2727 15.1696 41.358 14.9215 41.358 14.6412C41.358 14.3798 41.2803 14.1601 41.125 13.9821C40.9735 13.804 40.75 13.6525 40.4545 13.5275C40.1629 13.4025 39.8049 13.2889 39.3807 13.1866L38.1136 12.8684C37.1326 12.6298 36.358 12.2567 35.7898 11.7491C35.2216 11.2415 34.9394 10.5578 34.9432 9.69798C34.9394 8.99343 35.1269 8.3779 35.5057 7.85139C35.8883 7.32487 36.4129 6.91388 37.0795 6.61843C37.7462 6.32298 38.5038 6.17525 39.3523 6.17525C40.2159 6.17525 40.9697 6.32298 41.6136 6.61843C42.2614 6.91388 42.7652 7.32487 43.125 7.85139C43.4848 8.3779 43.6705 8.98775 43.6818 9.68093H41.3239ZM55.3628 10.4082H52.8741C52.8287 10.0862 52.7359 9.80025 52.5957 9.55025C52.4556 9.29646 52.2757 9.08055 52.056 8.90252C51.8363 8.72449 51.5825 8.58813 51.2946 8.49343C51.0105 8.39873 50.7018 8.35139 50.3685 8.35139C49.7662 8.35139 49.2416 8.50101 48.7946 8.80025C48.3476 9.0957 48.001 9.52752 47.7548 10.0957C47.5086 10.6601 47.3855 11.3457 47.3855 12.1525C47.3855 12.9821 47.5086 13.679 47.7548 14.2434C48.0048 14.8078 48.3533 15.234 48.8003 15.5218C49.2473 15.8097 49.7643 15.9537 50.3514 15.9537C50.681 15.9537 50.9859 15.9101 51.2662 15.823C51.5503 15.7359 51.8022 15.609 52.0219 15.4423C52.2416 15.2718 52.4234 15.0654 52.5673 14.823C52.7151 14.5806 52.8173 14.304 52.8741 13.9934L55.3628 14.0048C55.2984 14.5389 55.1374 15.054 54.8798 15.5502C54.626 16.0427 54.2832 16.484 53.8514 16.8741C53.4234 17.2605 52.912 17.5673 52.3173 17.7946C51.7264 18.0181 51.0579 18.1298 50.3116 18.1298C49.2738 18.1298 48.3457 17.8949 47.5276 17.4252C46.7132 16.9556 46.0692 16.2756 45.5957 15.3855C45.126 14.4953 44.8912 13.4177 44.8912 12.1525C44.8912 10.8836 45.1298 9.80404 45.6071 8.91389C46.0844 8.02373 46.7321 7.3457 47.5503 6.87979C48.3685 6.4101 49.2889 6.17525 50.3116 6.17525C50.9859 6.17525 51.6109 6.26995 52.1866 6.45934C52.7662 6.64873 53.2795 6.92525 53.7264 7.28888C54.1734 7.64873 54.537 8.09002 54.8173 8.61275C55.1014 9.13548 55.2832 9.73396 55.3628 10.4082ZM56.727 17.9707V6.33434H61.3179C62.1967 6.33434 62.9467 6.49154 63.5679 6.80593C64.1929 7.11654 64.6683 7.55782 64.994 8.12979C65.3236 8.69798 65.4884 9.36654 65.4884 10.1355C65.4884 10.9082 65.3217 11.573 64.9884 12.1298C64.655 12.6828 64.1721 13.1071 63.5395 13.4025C62.9107 13.698 62.1493 13.8457 61.2554 13.8457H58.1815V11.8684H60.8577C61.3274 11.8684 61.7175 11.804 62.0281 11.6752C62.3387 11.5465 62.5698 11.3533 62.7213 11.0957C62.8766 10.8381 62.9543 10.5181 62.9543 10.1355C62.9543 9.74911 62.8766 9.42335 62.7213 9.1582C62.5698 8.89305 62.3368 8.69229 62.0224 8.55593C61.7118 8.41578 61.3198 8.3457 60.8463 8.3457H59.1872V17.9707H56.727ZM63.0111 12.6752L65.9031 17.9707H63.1872L60.3577 12.6752H63.0111ZM77.5202 12.1525C77.5202 13.4215 77.2796 14.501 76.7986 15.3912C76.3213 16.2813 75.6698 16.9612 74.844 17.4309C74.0221 17.8968 73.0978 18.1298 72.0713 18.1298C71.0372 18.1298 70.1092 17.8949 69.2872 17.4252C68.4652 16.9556 67.8156 16.2756 67.3384 15.3855C66.8611 14.4953 66.6224 13.4177 66.6224 12.1525C66.6224 10.8836 66.8611 9.80404 67.3384 8.91389C67.8156 8.02373 68.4652 7.3457 69.2872 6.87979C70.1092 6.4101 71.0372 6.17525 72.0713 6.17525C73.0978 6.17525 74.0221 6.4101 74.844 6.87979C75.6698 7.3457 76.3213 8.02373 76.7986 8.91389C77.2796 9.80404 77.5202 10.8836 77.5202 12.1525ZM75.0259 12.1525C75.0259 11.3306 74.9027 10.6374 74.6565 10.073C74.4141 9.50858 74.0713 9.08055 73.6281 8.78889C73.1849 8.49722 72.666 8.35139 72.0713 8.35139C71.4766 8.35139 70.9577 8.49722 70.5145 8.78889C70.0713 9.08055 69.7266 9.50858 69.4804 10.073C69.238 10.6374 69.1168 11.3306 69.1168 12.1525C69.1168 12.9745 69.238 13.6677 69.4804 14.2321C69.7266 14.7965 70.0713 15.2245 70.5145 15.5162C70.9577 15.8078 71.4766 15.9537 72.0713 15.9537C72.666 15.9537 73.1849 15.8078 73.6281 15.5162C74.0713 15.2245 74.4141 14.7965 74.6565 14.2321C74.9027 13.6677 75.0259 12.9745 75.0259 12.1525ZM78.9426 17.9707V6.33434H81.4028V15.9423H86.3915V17.9707H78.9426ZM87.6207 17.9707V6.33434H90.081V15.9423H95.0696V17.9707H87.6207ZM99.602 17.9707V6.33434H107.307V8.36275H102.062V11.1355H106.795V13.1639H102.062V17.9707H99.602ZM119.255 12.1525C119.255 13.4215 119.014 14.501 118.533 15.3912C118.056 16.2813 117.404 16.9612 116.578 17.4309C115.756 17.8968 114.832 18.1298 113.806 18.1298C112.772 18.1298 111.844 17.8949 111.022 17.4252C110.2 16.9556 109.55 16.2756 109.073 15.3855C108.595 14.4953 108.357 13.4177 108.357 12.1525C108.357 10.8836 108.595 9.80404 109.073 8.91389C109.55 8.02373 110.2 7.3457 111.022 6.87979C111.844 6.4101 112.772 6.17525 113.806 6.17525C114.832 6.17525 115.756 6.4101 116.578 6.87979C117.404 7.3457 118.056 8.02373 118.533 8.91389C119.014 9.80404 119.255 10.8836 119.255 12.1525ZM116.76 12.1525C116.76 11.3306 116.637 10.6374 116.391 10.073C116.148 9.50858 115.806 9.08055 115.363 8.78889C114.919 8.49722 114.4 8.35139 113.806 8.35139C113.211 8.35139 112.692 8.49722 112.249 8.78889C111.806 9.08055 111.461 9.50858 111.215 10.073C110.972 10.6374 110.851 11.3306 110.851 12.1525C110.851 12.9745 110.972 13.6677 111.215 14.2321C111.461 14.7965 111.806 15.2245 112.249 15.5162C112.692 15.8078 113.211 15.9537 113.806 15.9537C114.4 15.9537 114.919 15.8078 115.363 15.5162C115.806 15.2245 116.148 14.7965 116.391 14.2321C116.637 13.6677 116.76 12.9745 116.76 12.1525ZM120.677 17.9707V6.33434H125.268C126.147 6.33434 126.897 6.49154 127.518 6.80593C128.143 7.11654 128.618 7.55782 128.944 8.12979C129.274 8.69798 129.438 9.36654 129.438 10.1355C129.438 10.9082 129.272 11.573 128.938 12.1298C128.605 12.6828 128.122 13.1071 127.489 13.4025C126.861 13.698 126.099 13.8457 125.205 13.8457H122.132V11.8684H124.808C125.277 11.8684 125.668 11.804 125.978 11.6752C126.289 11.5465 126.52 11.3533 126.671 11.0957C126.827 10.8381 126.904 10.5181 126.904 10.1355C126.904 9.74911 126.827 9.42335 126.671 9.1582C126.52 8.89305 126.287 8.69229 125.972 8.55593C125.662 8.41578 125.27 8.3457 124.796 8.3457H123.137V17.9707H120.677ZM126.961 12.6752L129.853 17.9707H127.137L124.308 12.6752H126.961ZM134.08 17.9707V6.33434H138.671C139.554 6.33434 140.305 6.5029 140.927 6.84002C141.548 7.17335 142.021 7.63737 142.347 8.23207C142.677 8.82298 142.841 9.50479 142.841 10.2775C142.841 11.0502 142.675 11.7321 142.341 12.323C142.008 12.9139 141.525 13.3741 140.893 13.7037C140.264 14.0332 139.502 14.198 138.609 14.198H135.682V12.2264H138.211C138.684 12.2264 139.074 12.1449 139.381 11.9821C139.692 11.8154 139.923 11.5862 140.074 11.2946C140.23 10.9991 140.307 10.6601 140.307 10.2775C140.307 9.89116 140.23 9.55404 140.074 9.26616C139.923 8.97449 139.692 8.74911 139.381 8.59002C139.071 8.42714 138.677 8.3457 138.199 8.3457H136.54V17.9707H134.08ZM154.733 12.1525C154.733 13.4215 154.492 14.501 154.011 15.3912C153.534 16.2813 152.882 16.9612 152.057 17.4309C151.235 17.8968 150.31 18.1298 149.284 18.1298C148.25 18.1298 147.322 17.8949 146.5 17.4252C145.678 16.9556 145.028 16.2756 144.551 15.3855C144.074 14.4953 143.835 13.4177 143.835 12.1525C143.835 10.8836 144.074 9.80404 144.551 8.91389C145.028 8.02373 145.678 7.3457 146.5 6.87979C147.322 6.4101 148.25 6.17525 149.284 6.17525C150.31 6.17525 151.235 6.4101 152.057 6.87979C152.882 7.3457 153.534 8.02373 154.011 8.91389C154.492 9.80404 154.733 10.8836 154.733 12.1525ZM152.238 12.1525C152.238 11.3306 152.115 10.6374 151.869 10.073C151.627 9.50858 151.284 9.08055 150.841 8.78889C150.397 8.49722 149.879 8.35139 149.284 8.35139C148.689 8.35139 148.17 8.49722 147.727 8.78889C147.284 9.08055 146.939 9.50858 146.693 10.073C146.45 10.6374 146.329 11.3306 146.329 12.1525C146.329 12.9745 146.45 13.6677 146.693 14.2321C146.939 14.7965 147.284 15.2245 147.727 15.5162C148.17 15.8078 148.689 15.9537 149.284 15.9537C149.879 15.9537 150.397 15.8078 150.841 15.5162C151.284 15.2245 151.627 14.7965 151.869 14.2321C152.115 13.6677 152.238 12.9745 152.238 12.1525ZM156.155 17.9707V6.33434H160.746C161.625 6.33434 162.375 6.49154 162.996 6.80593C163.621 7.11654 164.096 7.55782 164.422 8.12979C164.752 8.69798 164.916 9.36654 164.916 10.1355C164.916 10.9082 164.75 11.573 164.416 12.1298C164.083 12.6828 163.6 13.1071 162.968 13.4025C162.339 13.698 161.577 13.8457 160.684 13.8457H157.61V11.8684H160.286C160.755 11.8684 161.146 11.804 161.456 11.6752C161.767 11.5465 161.998 11.3533 162.149 11.0957C162.305 10.8381 162.382 10.5181 162.382 10.1355C162.382 9.74911 162.305 9.42335 162.149 9.1582C161.998 8.89305 161.765 8.69229 161.451 8.55593C161.14 8.41578 160.748 8.3457 160.274 8.3457H158.615V17.9707H156.155ZM162.439 12.6752L165.331 17.9707H162.615L159.786 12.6752H162.439ZM165.812 8.36275V6.33434H175.369V8.36275H171.806V17.9707H169.374V8.36275H165.812ZM176.543 17.9707V6.33434H184.247V8.36275H179.003V11.1355H183.736V13.1639H179.003V17.9707H176.543ZM196.195 12.1525C196.195 13.4215 195.955 14.501 195.474 15.3912C194.996 16.2813 194.345 16.9612 193.519 17.4309C192.697 17.8968 191.773 18.1298 190.746 18.1298C189.712 18.1298 188.784 17.8949 187.962 17.4252C187.14 16.9556 186.491 16.2756 186.013 15.3855C185.536 14.4953 185.297 13.4177 185.297 12.1525C185.297 10.8836 185.536 9.80404 186.013 8.91389C186.491 8.02373 187.14 7.3457 187.962 6.87979C188.784 6.4101 189.712 6.17525 190.746 6.17525C191.773 6.17525 192.697 6.4101 193.519 6.87979C194.345 7.3457 194.996 8.02373 195.474 8.91389C195.955 9.80404 196.195 10.8836 196.195 12.1525ZM193.701 12.1525C193.701 11.3306 193.578 10.6374 193.332 10.073C193.089 9.50858 192.746 9.08055 192.303 8.78889C191.86 8.49722 191.341 8.35139 190.746 8.35139C190.152 8.35139 189.633 8.49722 189.189 8.78889C188.746 9.08055 188.402 9.50858 188.155 10.073C187.913 10.6374 187.792 11.3306 187.792 12.1525C187.792 12.9745 187.913 13.6677 188.155 14.2321C188.402 14.7965 188.746 15.2245 189.189 15.5162C189.633 15.8078 190.152 15.9537 190.746 15.9537C191.341 15.9537 191.86 15.8078 192.303 15.5162C192.746 15.2245 193.089 14.7965 193.332 14.2321C193.578 13.6677 193.701 12.9745 193.701 12.1525ZM197.618 17.9707V6.33434H200.078V15.9423H205.066V17.9707H197.618ZM208.756 6.33434V17.9707H206.296V6.33434H208.756ZM221.073 12.1525C221.073 13.4215 220.833 14.501 220.352 15.3912C219.874 16.2813 219.223 16.9612 218.397 17.4309C217.575 17.8968 216.651 18.1298 215.624 18.1298C214.59 18.1298 213.662 17.8949 212.84 17.4252C212.018 16.9556 211.369 16.2756 210.891 15.3855C210.414 14.4953 210.176 13.4177 210.176 12.1525C210.176 10.8836 210.414 9.80404 210.891 8.91389C211.369 8.02373 212.018 7.3457 212.84 6.87979C213.662 6.4101 214.59 6.17525 215.624 6.17525C216.651 6.17525 217.575 6.4101 218.397 6.87979C219.223 7.3457 219.874 8.02373 220.352 8.91389C220.833 9.80404 221.073 10.8836 221.073 12.1525ZM218.579 12.1525C218.579 11.3306 218.456 10.6374 218.21 10.073C217.967 9.50858 217.624 9.08055 217.181 8.78889C216.738 8.49722 216.219 8.35139 215.624 8.35139C215.03 8.35139 214.511 8.49722 214.068 8.78889C213.624 9.08055 213.28 9.50858 213.034 10.073C212.791 10.6374 212.67 11.3306 212.67 12.1525C212.67 12.9745 212.791 13.6677 213.034 14.2321C213.28 14.7965 213.624 15.2245 214.068 15.5162C214.511 15.8078 215.03 15.9537 215.624 15.9537C216.219 15.9537 216.738 15.8078 217.181 15.5162C217.624 15.2245 217.967 14.7965 218.21 14.2321C218.456 13.6677 218.579 12.9745 218.579 12.1525Z" fill="url(#paint0_linear_151_116)"/>
<defs>
<linearGradient id="paint0_linear_151_116" x1="34" y1="5.9707" x2="231.322" y2="18.0288" gradientUnits="userSpaceOnUse">
<stop stop-color="#F03745"/>
<stop offset="1" stop-color="#F03751"/>
</linearGradient>
<clipPath id="clip0_151_116">
<rect width="24" height="24" fill="white"/>
</clipPath>
</defs>
</svg>
