<svg width="276" height="25" viewBox="0 0 276 25" fill="none" xmlns="http://www.w3.org/2000/svg">
<g clip-path="url(#clip0_22_21)">
<path d="M12 22.051C17.5228 22.051 22 17.5738 22 12.051C22 6.52812 17.5228 2.05096 12 2.05096C6.47715 2.05096 2 6.52812 2 12.051C2 17.5738 6.47715 22.051 12 22.051Z" stroke="#262B3A" stroke-width="2.5" stroke-linecap="round" stroke-linejoin="round"/>
<path d="M8 12.051L12 16.051L16 12.051" stroke="#262B3A" stroke-width="2.5" stroke-linecap="round" stroke-linejoin="round"/>
<path d="M12 8.05096V16.051" stroke="#262B3A" stroke-width="2.5" stroke-linecap="round" stroke-linejoin="round"/>
</g>
<path d="M34.48 14.311H37.52C37.52 15.2043 37.84 15.8843 38.48 16.351C39.0267 16.751 39.76 16.951 40.68 16.951C41.4 16.951 42 16.8376 42.48 16.611C43.1333 16.3043 43.46 15.8243 43.46 15.171C43.46 14.3576 42.7267 13.7443 41.26 13.331C38.7267 12.611 37.36 12.1976 37.16 12.091C35.6933 11.3843 34.96 10.271 34.96 8.75096C34.96 7.37763 35.5267 6.29096 36.66 5.49096C37.6733 4.7843 38.8867 4.43096 40.3 4.43096C41.94 4.43096 43.2667 4.7843 44.28 5.49096C45.44 6.3043 46.02 7.4843 46.02 9.03096H42.98C42.9 7.59096 41.96 6.87096 40.16 6.87096C39.5867 6.87096 39.1 6.99096 38.7 7.23096C38.2333 7.5243 38 7.9443 38 8.49096C38 9.01096 38.26 9.39096 38.78 9.63096C39.18 9.81763 40.34 10.1576 42.26 10.651C43.38 10.931 44.2133 11.251 44.76 11.611C45.92 12.3576 46.5 13.4243 46.5 14.811C46.5 16.171 45.9933 17.2643 44.98 18.091C43.9133 18.9576 42.44 19.391 40.56 19.391C38.84 19.391 37.4267 18.9843 36.32 18.171C35.08 17.251 34.4667 15.9643 34.48 14.311ZM60.4283 9.57096H57.3883C57.2949 8.8643 56.9483 8.27096 56.3483 7.79096C55.7483 7.31096 55.0549 7.07096 54.2683 7.07096C52.9483 7.07096 51.9483 7.57763 51.2683 8.59096C50.6816 9.45763 50.3883 10.5843 50.3883 11.971C50.3883 13.3043 50.6816 14.3976 51.2683 15.251C51.9616 16.251 52.9616 16.751 54.2683 16.751C55.2016 16.751 55.9549 16.451 56.5283 15.851C57.0616 15.291 57.3883 14.5243 57.5083 13.551H60.5483C60.3883 15.3243 59.7349 16.7443 58.5883 17.811C57.4549 18.8643 56.0149 19.391 54.2683 19.391C52.1216 19.391 50.4016 18.671 49.1083 17.231C47.8683 15.8576 47.2483 14.1043 47.2483 11.971C47.2483 9.7843 47.8683 7.99763 49.1083 6.61096C50.3883 5.15763 52.1083 4.43096 54.2683 4.43096C55.8949 4.43096 57.2683 4.87763 58.3883 5.77096C59.5616 6.7043 60.2416 7.97096 60.4283 9.57096ZM62.1925 19.051V4.77096H69.8925C71.1458 4.77096 72.1658 5.15763 72.9525 5.93096C73.6992 6.67763 74.0725 7.6043 74.0725 8.71096C74.0725 10.4843 73.3192 11.6776 71.8125 12.291V12.331C73.0658 12.651 73.7592 13.7643 73.8925 15.671C73.9325 16.2443 73.9725 16.8176 74.0125 17.391C74.0925 18.1643 74.2525 18.7176 74.4925 19.051H71.3525C71.2058 18.691 71.0925 18.151 71.0125 17.431C70.9592 16.831 70.9058 16.231 70.8525 15.631C70.7458 14.8576 70.5125 14.3043 70.1525 13.971C69.8058 13.6376 69.2458 13.471 68.4725 13.471H65.3325V19.051H62.1925ZM65.3325 7.21096V11.231H68.7725C70.2125 11.231 70.9325 10.551 70.9325 9.19096C70.9325 7.87096 70.2125 7.21096 68.7725 7.21096H65.3325ZM75.5061 11.971C75.5061 9.7843 76.1261 7.99763 77.3661 6.61096C78.6461 5.15763 80.3661 4.43096 82.5261 4.43096C84.6861 4.43096 86.4061 5.15763 87.6861 6.61096C88.9261 7.99763 89.5461 9.7843 89.5461 11.971C89.5461 14.1043 88.9261 15.8576 87.6861 17.231C86.3928 18.671 84.6728 19.391 82.5261 19.391C80.3794 19.391 78.6594 18.671 77.3661 17.231C76.1261 15.8576 75.5061 14.1043 75.5061 11.971ZM78.6461 11.971C78.6461 13.3043 78.9394 14.3976 79.5261 15.251C80.2194 16.251 81.2194 16.751 82.5261 16.751C83.8328 16.751 84.8328 16.251 85.5261 15.251C86.1128 14.3976 86.4061 13.3043 86.4061 11.971C86.4061 10.5843 86.1128 9.45763 85.5261 8.59096C84.8461 7.57763 83.8461 7.07096 82.5261 7.07096C81.2061 7.07096 80.2061 7.57763 79.5261 8.59096C78.9394 9.45763 78.6461 10.5843 78.6461 11.971ZM91.1925 19.051V4.77096H94.3325V16.411H101.293V19.051H91.1925ZM102.548 19.051V4.77096H105.688V16.411H112.648V19.051H102.548ZM118.97 19.051V4.77096H129.01V7.41096H122.11V10.711H128.09V13.151H122.11V19.051H118.97ZM129.705 11.971C129.705 9.7843 130.325 7.99763 131.565 6.61096C132.845 5.15763 134.565 4.43096 136.725 4.43096C138.885 4.43096 140.605 5.15763 141.885 6.61096C143.125 7.99763 143.745 9.7843 143.745 11.971C143.745 14.1043 143.125 15.8576 141.885 17.231C140.592 18.671 138.872 19.391 136.725 19.391C134.579 19.391 132.859 18.671 131.565 17.231C130.325 15.8576 129.705 14.1043 129.705 11.971ZM132.845 11.971C132.845 13.3043 133.139 14.3976 133.725 15.251C134.419 16.251 135.419 16.751 136.725 16.751C138.032 16.751 139.032 16.251 139.725 15.251C140.312 14.3976 140.605 13.3043 140.605 11.971C140.605 10.5843 140.312 9.45763 139.725 8.59096C139.045 7.57763 138.045 7.07096 136.725 7.07096C135.405 7.07096 134.405 7.57763 133.725 8.59096C133.139 9.45763 132.845 10.5843 132.845 11.971ZM145.392 19.051V4.77096H153.092C154.345 4.77096 155.365 5.15763 156.152 5.93096C156.898 6.67763 157.272 7.6043 157.272 8.71096C157.272 10.4843 156.518 11.6776 155.012 12.291V12.331C156.265 12.651 156.958 13.7643 157.092 15.671C157.132 16.2443 157.172 16.8176 157.212 17.391C157.292 18.1643 157.452 18.7176 157.692 19.051H154.552C154.405 18.691 154.292 18.151 154.212 17.431C154.158 16.831 154.105 16.231 154.052 15.631C153.945 14.8576 153.712 14.3043 153.352 13.971C153.005 13.6376 152.445 13.471 151.672 13.471H148.532V19.051H145.392ZM148.532 7.21096V11.231H151.972C153.412 11.231 154.132 10.551 154.132 9.19096C154.132 7.87096 153.412 7.21096 151.972 7.21096H148.532ZM164.392 19.051V4.77096H170.832C172.498 4.77096 173.765 5.2443 174.632 6.19096C175.392 7.0043 175.772 8.05763 175.772 9.35096C175.772 10.6443 175.392 11.6976 174.632 12.511C173.765 13.4576 172.498 13.931 170.832 13.931H167.532V19.051H164.392ZM167.532 7.21096V11.491H169.972C170.825 11.491 171.465 11.3643 171.892 11.111C172.452 10.7643 172.732 10.1776 172.732 9.35096C172.732 8.5243 172.452 7.93763 171.892 7.59096C171.465 7.33763 170.825 7.21096 169.972 7.21096H167.532ZM176.612 11.971C176.612 9.7843 177.232 7.99763 178.472 6.61096C179.752 5.15763 181.472 4.43096 183.632 4.43096C185.792 4.43096 187.512 5.15763 188.792 6.61096C190.032 7.99763 190.652 9.7843 190.652 11.971C190.652 14.1043 190.032 15.8576 188.792 17.231C187.498 18.671 185.778 19.391 183.632 19.391C181.485 19.391 179.765 18.671 178.472 17.231C177.232 15.8576 176.612 14.1043 176.612 11.971ZM179.752 11.971C179.752 13.3043 180.045 14.3976 180.632 15.251C181.325 16.251 182.325 16.751 183.632 16.751C184.938 16.751 185.938 16.251 186.632 15.251C187.218 14.3976 187.512 13.3043 187.512 11.971C187.512 10.5843 187.218 9.45763 186.632 8.59096C185.952 7.57763 184.952 7.07096 183.632 7.07096C182.312 7.07096 181.312 7.57763 180.632 8.59096C180.045 9.45763 179.752 10.5843 179.752 11.971ZM192.298 19.051V4.77096H199.998C201.251 4.77096 202.271 5.15763 203.058 5.93096C203.805 6.67763 204.178 7.6043 204.178 8.71096C204.178 10.4843 203.425 11.6776 201.918 12.291V12.331C203.171 12.651 203.865 13.7643 203.998 15.671C204.038 16.2443 204.078 16.8176 204.118 17.391C204.198 18.1643 204.358 18.7176 204.598 19.051H201.458C201.311 18.691 201.198 18.151 201.118 17.431C201.065 16.831 201.011 16.231 200.958 15.631C200.851 14.8576 200.618 14.3043 200.258 13.971C199.911 13.6376 199.351 13.471 198.578 13.471H195.438V19.051H192.298ZM195.438 7.21096V11.231H198.878C200.318 11.231 201.038 10.551 201.038 9.19096C201.038 7.87096 200.318 7.21096 198.878 7.21096H195.438ZM209.392 19.051V7.41096H205.112V4.77096H216.812V7.41096H212.532V19.051H209.392ZM217.958 19.051V4.77096H227.998V7.41096H221.098V10.711H227.078V13.151H221.098V19.051H217.958ZM228.694 11.971C228.694 9.7843 229.314 7.99763 230.554 6.61096C231.834 5.15763 233.554 4.43096 235.714 4.43096C237.874 4.43096 239.594 5.15763 240.874 6.61096C242.114 7.99763 242.734 9.7843 242.734 11.971C242.734 14.1043 242.114 15.8576 240.874 17.231C239.58 18.671 237.86 19.391 235.714 19.391C233.567 19.391 231.847 18.671 230.554 17.231C229.314 15.8576 228.694 14.1043 228.694 11.971ZM231.834 11.971C231.834 13.3043 232.127 14.3976 232.714 15.251C233.407 16.251 234.407 16.751 235.714 16.751C237.02 16.751 238.02 16.251 238.714 15.251C239.3 14.3976 239.594 13.3043 239.594 11.971C239.594 10.5843 239.3 9.45763 238.714 8.59096C238.034 7.57763 237.034 7.07096 235.714 7.07096C234.394 7.07096 233.394 7.57763 232.714 8.59096C232.127 9.45763 231.834 10.5843 231.834 11.971ZM244.38 19.051V4.77096H247.52V16.411H254.48V19.051H244.38ZM255.735 19.051V4.77096H258.875V19.051H255.735ZM260.514 11.971C260.514 9.7843 261.134 7.99763 262.374 6.61096C263.654 5.15763 265.374 4.43096 267.534 4.43096C269.694 4.43096 271.414 5.15763 272.694 6.61096C273.934 7.99763 274.554 9.7843 274.554 11.971C274.554 14.1043 273.934 15.8576 272.694 17.231C271.401 18.671 269.681 19.391 267.534 19.391C265.387 19.391 263.667 18.671 262.374 17.231C261.134 15.8576 260.514 14.1043 260.514 11.971ZM263.654 11.971C263.654 13.3043 263.947 14.3976 264.534 15.251C265.227 16.251 266.227 16.751 267.534 16.751C268.841 16.751 269.841 16.251 270.534 15.251C271.121 14.3976 271.414 13.3043 271.414 11.971C271.414 10.5843 271.121 9.45763 270.534 8.59096C269.854 7.57763 268.854 7.07096 267.534 7.07096C266.214 7.07096 265.214 7.57763 264.534 8.59096C263.947 9.45763 263.654 10.5843 263.654 11.971Z" fill="#262B3A"/>
<defs>
<clipPath id="clip0_22_21">
<rect width="24" height="24" fill="white" transform="translate(0 0.0509644)"/>
</clipPath>
</defs>
</svg>
